<svg xmlns="http://www.w3.org/2000/svg" width="1440" height="900"><path d="M655,507L761,424L467,261Z" fill="#89c99a" stroke="#89c99a" stroke-width="1.51"/><path d="M467,261L350,451L655,507Z" fill="#72ba84" stroke="#72ba84" stroke-width="1.51"/><path d="M331,339L350,451L467,261Z" fill="#4aa262" stroke="#4aa262" stroke-width="1.51"/><path d="M761,424L682,-25L467,261Z" fill="#56a96c" stroke="#56a96c" stroke-width="1.51"/><path d="M467,261L125,-58L331,339Z" fill="#178f49" stroke="#178f49" stroke-width="1.51"/><path d="M336,815L632,802L655,507Z" fill="#48a86b" stroke="#48a86b" stroke-width="1.51"/><path d="M655,507L997,734L761,424Z" fill="#81ca9b" stroke="#81ca9b" stroke-width="1.51"/><path d="M761,424L1018,92L682,-25Z" fill="#5ab179" stroke="#5ab179" stroke-width="1.51"/><path d="M997,734L1072,400L761,424Z" fill="#73c391" stroke="#73c391" stroke-width="1.51"/><path d="M1072,400L1018,92L761,424Z" fill="#57ae74" stroke="#57ae74" stroke-width="1.51"/><path d="M-71,626L336,815L350,451Z" fill="#38a569" stroke="#38a569" stroke-width="1.51"/><path d="M350,451L336,815L655,507Z" fill="#4faa6e" stroke="#4faa6e" stroke-width="1.51"/><path d="M632,802L997,734L655,507Z" fill="#67bc89" stroke="#67bc89" stroke-width="1.51"/><path d="M822,-288L516,-240L682,-25Z" fill="#75c79b" stroke="#75c79b" stroke-width="1.51"/><path d="M682,-25L516,-240L467,261Z" fill="#5db986" stroke="#5db986" stroke-width="1.51"/><path d="M331,339L-71,626L350,451Z" fill="#6abb87" stroke="#6abb87" stroke-width="1.51"/><path d="M516,-240L125,-58L467,261Z" fill="#31a265" stroke="#31a265" stroke-width="1.51"/><path d="M1018,92L822,-288L682,-25Z" fill="#68c395" stroke="#68c395" stroke-width="1.51"/><path d="M1018,92L1152,-81L822,-288Z" fill="#4ab582" stroke="#4ab582" stroke-width="1.51"/><path d="M1375,-72L1152,-81L1018,92Z" fill="#35aa72" stroke="#35aa72" stroke-width="1.51"/><path d="M997,734L1300,706L1072,400Z" fill="#3aa86c" stroke="#3aa86c" stroke-width="1.51"/><path d="M1072,400L1433,433L1018,92Z" fill="#3ca161" stroke="#3ca161" stroke-width="1.51"/><path d="M632,802L1006,958L997,734Z" fill="#4ca96c" stroke="#4ca96c" stroke-width="1.51"/><path d="M728,1098L1006,958L632,802Z" fill="#5aad71" stroke="#5aad71" stroke-width="1.51"/><path d="M-187,379L-71,626L331,339Z" fill="#7ccba0" stroke="#7ccba0" stroke-width="1.51"/><path d="M125,-58L-141,132L331,339Z" fill="#32a368" stroke="#32a368" stroke-width="1.51"/><path d="M343,-418L71,-167L125,-58Z" fill="#3dae78" stroke="#3dae78" stroke-width="1.51"/><path d="M336,815L728,1098L632,802Z" fill="#46a05e" stroke="#46a05e" stroke-width="1.51"/><path d="M568,1284L728,1098L336,815Z" fill="#419d5b" stroke="#419d5b" stroke-width="1.51"/><path d="M1302,961L1300,706L997,734Z" fill="#159551" stroke="#159551" stroke-width="1.51"/><path d="M71,-167L-141,132L125,-58Z" fill="#49b98b" stroke="#49b98b" stroke-width="1.51"/><path d="M1152,-81L1204,-194L822,-288Z" fill="#3cb07a" stroke="#3cb07a" stroke-width="1.51"/><path d="M1375,-72L1204,-194L1152,-81Z" fill="#34a86f" stroke="#34a86f" stroke-width="1.51"/><path d="M-141,132L-187,379L331,339Z" fill="#47ac74" stroke="#47ac74" stroke-width="1.51"/><path d="M516,-240L343,-418L125,-58Z" fill="#32a367" stroke="#32a367" stroke-width="1.51"/><path d="M822,-288L343,-418L516,-240Z" fill="#5eba87" stroke="#5eba87" stroke-width="1.51"/><path d="M1459,-438L343,-418L822,-288Z" fill="#62c090" stroke="#62c090" stroke-width="1.51"/><path d="M1300,706L1369,671L1072,400Z" fill="#3fa669" stroke="#3fa669" stroke-width="1.51"/><path d="M1302,961L1369,671L1300,706Z" fill="#12924c" stroke="#12924c" stroke-width="1.51"/><path d="M1369,671L1433,433L1072,400Z" fill="#5bb178" stroke="#5bb178" stroke-width="1.51"/><path d="M-94,1194L86,988L-386,878Z" fill="#2fa164" stroke="#2fa164" stroke-width="1.51"/><path d="M-71,626L86,988L336,815Z" fill="#289d5e" stroke="#289d5e" stroke-width="1.51"/><path d="M1433,433L1375,-72L1018,92Z" fill="#1c9552" stroke="#1c9552" stroke-width="1.51"/><path d="M1369,671L1640,384L1433,433Z" fill="#59ac70" stroke="#59ac70" stroke-width="1.51"/><path d="M1006,958L1302,961L997,734Z" fill="#149450" stroke="#149450" stroke-width="1.51"/><path d="M1323,1279L1302,961L1006,958Z" fill="#0e8f48" stroke="#0e8f48" stroke-width="1.51"/><path d="M728,1098L1323,1279L1006,958Z" fill="#299956" stroke="#299956" stroke-width="1.51"/><path d="M223,1292L568,1284L336,815Z" fill="#0b893e" stroke="#0b893e" stroke-width="1.51"/><path d="M-141,132L-367,45L-187,379Z" fill="#34a56b" stroke="#34a56b" stroke-width="1.51"/><path d="M-187,379L-490,460L-71,626Z" fill="#73c89c" stroke="#73c89c" stroke-width="1.51"/><path d="M71,-167L-367,45L-141,132Z" fill="#4aba8c" stroke="#4aba8c" stroke-width="1.51"/><path d="M-358,-408L-367,45L71,-167Z" fill="#4abb8d" stroke="#4abb8d" stroke-width="1.51"/><path d="M-94,1194L223,1292L86,988Z" fill="#299b5b" stroke="#299b5b" stroke-width="1.51"/><path d="M86,988L223,1292L336,815Z" fill="#1a914c" stroke="#1a914c" stroke-width="1.51"/><path d="M1433,433L1640,384L1375,-72Z" fill="#178b42" stroke="#178b42" stroke-width="1.51"/><path d="M1803,493L1640,384L1369,671Z" fill="#53aa6d" stroke="#53aa6d" stroke-width="1.51"/><path d="M-367,45L-453,385L-187,379Z" fill="#41a970" stroke="#41a970" stroke-width="1.51"/><path d="M-386,878L86,988L-71,626Z" fill="#32a56a" stroke="#32a56a" stroke-width="1.51"/><path d="M-453,385L-490,460L-187,379Z" fill="#71c597" stroke="#71c597" stroke-width="1.51"/><path d="M-367,45L-490,460L-453,385Z" fill="#4baf77" stroke="#4baf77" stroke-width="1.51"/><path d="M-490,460L-386,878L-71,626Z" fill="#3fb17c" stroke="#3fb17c" stroke-width="1.51"/><path d="M1375,-72L1459,-438L1204,-194Z" fill="#31a469" stroke="#31a469" stroke-width="1.51"/><path d="M1204,-194L1459,-438L822,-288Z" fill="#36ab73" stroke="#36ab73" stroke-width="1.51"/><path d="M1774,-21L1459,-438L1375,-72Z" fill="#2fa164" stroke="#2fa164" stroke-width="1.51"/><path d="M1302,961L1577,992L1369,671Z" fill="#04893f" stroke="#04893f" stroke-width="1.51"/><path d="M1323,1279L1577,992L1302,961Z" fill="#02883d" stroke="#02883d" stroke-width="1.51"/><path d="M1500,1347L1323,1279L568,1284Z" fill="#12924c" stroke="#12924c" stroke-width="1.51"/><path d="M568,1284L1323,1279L728,1098Z" fill="#4aa667" stroke="#4aa667" stroke-width="1.51"/><path d="M1640,384L1774,-21L1375,-72Z" fill="#209552" stroke="#209552" stroke-width="1.51"/><path d="M1856,882L1803,493L1369,671Z" fill="#13934f" stroke="#13934f" stroke-width="1.51"/><path d="M1803,493L1774,-21L1640,384Z" fill="#2b924b" stroke="#2b924b" stroke-width="1.51"/><path d="M-367,45L-358,-408L-490,460Z" fill="#47b787" stroke="#47b787" stroke-width="1.51"/><path d="M343,-418L-358,-408L71,-167Z" fill="#49b98b" stroke="#49b98b" stroke-width="1.51"/><path d="M1459,-438L-358,-408L343,-418Z" fill="#4daf79" stroke="#4daf79" stroke-width="1.51"/><path d="M1577,992L1856,882L1369,671Z" fill="#058a40" stroke="#058a40" stroke-width="1.51"/><path d="M1323,1279L1636,1241L1577,992Z" fill="#00873b" stroke="#00873b" stroke-width="1.51"/><path d="M223,1292L1500,1347L568,1284Z" fill="#5eaf74" stroke="#5eaf74" stroke-width="1.51"/><path d="M1636,1241L1856,882L1577,992Z" fill="#00873b" stroke="#00873b" stroke-width="1.51"/><path d="M1803,493L1847,-405L1774,-21Z" fill="#2c9e60" stroke="#2c9e60" stroke-width="1.51"/><path d="M1500,1347L1636,1241L1323,1279Z" fill="#00873b" stroke="#00873b" stroke-width="1.51"/><path d="M-490,460L-433,1240L-386,878Z" fill="#31a367" stroke="#31a367" stroke-width="1.51"/><path d="M-386,878L-433,1240L-94,1194Z" fill="#2fa164" stroke="#2fa164" stroke-width="1.51"/><path d="M-94,1194L-433,1240L223,1292Z" fill="#2fa164" stroke="#2fa164" stroke-width="1.51"/><path d="M1856,882L1847,-405L1803,493Z" fill="#3b9a56" stroke="#3b9a56" stroke-width="1.51"/><path d="M1774,-21L1847,-405L1459,-438Z" fill="#2fa164" stroke="#2fa164" stroke-width="1.51"/></svg>