<svg xmlns="http://www.w3.org/2000/svg" width="1440" height="900"><path d="M703,388L744,280L460,253Z" fill="#8079b6" stroke="#8079b6" stroke-width="1.51"/><path d="M460,253L421,464L703,388Z" fill="#7f78b6" stroke="#7f78b6" stroke-width="1.51"/><path d="M744,280L606,-154L460,253Z" fill="#6766ad" stroke="#6766ad" stroke-width="1.51"/><path d="M1128,259L898,136L744,280Z" fill="#5650a6" stroke="#5650a6" stroke-width="1.51"/><path d="M460,253L257,120L421,464Z" fill="#5558ab" stroke="#5558ab" stroke-width="1.51"/><path d="M511,-149L257,120L460,253Z" fill="#4750a3" stroke="#4750a3" stroke-width="1.51"/><path d="M703,388L945,557L744,280Z" fill="#9587ba" stroke="#9587ba" stroke-width="1.51"/><path d="M639,789L945,557L703,388Z" fill="#8270b1" stroke="#8270b1" stroke-width="1.51"/><path d="M898,136L606,-154L744,280Z" fill="#716dae" stroke="#716dae" stroke-width="1.51"/><path d="M606,-154L511,-149L460,253Z" fill="#575ca6" stroke="#575ca6" stroke-width="1.51"/><path d="M421,464L578,785L703,388Z" fill="#7d6fb2" stroke="#7d6fb2" stroke-width="1.51"/><path d="M257,120L167,518L421,464Z" fill="#6665ad" stroke="#6665ad" stroke-width="1.51"/><path d="M159,762L578,785L421,464Z" fill="#3b399d" stroke="#3b399d" stroke-width="1.51"/><path d="M578,785L639,789L703,388Z" fill="#6a58a8" stroke="#6a58a8" stroke-width="1.51"/><path d="M898,136L965,-174L606,-154Z" fill="#625fa7" stroke="#625fa7" stroke-width="1.51"/><path d="M945,557L1128,259L744,280Z" fill="#7465ae" stroke="#7465ae" stroke-width="1.51"/><path d="M639,789L894,764L945,557Z" fill="#5e48a0" stroke="#5e48a0" stroke-width="1.51"/><path d="M945,557L1258,364L1128,259Z" fill="#6451a4" stroke="#6451a4" stroke-width="1.51"/><path d="M511,-149L268,-188L257,120Z" fill="#3a4b9f" stroke="#3a4b9f" stroke-width="1.51"/><path d="M-86,211L39,517L167,518Z" fill="#6c6cac" stroke="#6c6cac" stroke-width="1.51"/><path d="M253,-295L268,-188L511,-149Z" fill="#3a4b9f" stroke="#3a4b9f" stroke-width="1.51"/><path d="M529,-403L253,-295L511,-149Z" fill="#4852a2" stroke="#4852a2" stroke-width="1.51"/><path d="M1235,-82L965,-174L898,136Z" fill="#383b98" stroke="#383b98" stroke-width="1.51"/><path d="M167,518L159,762L421,464Z" fill="#534ea4" stroke="#534ea4" stroke-width="1.51"/><path d="M-86,211L167,518L257,120Z" fill="#4e55a5" stroke="#4e55a5" stroke-width="1.51"/><path d="M965,-174L827,-284L606,-154Z" fill="#6563a8" stroke="#6563a8" stroke-width="1.51"/><path d="M373,1068L821,1051L639,789Z" fill="#6d4b96" stroke="#6d4b96" stroke-width="1.51"/><path d="M39,517L159,762L167,518Z" fill="#4a489f" stroke="#4a489f" stroke-width="1.51"/><path d="M1300,692L1258,364L945,557Z" fill="#5a419c" stroke="#5a419c" stroke-width="1.51"/><path d="M1128,259L1235,-82L898,136Z" fill="#303497" stroke="#303497" stroke-width="1.51"/><path d="M-178,-4L-86,211L257,120Z" fill="#36499c" stroke="#36499c" stroke-width="1.51"/><path d="M529,-403L511,-149L606,-154Z" fill="#5a5ea7" stroke="#5a5ea7" stroke-width="1.51"/><path d="M-178,-4L257,120L268,-188Z" fill="#35499b" stroke="#35499b" stroke-width="1.51"/><path d="M827,-284L529,-403L606,-154Z" fill="#6a6aab" stroke="#6a6aab" stroke-width="1.51"/><path d="M159,762L292,951L578,785Z" fill="#433290" stroke="#433290" stroke-width="1.51"/><path d="M639,789L821,1051L894,764Z" fill="#6f4c98" stroke="#6f4c98" stroke-width="1.51"/><path d="M1441,-76L1235,-82L1128,259Z" fill="#3a318e" stroke="#3a318e" stroke-width="1.51"/><path d="M965,-174L1098,-269L827,-284Z" fill="#47479c" stroke="#47479c" stroke-width="1.51"/><path d="M827,-284L1293,-407L529,-403Z" fill="#5754a2" stroke="#5754a2" stroke-width="1.51"/><path d="M1235,-82L1098,-269L965,-174Z" fill="#2d3394" stroke="#2d3394" stroke-width="1.51"/><path d="M894,764L1300,692L945,557Z" fill="#2e2393" stroke="#2e2393" stroke-width="1.51"/><path d="M373,1068L639,789L578,785Z" fill="#614394" stroke="#614394" stroke-width="1.51"/><path d="M1258,364L1441,-76L1128,259Z" fill="#403292" stroke="#403292" stroke-width="1.51"/><path d="M1125,996L1300,692L894,764Z" fill="#351786" stroke="#351786" stroke-width="1.51"/><path d="M292,951L373,1068L578,785Z" fill="#51368f" stroke="#51368f" stroke-width="1.51"/><path d="M121,1198L373,1068L292,951Z" fill="#47308b" stroke="#47308b" stroke-width="1.51"/><path d="M39,517L-104,700L159,762Z" fill="#333797" stroke="#333797" stroke-width="1.51"/><path d="M159,762L3,879L292,951Z" fill="#42308b" stroke="#42308b" stroke-width="1.51"/><path d="M-355,689L-104,700L-437,338Z" fill="#504e9f" stroke="#504e9f" stroke-width="1.51"/><path d="M-86,211L-437,338L39,517Z" fill="#5d61a8" stroke="#5d61a8" stroke-width="1.51"/><path d="M-142,-220L-178,-4L268,-188Z" fill="#324899" stroke="#324899" stroke-width="1.51"/><path d="M-104,700L3,879L159,762Z" fill="#38318e" stroke="#38318e" stroke-width="1.51"/><path d="M821,1051L1060,1038L894,764Z" fill="#58328d" stroke="#58328d" stroke-width="1.51"/><path d="M1060,1038L1125,996L894,764Z" fill="#462086" stroke="#462086" stroke-width="1.51"/><path d="M-333,-409L-142,-220L253,-295Z" fill="#324899" stroke="#324899" stroke-width="1.51"/><path d="M253,-295L-142,-220L268,-188Z" fill="#35499b" stroke="#35499b" stroke-width="1.51"/><path d="M1419,-256L1293,-407L1098,-269Z" fill="#39318d" stroke="#39318d" stroke-width="1.51"/><path d="M1586,84L1441,-76L1258,364Z" fill="#45308a" stroke="#45308a" stroke-width="1.51"/><path d="M1098,-269L1293,-407L827,-284Z" fill="#2e3595" stroke="#2e3595" stroke-width="1.51"/><path d="M1419,-256L1098,-269L1235,-82Z" fill="#38318e" stroke="#38318e" stroke-width="1.51"/><path d="M1441,-76L1419,-256L1235,-82Z" fill="#3f3089" stroke="#3f3089" stroke-width="1.51"/><path d="M-142,-220L-339,-30L-178,-4Z" fill="#324899" stroke="#324899" stroke-width="1.51"/><path d="M-178,-4L-409,259L-86,211Z" fill="#384a9d" stroke="#384a9d" stroke-width="1.51"/><path d="M1441,-76L1673,-140L1419,-256Z" fill="#422f86" stroke="#422f86" stroke-width="1.51"/><path d="M1586,556L1586,84L1258,364Z" fill="#634394" stroke="#634394" stroke-width="1.51"/><path d="M-339,-30L-409,259L-178,-4Z" fill="#35499b" stroke="#35499b" stroke-width="1.51"/><path d="M-170,1185L121,1198L3,879Z" fill="#422f86" stroke="#422f86" stroke-width="1.51"/><path d="M1358,1201L1424,996L1125,996Z" fill="#440f79" stroke="#440f79" stroke-width="1.51"/><path d="M821,1051L822,1273L1060,1038Z" fill="#5d378e" stroke="#5d378e" stroke-width="1.51"/><path d="M561,1334L822,1273L821,1051Z" fill="#785599" stroke="#785599" stroke-width="1.51"/><path d="M1300,692L1586,556L1258,364Z" fill="#623f93" stroke="#623f93" stroke-width="1.51"/><path d="M1565,762L1586,556L1300,692Z" fill="#3c1682" stroke="#3c1682" stroke-width="1.51"/><path d="M373,1068L561,1334L821,1051Z" fill="#694895" stroke="#694895" stroke-width="1.51"/><path d="M3,879L121,1198L292,951Z" fill="#452f89" stroke="#452f89" stroke-width="1.51"/><path d="M-392,995L3,879L-104,700Z" fill="#3f2f89" stroke="#3f2f89" stroke-width="1.51"/><path d="M-437,338L-104,700L39,517Z" fill="#605ea6" stroke="#605ea6" stroke-width="1.51"/><path d="M-333,-409L-437,338L-409,259Z" fill="#35499b" stroke="#35499b" stroke-width="1.51"/><path d="M-409,259L-437,338L-86,211Z" fill="#4852a2" stroke="#4852a2" stroke-width="1.51"/><path d="M121,1198L561,1334L373,1068Z" fill="#49318d" stroke="#49318d" stroke-width="1.51"/><path d="M1424,996L1300,692L1125,996Z" fill="#43107a" stroke="#43107a" stroke-width="1.51"/><path d="M1424,996L1565,762L1300,692Z" fill="#440f79" stroke="#440f79" stroke-width="1.51"/><path d="M1358,1201L1125,996L1060,1038Z" fill="#3f127e" stroke="#3f127e" stroke-width="1.51"/><path d="M822,1273L998,1340L1060,1038Z" fill="#522c8a" stroke="#522c8a" stroke-width="1.51"/><path d="M561,1334L998,1340L822,1273Z" fill="#6f4a95" stroke="#6f4a95" stroke-width="1.51"/><path d="M1586,84L1673,-140L1441,-76Z" fill="#422f86" stroke="#422f86" stroke-width="1.51"/><path d="M1419,-256L1848,-403L1293,-407Z" fill="#422f86" stroke="#422f86" stroke-width="1.51"/><path d="M1768,184L1673,-140L1586,84Z" fill="#432f87" stroke="#432f87" stroke-width="1.51"/><path d="M1768,184L1586,84L1586,556Z" fill="#553990" stroke="#553990" stroke-width="1.51"/><path d="M-339,-30L-333,-409L-409,259Z" fill="#324899" stroke="#324899" stroke-width="1.51"/><path d="M-142,-220L-333,-409L-339,-30Z" fill="#324899" stroke="#324899" stroke-width="1.51"/><path d="M529,-403L-333,-409L253,-295Z" fill="#36499b" stroke="#36499b" stroke-width="1.51"/><path d="M1293,-407L-333,-409L529,-403Z" fill="#5259a5" stroke="#5259a5" stroke-width="1.51"/><path d="M1819,458L1768,184L1586,556Z" fill="#704f97" stroke="#704f97" stroke-width="1.51"/><path d="M-392,995L-170,1185L3,879Z" fill="#422f86" stroke="#422f86" stroke-width="1.51"/><path d="M121,1198L-232,1338L561,1334Z" fill="#452f89" stroke="#452f89" stroke-width="1.51"/><path d="M998,1340L1358,1201L1060,1038Z" fill="#3d137f" stroke="#3d137f" stroke-width="1.51"/><path d="M1424,996L1643,1067L1565,762Z" fill="#490b74" stroke="#490b74" stroke-width="1.51"/><path d="M-355,689L-392,995L-104,700Z" fill="#39318d" stroke="#39318d" stroke-width="1.51"/><path d="M-437,338L-392,995L-355,689Z" fill="#2c3495" stroke="#2c3495" stroke-width="1.51"/><path d="M1871,674L1819,458L1586,556Z" fill="#5d378e" stroke="#5d378e" stroke-width="1.51"/><path d="M1871,674L1586,556L1565,762Z" fill="#3e1883" stroke="#3e1883" stroke-width="1.51"/><path d="M1599,1128L1643,1067L1424,996Z" fill="#490b74" stroke="#490b74" stroke-width="1.51"/><path d="M1728,1251L1599,1128L1358,1201Z" fill="#490b74" stroke="#490b74" stroke-width="1.51"/><path d="M1358,1201L1599,1128L1424,996Z" fill="#490b74" stroke="#490b74" stroke-width="1.51"/><path d="M1643,1067L1871,674L1565,762Z" fill="#450e78" stroke="#450e78" stroke-width="1.51"/><path d="M1819,458L1848,-403L1768,184Z" fill="#442f89" stroke="#442f89" stroke-width="1.51"/><path d="M-170,1185L-232,1338L121,1198Z" fill="#422f86" stroke="#422f86" stroke-width="1.51"/><path d="M561,1334L-232,1338L998,1340Z" fill="#553990" stroke="#553990" stroke-width="1.51"/><path d="M-392,995L-232,1338L-170,1185Z" fill="#422f86" stroke="#422f86" stroke-width="1.51"/><path d="M1768,184L1848,-403L1673,-140Z" fill="#422f86" stroke="#422f86" stroke-width="1.51"/><path d="M1673,-140L1848,-403L1419,-256Z" fill="#422f86" stroke="#422f86" stroke-width="1.51"/><path d="M1871,674L1848,-403L1819,458Z" fill="#4d348e" stroke="#4d348e" stroke-width="1.51"/><path d="M998,1340L1728,1251L1358,1201Z" fill="#460e77" stroke="#460e77" stroke-width="1.51"/><path d="M1599,1128L1728,1251L1643,1067Z" fill="#490b74" stroke="#490b74" stroke-width="1.51"/><path d="M1643,1067L1728,1251L1871,674Z" fill="#490b74" stroke="#490b74" stroke-width="1.51"/></svg>