<svg xmlns="http://www.w3.org/2000/svg" width="1440" height="900"><path d="M491,506L149,301L240,721Z" fill="#df6091" stroke="#df6091" stroke-width="1.51"/><path d="M149,301L-71,691L240,721Z" fill="#d85082" stroke="#d85082" stroke-width="1.51"/><path d="M491,506L419,127L149,301Z" fill="#e35e90" stroke="#e35e90" stroke-width="1.51"/><path d="M149,301L-163,359L-71,691Z" fill="#e1578a" stroke="#e1578a" stroke-width="1.51"/><path d="M153,34L-163,359L149,301Z" fill="#dd477d" stroke="#dd477d" stroke-width="1.51"/><path d="M419,127L153,34L149,301Z" fill="#de4c80" stroke="#de4c80" stroke-width="1.51"/><path d="M419,127L484,-310L153,34Z" fill="#dc447a" stroke="#dc447a" stroke-width="1.51"/><path d="M809,44L630,-15L419,127Z" fill="#e0578a" stroke="#e0578a" stroke-width="1.51"/><path d="M240,721L669,992L491,506Z" fill="#d05281" stroke="#d05281" stroke-width="1.51"/><path d="M-103,1061L187,1121L240,721Z" fill="#bf2d61" stroke="#bf2d61" stroke-width="1.51"/><path d="M153,34L-27,-73L-163,359Z" fill="#da3972" stroke="#da3972" stroke-width="1.51"/><path d="M173,-452L-27,-73L153,34Z" fill="#d9346f" stroke="#d9346f" stroke-width="1.51"/><path d="M187,1121L669,992L240,721Z" fill="#c33c6c" stroke="#c33c6c" stroke-width="1.51"/><path d="M491,506L809,44L419,127Z" fill="#e36293" stroke="#e36293" stroke-width="1.51"/><path d="M-513,957L-103,1061L-71,691Z" fill="#be255d" stroke="#be255d" stroke-width="1.51"/><path d="M-71,691L-103,1061L240,721Z" fill="#c43065" stroke="#c43065" stroke-width="1.51"/><path d="M1032,794L956,407L491,506Z" fill="#db6897" stroke="#db6897" stroke-width="1.51"/><path d="M956,407L809,44L491,506Z" fill="#e56e9f" stroke="#e56e9f" stroke-width="1.51"/><path d="M669,992L1032,794L491,506Z" fill="#d15b89" stroke="#d15b89" stroke-width="1.51"/><path d="M630,-15L484,-310L419,127Z" fill="#de4d81" stroke="#de4d81" stroke-width="1.51"/><path d="M732,-497L484,-310L630,-15Z" fill="#df5285" stroke="#df5285" stroke-width="1.51"/><path d="M669,992L1042,859L1032,794Z" fill="#bf4471" stroke="#bf4471" stroke-width="1.51"/><path d="M669,992L1148,1200L1042,859Z" fill="#bc406d" stroke="#bc406d" stroke-width="1.51"/><path d="M187,1121L641,1301L669,992Z" fill="#c54372" stroke="#c54372" stroke-width="1.51"/><path d="M101,1467L641,1301L187,1121Z" fill="#c2396a" stroke="#c2396a" stroke-width="1.51"/><path d="M1042,859L1095,815L1032,794Z" fill="#bd416e" stroke="#bd416e" stroke-width="1.51"/><path d="M1032,794L1245,649L956,407Z" fill="#cc5581" stroke="#cc5581" stroke-width="1.51"/><path d="M1148,1200L1095,815L1042,859Z" fill="#b63664" stroke="#b63664" stroke-width="1.51"/><path d="M-661,705L-513,957L-71,691Z" fill="#c73368" stroke="#c73368" stroke-width="1.51"/><path d="M-103,1061L101,1467L187,1121Z" fill="#bf2a5f" stroke="#bf2a5f" stroke-width="1.51"/><path d="M-661,705L-71,691L-163,359Z" fill="#d64a7c" stroke="#d64a7c" stroke-width="1.51"/><path d="M-598,80L-626,288L-163,359Z" fill="#dc467c" stroke="#dc467c" stroke-width="1.51"/><path d="M-626,288L-661,705L-163,359Z" fill="#e1578a" stroke="#e1578a" stroke-width="1.51"/><path d="M-27,-73L-598,80L-163,359Z" fill="#da3a73" stroke="#da3a73" stroke-width="1.51"/><path d="M484,-310L173,-452L153,34Z" fill="#db3f76" stroke="#db3f76" stroke-width="1.51"/><path d="M-630,-429L-598,80L-27,-73Z" fill="#d72d6b" stroke="#d72d6b" stroke-width="1.51"/><path d="M-215,1421L101,1467L-103,1061Z" fill="#be255d" stroke="#be255d" stroke-width="1.51"/><path d="M809,44L732,-497L630,-15Z" fill="#e1578a" stroke="#e1578a" stroke-width="1.51"/><path d="M956,407L1153,63L809,44Z" fill="#d85586" stroke="#d85586" stroke-width="1.51"/><path d="M1257,179L1153,63L956,407Z" fill="#d14f7f" stroke="#d14f7f" stroke-width="1.51"/><path d="M1095,815L1245,649L1032,794Z" fill="#c04471" stroke="#c04471" stroke-width="1.51"/><path d="M173,-452L-122,-457L-27,-73Z" fill="#d72e6b" stroke="#d72e6b" stroke-width="1.51"/><path d="M1245,649L1257,179L956,407Z" fill="#d45d8b" stroke="#d45d8b" stroke-width="1.51"/><path d="M-513,957L-215,1421L-103,1061Z" fill="#be255d" stroke="#be255d" stroke-width="1.51"/><path d="M484,-310L732,-497L173,-452Z" fill="#dd4a7f" stroke="#dd4a7f" stroke-width="1.51"/><path d="M173,-452L732,-497L-122,-457Z" fill="#db3e76" stroke="#db3e76" stroke-width="1.51"/><path d="M1084,-245L732,-497L809,44Z" fill="#d94e80" stroke="#d94e80" stroke-width="1.51"/><path d="M1084,-245L809,44L1153,63Z" fill="#d24477" stroke="#d24477" stroke-width="1.51"/><path d="M1449,-21L1084,-245L1153,63Z" fill="#c8366a" stroke="#c8366a" stroke-width="1.51"/><path d="M995,1429L1148,1200L641,1301Z" fill="#bd426e" stroke="#bd426e" stroke-width="1.51"/><path d="M641,1301L1148,1200L669,992Z" fill="#c34875" stroke="#c34875" stroke-width="1.51"/><path d="M1095,815L1481,928L1245,649Z" fill="#b53663" stroke="#b53663" stroke-width="1.51"/><path d="M-354,1688L-327,1470L-513,957Z" fill="#be255d" stroke="#be255d" stroke-width="1.51"/><path d="M-513,957L-327,1470L-215,1421Z" fill="#be255d" stroke="#be255d" stroke-width="1.51"/><path d="M-215,1421L-122,1653L101,1467Z" fill="#be255d" stroke="#be255d" stroke-width="1.51"/><path d="M910,1526L995,1429L641,1301Z" fill="#c14773" stroke="#c14773" stroke-width="1.51"/><path d="M495,1755L641,1301L101,1467Z" fill="#c33f6e" stroke="#c33f6e" stroke-width="1.51"/><path d="M495,1755L910,1526L641,1301Z" fill="#c74d7a" stroke="#c74d7a" stroke-width="1.51"/><path d="M-327,1470L-122,1653L-215,1421Z" fill="#be255d" stroke="#be255d" stroke-width="1.51"/><path d="M129,1780L495,1755L101,1467Z" fill="#c13567" stroke="#c13567" stroke-width="1.51"/><path d="M-122,-457L-630,-429L-27,-73Z" fill="#d72d6b" stroke="#d72d6b" stroke-width="1.51"/><path d="M-598,80L-630,-429L-626,288Z" fill="#d72d6b" stroke="#d72d6b" stroke-width="1.51"/><path d="M-626,288L-630,-429L-661,705Z" fill="#db4178" stroke="#db4178" stroke-width="1.51"/><path d="M1148,1200L1481,928L1095,815Z" fill="#af2d5b" stroke="#af2d5b" stroke-width="1.51"/><path d="M1610,419L1449,-21L1257,179Z" fill="#c2396a" stroke="#c2396a" stroke-width="1.51"/><path d="M1679,1390L1481,928L1148,1200Z" fill="#a51e4f" stroke="#a51e4f" stroke-width="1.51"/><path d="M1283,1778L1148,1200L995,1429Z" fill="#b33461" stroke="#b33461" stroke-width="1.51"/><path d="M-122,1653L129,1780L101,1467Z" fill="#be275e" stroke="#be275e" stroke-width="1.51"/><path d="M1257,179L1449,-21L1153,63Z" fill="#c7386b" stroke="#c7386b" stroke-width="1.51"/><path d="M1084,-245L1661,-459L732,-497Z" fill="#cc3b6e" stroke="#cc3b6e" stroke-width="1.51"/><path d="M1610,419L1257,179L1245,649Z" fill="#ca507d" stroke="#ca507d" stroke-width="1.51"/><path d="M-122,1653L-354,1688L129,1780Z" fill="#be255d" stroke="#be255d" stroke-width="1.51"/><path d="M-327,1470L-354,1688L-122,1653Z" fill="#be255d" stroke="#be255d" stroke-width="1.51"/><path d="M-661,705L-354,1688L-513,957Z" fill="#be255d" stroke="#be255d" stroke-width="1.51"/><path d="M1665,476L1610,419L1245,649Z" fill="#c24875" stroke="#c24875" stroke-width="1.51"/><path d="M1610,419L1765,3L1449,-21Z" fill="#c13366" stroke="#c13366" stroke-width="1.51"/><path d="M1481,928L1665,476L1245,649Z" fill="#b63764" stroke="#b63764" stroke-width="1.51"/><path d="M2035,155L1765,3L1610,419Z" fill="#c2396a" stroke="#c2396a" stroke-width="1.51"/><path d="M1449,-21L1661,-459L1084,-245Z" fill="#c0285f" stroke="#c0285f" stroke-width="1.51"/><path d="M910,1526L1283,1778L995,1429Z" fill="#b73966" stroke="#b73966" stroke-width="1.51"/><path d="M1481,928L1953,798L1665,476Z" fill="#b2325f" stroke="#b2325f" stroke-width="1.51"/><path d="M495,1755L1283,1778L910,1526Z" fill="#bf4370" stroke="#bf4370" stroke-width="1.51"/><path d="M129,1780L1283,1778L495,1755Z" fill="#c64a78" stroke="#c64a78" stroke-width="1.51"/><path d="M1283,1778L1679,1390L1148,1200Z" fill="#a92353" stroke="#a92353" stroke-width="1.51"/><path d="M1665,476L2035,155L1610,419Z" fill="#c54774" stroke="#c54774" stroke-width="1.51"/><path d="M1785,-292L1661,-459L1449,-21Z" fill="#be255d" stroke="#be255d" stroke-width="1.51"/><path d="M1765,3L1785,-292L1449,-21Z" fill="#be255d" stroke="#be255d" stroke-width="1.51"/><path d="M2035,155L1785,-292L1765,3Z" fill="#be255d" stroke="#be255d" stroke-width="1.51"/><path d="M1679,1390L1953,798L1481,928Z" fill="#a51d4f" stroke="#a51d4f" stroke-width="1.51"/><path d="M1953,798L2047,535L1665,476Z" fill="#bc3f6c" stroke="#bc3f6c" stroke-width="1.51"/><path d="M2047,535L2035,155L1665,476Z" fill="#c64977" stroke="#c64977" stroke-width="1.51"/><path d="M1283,1778L1603,1746L1679,1390Z" fill="#a51d4f" stroke="#a51d4f" stroke-width="1.51"/><path d="M1679,1390L2001,1463L1953,798Z" fill="#a51d4f" stroke="#a51d4f" stroke-width="1.51"/><path d="M1603,1746L1793,1619L1679,1390Z" fill="#a51d4f" stroke="#a51d4f" stroke-width="1.51"/><path d="M1953,798L2001,1463L2047,535Z" fill="#a51d4f" stroke="#a51d4f" stroke-width="1.51"/><path d="M1793,1619L2001,1463L1679,1390Z" fill="#a51d4f" stroke="#a51d4f" stroke-width="1.51"/></svg>