<svg xmlns="http://www.w3.org/2000/svg" width="1440" height="900"><path d="M836,588L889,453L810,521Z" fill="#a6ec71" stroke="#a6ec71" stroke-width="1.51"/><path d="M836,588L988,633L889,453Z" fill="#9ae567" stroke="#9ae567" stroke-width="1.51"/><path d="M988,633L1212,520L889,453Z" fill="#90df5c" stroke="#90df5c" stroke-width="1.51"/><path d="M917,1020L1091,707L988,633Z" fill="#70cc3e" stroke="#70cc3e" stroke-width="1.51"/><path d="M1091,707L1212,520L988,633Z" fill="#7dd34a" stroke="#7dd34a" stroke-width="1.51"/><path d="M810,521L561,575L836,588Z" fill="#abef77" stroke="#abef77" stroke-width="1.51"/><path d="M836,588L738,903L988,633Z" fill="#8bdc58" stroke="#8bdc58" stroke-width="1.51"/><path d="M680,221L561,575L810,521Z" fill="#b7f787" stroke="#b7f787" stroke-width="1.51"/><path d="M889,453L680,221L810,521Z" fill="#aef180" stroke="#aef180" stroke-width="1.51"/><path d="M1157,281L933,196L889,453Z" fill="#8fde6d" stroke="#8fde6d" stroke-width="1.51"/><path d="M1212,520L1157,281L889,453Z" fill="#92e063" stroke="#92e063" stroke-width="1.51"/><path d="M933,196L680,221L889,453Z" fill="#9de77d" stroke="#9de77d" stroke-width="1.51"/><path d="M561,575L738,903L836,588Z" fill="#9be568" stroke="#9be568" stroke-width="1.51"/><path d="M738,903L917,1020L988,633Z" fill="#74ce42" stroke="#74ce42" stroke-width="1.51"/><path d="M1091,707L1375,683L1212,520Z" fill="#6dca3a" stroke="#6dca3a" stroke-width="1.51"/><path d="M917,1020L1150,949L1091,707Z" fill="#5dc02a" stroke="#5dc02a" stroke-width="1.51"/><path d="M680,221L393,407L561,575Z" fill="#a6ec88" stroke="#a6ec88" stroke-width="1.51"/><path d="M561,575L536,993L738,903Z" fill="#80d558" stroke="#80d558" stroke-width="1.51"/><path d="M1150,949L1375,683L1091,707Z" fill="#5abf26" stroke="#5abf26" stroke-width="1.51"/><path d="M1212,520L1452,411L1157,281Z" fill="#7dd350" stroke="#7dd350" stroke-width="1.51"/><path d="M680,221L519,123L393,407Z" fill="#92e08a" stroke="#92e08a" stroke-width="1.51"/><path d="M501,-50L519,123L667,-144Z" fill="#78d28b" stroke="#78d28b" stroke-width="1.51"/><path d="M1375,683L1452,411L1212,520Z" fill="#75cd43" stroke="#75cd43" stroke-width="1.51"/><path d="M917,1020L1006,1096L1150,949Z" fill="#5ebf2d" stroke="#5ebf2d" stroke-width="1.51"/><path d="M686,1150L1006,1096L917,1020Z" fill="#6fc83f" stroke="#6fc83f" stroke-width="1.51"/><path d="M738,903L686,1150L917,1020Z" fill="#7acf48" stroke="#7acf48" stroke-width="1.51"/><path d="M234,701L536,993L561,575Z" fill="#7ad163" stroke="#7ad163" stroke-width="1.51"/><path d="M393,407L234,701L561,575Z" fill="#8fde7b" stroke="#8fde7b" stroke-width="1.51"/><path d="M519,123L301,333L393,407Z" fill="#8bdc8b" stroke="#8bdc8b" stroke-width="1.51"/><path d="M933,196L667,-144L680,221Z" fill="#8ddd86" stroke="#8ddd86" stroke-width="1.51"/><path d="M1157,281L971,-92L933,196Z" fill="#77cf6d" stroke="#77cf6d" stroke-width="1.51"/><path d="M1146,-183L971,-92L1157,281Z" fill="#61c368" stroke="#61c368" stroke-width="1.51"/><path d="M536,993L686,1150L738,903Z" fill="#7acf4f" stroke="#7acf4f" stroke-width="1.51"/><path d="M301,333L234,701L393,407Z" fill="#91e086" stroke="#91e086" stroke-width="1.51"/><path d="M536,993L448,1275L686,1150Z" fill="#6fc650" stroke="#6fc650" stroke-width="1.51"/><path d="M301,333L-40,392L234,701Z" fill="#84d988" stroke="#84d988" stroke-width="1.51"/><path d="M519,123L263,242L301,333Z" fill="#7fd58b" stroke="#7fd58b" stroke-width="1.51"/><path d="M215,-103L263,242L519,123Z" fill="#69c98c" stroke="#69c98c" stroke-width="1.51"/><path d="M1452,411L1518,255L1157,281Z" fill="#72ca52" stroke="#72ca52" stroke-width="1.51"/><path d="M1598,197L1518,255L1672,344Z" fill="#69c351" stroke="#69c351" stroke-width="1.51"/><path d="M667,-144L519,123L680,221Z" fill="#84d88b" stroke="#84d88b" stroke-width="1.51"/><path d="M971,-92L667,-144L933,196Z" fill="#7ad27e" stroke="#7ad27e" stroke-width="1.51"/><path d="M1672,344L1518,255L1452,411Z" fill="#72c850" stroke="#72c850" stroke-width="1.51"/><path d="M1150,949L1332,1103L1375,683Z" fill="#41b100" stroke="#41b100" stroke-width="1.51"/><path d="M1119,1242L1332,1103L1150,949Z" fill="#48b212" stroke="#48b212" stroke-width="1.51"/><path d="M1119,1242L1150,949L1006,1096Z" fill="#55b924" stroke="#55b924" stroke-width="1.51"/><path d="M994,1357L1119,1242L1006,1096Z" fill="#5ab92a" stroke="#5ab92a" stroke-width="1.51"/><path d="M897,-375L638,-325L667,-144Z" fill="#87da89" stroke="#87da89" stroke-width="1.51"/><path d="M1317,-148L1146,-183L1157,281Z" fill="#54bb5d" stroke="#54bb5d" stroke-width="1.51"/><path d="M1518,255L1499,75L1157,281Z" fill="#64c254" stroke="#64c254" stroke-width="1.51"/><path d="M1518,255L1598,197L1499,75Z" fill="#5fbd53" stroke="#5fbd53" stroke-width="1.51"/><path d="M1672,344L1452,411L1801,739Z" fill="#77cb47" stroke="#77cb47" stroke-width="1.51"/><path d="M667,-144L487,-165L501,-50Z" fill="#77d18b" stroke="#77d18b" stroke-width="1.51"/><path d="M501,-50L215,-103L519,123Z" fill="#68c98c" stroke="#68c98c" stroke-width="1.51"/><path d="M638,-325L487,-165L667,-144Z" fill="#7cd48b" stroke="#7cd48b" stroke-width="1.51"/><path d="M1499,75L1317,-148L1157,281Z" fill="#53ba56" stroke="#53ba56" stroke-width="1.51"/><path d="M1801,739L1452,411L1375,683Z" fill="#69c438" stroke="#69c438" stroke-width="1.51"/><path d="M1614,1049L1568,1016L1332,1103Z" fill="#3caa00" stroke="#3caa00" stroke-width="1.51"/><path d="M686,1150L994,1357L1006,1096Z" fill="#6bc33b" stroke="#6bc33b" stroke-width="1.51"/><path d="M1332,1103L1568,1016L1375,683Z" fill="#3fae00" stroke="#3fae00" stroke-width="1.51"/><path d="M1614,1049L1437,1415L1696,1091Z" fill="#3aa500" stroke="#3aa500" stroke-width="1.51"/><path d="M686,1150L726,1442L994,1357Z" fill="#73c644" stroke="#73c644" stroke-width="1.51"/><path d="M215,1241L448,1275L536,993Z" fill="#60bd52" stroke="#60bd52" stroke-width="1.51"/><path d="M897,-375L971,-92L1146,-183Z" fill="#6ac870" stroke="#6ac870" stroke-width="1.51"/><path d="M897,-375L667,-144L971,-92Z" fill="#7cd37e" stroke="#7cd37e" stroke-width="1.51"/><path d="M1568,1016L1801,739L1375,683Z" fill="#49b215" stroke="#49b215" stroke-width="1.51"/><path d="M1437,1415L1332,1103L1119,1242Z" fill="#3ba900" stroke="#3ba900" stroke-width="1.51"/><path d="M1354,-341L897,-375L1146,-183Z" fill="#5dc064" stroke="#5dc064" stroke-width="1.51"/><path d="M234,701L112,1004L536,993Z" fill="#59be55" stroke="#59be55" stroke-width="1.51"/><path d="M7,963L112,1004L234,701Z" fill="#4cb757" stroke="#4cb757" stroke-width="1.51"/><path d="M213,-288L215,-103L487,-165Z" fill="#5cc38d" stroke="#5cc38d" stroke-width="1.51"/><path d="M487,-165L215,-103L501,-50Z" fill="#67c98c" stroke="#67c98c" stroke-width="1.51"/><path d="M263,242L-40,392L301,333Z" fill="#78d28b" stroke="#78d28b" stroke-width="1.51"/><path d="M448,1275L726,1442L686,1150Z" fill="#73c74e" stroke="#73c74e" stroke-width="1.51"/><path d="M-91,235L-40,392L263,242Z" fill="#73cf8b" stroke="#73cf8b" stroke-width="1.51"/><path d="M1840,779L1801,739L1568,1016Z" fill="#43ad0c" stroke="#43ad0c" stroke-width="1.51"/><path d="M448,1275L361,1309L726,1442Z" fill="#69c050" stroke="#69c050" stroke-width="1.51"/><path d="M215,1241L361,1309L448,1275Z" fill="#59b753" stroke="#59b753" stroke-width="1.51"/><path d="M112,1004L215,1241L536,993Z" fill="#56b954" stroke="#56b954" stroke-width="1.51"/><path d="M112,1004L15,1080L215,1241Z" fill="#49b255" stroke="#49b255" stroke-width="1.51"/><path d="M-91,626L7,963L234,701Z" fill="#5ec165" stroke="#5ec165" stroke-width="1.51"/><path d="M994,1357L1157,1474L1119,1242Z" fill="#53b423" stroke="#53b423" stroke-width="1.51"/><path d="M726,1442L1157,1474L994,1357Z" fill="#62bc33" stroke="#62bc33" stroke-width="1.51"/><path d="M-40,392L-91,626L234,701Z" fill="#78d07c" stroke="#78d07c" stroke-width="1.51"/><path d="M1614,1049L1840,779L1568,1016Z" fill="#3caa00" stroke="#3caa00" stroke-width="1.51"/><path d="M1437,1415L1614,1049L1332,1103Z" fill="#3ba800" stroke="#3ba800" stroke-width="1.51"/><path d="M1801,739L1960,473L1672,344Z" fill="#73c644" stroke="#73c644" stroke-width="1.51"/><path d="M1696,1091L1840,779L1614,1049Z" fill="#3ba800" stroke="#3ba800" stroke-width="1.51"/><path d="M1317,-148L1354,-341L1146,-183Z" fill="#4cb757" stroke="#4cb757" stroke-width="1.51"/><path d="M1610,-369L1354,-341L1317,-148Z" fill="#4bb456" stroke="#4bb456" stroke-width="1.51"/><path d="M1610,-369L1317,-148L1499,75Z" fill="#4ab356" stroke="#4ab356" stroke-width="1.51"/><path d="M1859,-6L1499,75L1598,197Z" fill="#52b554" stroke="#52b554" stroke-width="1.51"/><path d="M-313,533L-213,718L-91,626Z" fill="#71cc75" stroke="#71cc75" stroke-width="1.51"/><path d="M215,-103L-91,235L263,242Z" fill="#5cc38d" stroke="#5cc38d" stroke-width="1.51"/><path d="M-173,1132L15,1080L7,963Z" fill="#4ab356" stroke="#4ab356" stroke-width="1.51"/><path d="M7,963L15,1080L112,1004Z" fill="#4ab456" stroke="#4ab456" stroke-width="1.51"/><path d="M1157,1474L1437,1415L1119,1242Z" fill="#40aa09" stroke="#40aa09" stroke-width="1.51"/><path d="M215,-103L-63,-99L-91,235Z" fill="#4abc8d" stroke="#4abc8d" stroke-width="1.51"/><path d="M638,-325L213,-288L487,-165Z" fill="#6ccb8c" stroke="#6ccb8c" stroke-width="1.51"/><path d="M97,-318L213,-288L638,-325Z" fill="#5dc48d" stroke="#5dc48d" stroke-width="1.51"/><path d="M2000,183L1859,-6L1598,197Z" fill="#55b453" stroke="#55b453" stroke-width="1.51"/><path d="M1840,779L1960,473L1801,739Z" fill="#5eba2f" stroke="#5eba2f" stroke-width="1.51"/><path d="M75,1314L212,1388L215,1241Z" fill="#47ad54" stroke="#47ad54" stroke-width="1.51"/><path d="M215,1241L212,1388L361,1309Z" fill="#51b253" stroke="#51b253" stroke-width="1.51"/><path d="M361,1309L212,1388L726,1442Z" fill="#62bb51" stroke="#62bb51" stroke-width="1.51"/><path d="M2000,183L1598,197L1672,344Z" fill="#64bd51" stroke="#64bd51" stroke-width="1.51"/><path d="M-313,533L-91,626L-40,392Z" fill="#7fd582" stroke="#7fd582" stroke-width="1.51"/><path d="M-91,626L-213,718L7,963Z" fill="#5dc064" stroke="#5dc064" stroke-width="1.51"/><path d="M-173,1132L75,1314L15,1080Z" fill="#48b055" stroke="#48b055" stroke-width="1.51"/><path d="M15,1080L75,1314L215,1241Z" fill="#48af55" stroke="#48af55" stroke-width="1.51"/><path d="M-91,235L-313,533L-40,392Z" fill="#80d68b" stroke="#80d68b" stroke-width="1.51"/><path d="M97,-318L-63,-99L215,-103Z" fill="#4abc8d" stroke="#4abc8d" stroke-width="1.51"/><path d="M1859,-6L1802,-153L1499,75Z" fill="#48af55" stroke="#48af55" stroke-width="1.51"/><path d="M1802,-153L1610,-369L1499,75Z" fill="#49b055" stroke="#49b055" stroke-width="1.51"/><path d="M1354,-341L1610,-369L897,-375Z" fill="#4cb757" stroke="#4cb757" stroke-width="1.51"/><path d="M213,-288L97,-318L215,-103Z" fill="#4bbc8d" stroke="#4bbc8d" stroke-width="1.51"/><path d="M897,-375L97,-318L638,-325Z" fill="#76d18b" stroke="#76d18b" stroke-width="1.51"/><path d="M1960,473L2000,183L1672,344Z" fill="#6fc34f" stroke="#6fc34f" stroke-width="1.51"/><path d="M1859,-6L1856,-167L1802,-153Z" fill="#47ad54" stroke="#47ad54" stroke-width="1.51"/><path d="M2062,1271L2028,866L1696,1091Z" fill="#39a300" stroke="#39a300" stroke-width="1.51"/><path d="M1696,1091L2028,866L1840,779Z" fill="#3ba700" stroke="#3ba700" stroke-width="1.51"/><path d="M1840,779L2028,866L1960,473Z" fill="#58b629" stroke="#58b629" stroke-width="1.51"/><path d="M1960,473L2028,866L2000,183Z" fill="#74c745" stroke="#74c745" stroke-width="1.51"/><path d="M2000,183L1856,-167L1859,-6Z" fill="#47ad54" stroke="#47ad54" stroke-width="1.51"/><path d="M1802,-153L1856,-167L1610,-369Z" fill="#47ae54" stroke="#47ae54" stroke-width="1.51"/><path d="M-358,1036L-173,1132L7,963Z" fill="#4ab356" stroke="#4ab356" stroke-width="1.51"/><path d="M-315,118L-313,533L-91,235Z" fill="#74cf8b" stroke="#74cf8b" stroke-width="1.51"/><path d="M-358,1036L7,963L-213,718Z" fill="#4cb757" stroke="#4cb757" stroke-width="1.51"/><path d="M1437,1415L1796,1398L1696,1091Z" fill="#38a100" stroke="#38a100" stroke-width="1.51"/><path d="M1157,1474L1796,1398L1437,1415Z" fill="#39a500" stroke="#39a500" stroke-width="1.51"/><path d="M-63,-99L-257,2L-91,235Z" fill="#4ebd8d" stroke="#4ebd8d" stroke-width="1.51"/><path d="M-249,-344L-257,2L-63,-99Z" fill="#4abc8d" stroke="#4abc8d" stroke-width="1.51"/><path d="M-257,2L-315,118L-91,235Z" fill="#5ac38d" stroke="#5ac38d" stroke-width="1.51"/><path d="M-313,533L-358,1036L-213,718Z" fill="#5ec165" stroke="#5ec165" stroke-width="1.51"/><path d="M-173,1132L-358,1505L75,1314Z" fill="#47ad54" stroke="#47ad54" stroke-width="1.51"/><path d="M-315,118L-358,1036L-313,533Z" fill="#7ad17d" stroke="#7ad17d" stroke-width="1.51"/><path d="M1796,1398L2008,1338L1696,1091Z" fill="#369f00" stroke="#369f00" stroke-width="1.51"/><path d="M2008,1338L2062,1271L1696,1091Z" fill="#37a000" stroke="#37a000" stroke-width="1.51"/><path d="M2028,866L2062,1271L2000,183Z" fill="#4db11c" stroke="#4db11c" stroke-width="1.51"/><path d="M897,-375L-249,-344L97,-318Z" fill="#54c08d" stroke="#54c08d" stroke-width="1.51"/><path d="M97,-318L-249,-344L-63,-99Z" fill="#4abc8d" stroke="#4abc8d" stroke-width="1.51"/><path d="M-257,2L-249,-344L-315,118Z" fill="#4abc8d" stroke="#4abc8d" stroke-width="1.51"/><path d="M-358,1036L-358,1505L-173,1132Z" fill="#48af55" stroke="#48af55" stroke-width="1.51"/><path d="M75,1314L-358,1505L212,1388Z" fill="#47ad54" stroke="#47ad54" stroke-width="1.51"/><path d="M212,1388L-358,1505L726,1442Z" fill="#49ae54" stroke="#49ae54" stroke-width="1.51"/><path d="M726,1442L-358,1505L1157,1474Z" fill="#69c050" stroke="#69c050" stroke-width="1.51"/></svg>