<svg xmlns="http://www.w3.org/2000/svg" width="1440" height="900"><path d="M836,588L889,453L810,521Z" fill="#fac6e5" stroke="#fac6e5" stroke-width="1.51"/><path d="M836,588L988,633L889,453Z" fill="#fac2e3" stroke="#fac2e3" stroke-width="1.51"/><path d="M988,633L1212,520L889,453Z" fill="#fabee0" stroke="#fabee0" stroke-width="1.51"/><path d="M917,1020L1091,707L988,633Z" fill="#f8b2d9" stroke="#f8b2d9" stroke-width="1.51"/><path d="M1091,707L1212,520L988,633Z" fill="#f9b7dc" stroke="#f9b7dc" stroke-width="1.51"/><path d="M810,521L561,575L836,588Z" fill="#fbc8e6" stroke="#fbc8e6" stroke-width="1.51"/><path d="M836,588L738,903L988,633Z" fill="#f9bcdf" stroke="#f9bcdf" stroke-width="1.51"/><path d="M680,221L561,575L810,521Z" fill="#fbc9e5" stroke="#fbc9e5" stroke-width="1.51"/><path d="M889,453L680,221L810,521Z" fill="#fac3e2" stroke="#fac3e2" stroke-width="1.51"/><path d="M1157,281L933,196L889,453Z" fill="#f7afd2" stroke="#f7afd2" stroke-width="1.51"/><path d="M1212,520L1157,281L889,453Z" fill="#f9bcdd" stroke="#f9bcdd" stroke-width="1.51"/><path d="M933,196L680,221L889,453Z" fill="#f7b3d3" stroke="#f7b3d3" stroke-width="1.51"/><path d="M561,575L738,903L836,588Z" fill="#fac1e2" stroke="#fac1e2" stroke-width="1.51"/><path d="M738,903L917,1020L988,633Z" fill="#f8b4db" stroke="#f8b4db" stroke-width="1.51"/><path d="M1091,707L1375,683L1212,520Z" fill="#f8b1d9" stroke="#f8b1d9" stroke-width="1.51"/><path d="M917,1020L1150,949L1091,707Z" fill="#f6aad4" stroke="#f6aad4" stroke-width="1.51"/><path d="M680,221L393,407L561,575Z" fill="#f7b4d2" stroke="#f7b4d2" stroke-width="1.51"/><path d="M561,575L536,993L738,903Z" fill="#f8b0d4" stroke="#f8b0d4" stroke-width="1.51"/><path d="M1150,949L1375,683L1091,707Z" fill="#f7abd5" stroke="#f7abd5" stroke-width="1.51"/><path d="M1212,520L1452,411L1157,281Z" fill="#f8b2d7" stroke="#f8b2d7" stroke-width="1.51"/><path d="M680,221L519,123L393,407Z" fill="#f39cbd" stroke="#f39cbd" stroke-width="1.51"/><path d="M501,-50L519,123L667,-144Z" fill="#eb7da4" stroke="#eb7da4" stroke-width="1.51"/><path d="M1375,683L1452,411L1212,520Z" fill="#f4acd4" stroke="#f4acd4" stroke-width="1.51"/><path d="M917,1020L1006,1096L1150,949Z" fill="#ed98c7" stroke="#ed98c7" stroke-width="1.51"/><path d="M686,1150L1006,1096L917,1020Z" fill="#e895c3" stroke="#e895c3" stroke-width="1.51"/><path d="M738,903L686,1150L917,1020Z" fill="#eea1cc" stroke="#eea1cc" stroke-width="1.51"/><path d="M234,701L536,993L561,575Z" fill="#f49fc5" stroke="#f49fc5" stroke-width="1.51"/><path d="M393,407L234,701L561,575Z" fill="#f5a4c6" stroke="#f5a4c6" stroke-width="1.51"/><path d="M519,123L301,333L393,407Z" fill="#f093b6" stroke="#f093b6" stroke-width="1.51"/><path d="M933,196L667,-144L680,221Z" fill="#f298bb" stroke="#f298bb" stroke-width="1.51"/><path d="M1157,281L971,-92L933,196Z" fill="#f194ba" stroke="#f194ba" stroke-width="1.51"/><path d="M1146,-183L971,-92L1157,281Z" fill="#ed80ab" stroke="#ed80ab" stroke-width="1.51"/><path d="M536,993L686,1150L738,903Z" fill="#ee9ec8" stroke="#ee9ec8" stroke-width="1.51"/><path d="M301,333L234,701L393,407Z" fill="#f39ec0" stroke="#f39ec0" stroke-width="1.51"/><path d="M536,993L448,1275L686,1150Z" fill="#e281b1" stroke="#e281b1" stroke-width="1.51"/><path d="M301,333L-40,392L234,701Z" fill="#f08eb3" stroke="#f08eb3" stroke-width="1.51"/><path d="M519,123L263,242L301,333Z" fill="#ed86ab" stroke="#ed86ab" stroke-width="1.51"/><path d="M215,-103L263,242L519,123Z" fill="#e66b96" stroke="#e66b96" stroke-width="1.51"/><path d="M1452,411L1518,255L1157,281Z" fill="#f09ac3" stroke="#f09ac3" stroke-width="1.51"/><path d="M1598,197L1518,255L1672,344Z" fill="#e179ab" stroke="#e179ab" stroke-width="1.51"/><path d="M667,-144L519,123L680,221Z" fill="#ef8bb0" stroke="#ef8bb0" stroke-width="1.51"/><path d="M971,-92L667,-144L933,196Z" fill="#ef8ab1" stroke="#ef8ab1" stroke-width="1.51"/><path d="M1672,344L1518,255L1452,411Z" fill="#e689b8" stroke="#e689b8" stroke-width="1.51"/><path d="M1150,949L1332,1103L1375,683Z" fill="#f39dcc" stroke="#f39dcc" stroke-width="1.51"/><path d="M1119,1242L1332,1103L1150,949Z" fill="#e686bb" stroke="#e686bb" stroke-width="1.51"/><path d="M1119,1242L1150,949L1006,1096Z" fill="#e78bbd" stroke="#e78bbd" stroke-width="1.51"/><path d="M994,1357L1119,1242L1006,1096Z" fill="#dc79b0" stroke="#dc79b0" stroke-width="1.51"/><path d="M897,-375L638,-325L667,-144Z" fill="#f08fb3" stroke="#f08fb3" stroke-width="1.51"/><path d="M1317,-148L1146,-183L1157,281Z" fill="#ec7ba9" stroke="#ec7ba9" stroke-width="1.51"/><path d="M1518,255L1499,75L1157,281Z" fill="#eb87b4" stroke="#eb87b4" stroke-width="1.51"/><path d="M1518,255L1598,197L1499,75Z" fill="#e172a5" stroke="#e172a5" stroke-width="1.51"/><path d="M1672,344L1452,411L1801,739Z" fill="#e48dbc" stroke="#e48dbc" stroke-width="1.51"/><path d="M667,-144L487,-165L501,-50Z" fill="#eb7ca3" stroke="#eb7ca3" stroke-width="1.51"/><path d="M501,-50L215,-103L519,123Z" fill="#e66b96" stroke="#e66b96" stroke-width="1.51"/><path d="M638,-325L487,-165L667,-144Z" fill="#ec81a8" stroke="#ec81a8" stroke-width="1.51"/><path d="M1499,75L1317,-148L1157,281Z" fill="#ea7aa9" stroke="#ea7aa9" stroke-width="1.51"/><path d="M1801,739L1452,411L1375,683Z" fill="#e893c2" stroke="#e893c2" stroke-width="1.51"/><path d="M1614,1049L1568,1016L1332,1103Z" fill="#db6faa" stroke="#db6faa" stroke-width="1.51"/><path d="M686,1150L994,1357L1006,1096Z" fill="#e084b6" stroke="#e084b6" stroke-width="1.51"/><path d="M1332,1103L1568,1016L1375,683Z" fill="#e98abe" stroke="#e98abe" stroke-width="1.51"/><path d="M1614,1049L1437,1415L1696,1091Z" fill="#cb5296" stroke="#cb5296" stroke-width="1.51"/><path d="M686,1150L726,1442L994,1357Z" fill="#d879ad" stroke="#d879ad" stroke-width="1.51"/><path d="M215,1241L448,1275L536,993Z" fill="#db6a9f" stroke="#db6a9f" stroke-width="1.51"/><path d="M897,-375L971,-92L1146,-183Z" fill="#ee84ad" stroke="#ee84ad" stroke-width="1.51"/><path d="M897,-375L667,-144L971,-92Z" fill="#ef8ab1" stroke="#ef8ab1" stroke-width="1.51"/><path d="M1568,1016L1801,739L1375,683Z" fill="#e484b9" stroke="#e484b9" stroke-width="1.51"/><path d="M1437,1415L1332,1103L1119,1242Z" fill="#d76aa7" stroke="#d76aa7" stroke-width="1.51"/><path d="M1354,-341L897,-375L1146,-183Z" fill="#ed7faa" stroke="#ed7faa" stroke-width="1.51"/><path d="M234,701L112,1004L536,993Z" fill="#ed85b1" stroke="#ed85b1" stroke-width="1.51"/><path d="M7,963L112,1004L234,701Z" fill="#ea77a7" stroke="#ea77a7" stroke-width="1.51"/><path d="M213,-288L215,-103L487,-165Z" fill="#e25d8c" stroke="#e25d8c" stroke-width="1.51"/><path d="M487,-165L215,-103L501,-50Z" fill="#e66995" stroke="#e66995" stroke-width="1.51"/><path d="M263,242L-40,392L301,333Z" fill="#eb7da4" stroke="#eb7da4" stroke-width="1.51"/><path d="M448,1275L726,1442L686,1150Z" fill="#d873a7" stroke="#d873a7" stroke-width="1.51"/><path d="M-91,235L-40,392L263,242Z" fill="#e977a0" stroke="#e977a0" stroke-width="1.51"/><path d="M1840,779L1801,739L1568,1016Z" fill="#da70ab" stroke="#da70ab" stroke-width="1.51"/><path d="M448,1275L361,1309L726,1442Z" fill="#d3639b" stroke="#d3639b" stroke-width="1.51"/><path d="M215,1241L361,1309L448,1275Z" fill="#d0528e" stroke="#d0528e" stroke-width="1.51"/><path d="M112,1004L215,1241L536,993Z" fill="#df699e" stroke="#df699e" stroke-width="1.51"/><path d="M112,1004L15,1080L215,1241Z" fill="#d85690" stroke="#d85690" stroke-width="1.51"/><path d="M-91,626L7,963L234,701Z" fill="#ed7fab" stroke="#ed7fab" stroke-width="1.51"/><path d="M994,1357L1157,1474L1119,1242Z" fill="#d66ca7" stroke="#d66ca7" stroke-width="1.51"/><path d="M726,1442L1157,1474L994,1357Z" fill="#d772aa" stroke="#d772aa" stroke-width="1.51"/><path d="M-40,392L-91,626L234,701Z" fill="#ef89b0" stroke="#ef89b0" stroke-width="1.51"/><path d="M1614,1049L1840,779L1568,1016Z" fill="#d86ba8" stroke="#d86ba8" stroke-width="1.51"/><path d="M1437,1415L1614,1049L1332,1103Z" fill="#d260a0" stroke="#d260a0" stroke-width="1.51"/><path d="M1801,739L1960,473L1672,344Z" fill="#d979ae" stroke="#d979ae" stroke-width="1.51"/><path d="M1696,1091L1840,779L1614,1049Z" fill="#d463a1" stroke="#d463a1" stroke-width="1.51"/><path d="M1317,-148L1354,-341L1146,-183Z" fill="#eb79a8" stroke="#eb79a8" stroke-width="1.51"/><path d="M1610,-369L1354,-341L1317,-148Z" fill="#e1669b" stroke="#e1669b" stroke-width="1.51"/><path d="M1610,-369L1317,-148L1499,75Z" fill="#de6197" stroke="#de6197" stroke-width="1.51"/><path d="M1859,-6L1499,75L1598,197Z" fill="#d65791" stroke="#d65791" stroke-width="1.51"/><path d="M-313,533L-213,718L-91,626Z" fill="#ee87af" stroke="#ee87af" stroke-width="1.51"/><path d="M215,-103L-91,235L263,242Z" fill="#e25c8c" stroke="#e25c8c" stroke-width="1.51"/><path d="M-173,1132L15,1080L7,963Z" fill="#dc5d95" stroke="#dc5d95" stroke-width="1.51"/><path d="M7,963L15,1080L112,1004Z" fill="#e06499" stroke="#e06499" stroke-width="1.51"/><path d="M1157,1474L1437,1415L1119,1242Z" fill="#d566a3" stroke="#d566a3" stroke-width="1.51"/><path d="M215,-103L-63,-99L-91,235Z" fill="#dd4a80" stroke="#dd4a80" stroke-width="1.51"/><path d="M638,-325L213,-288L487,-165Z" fill="#e76f9a" stroke="#e76f9a" stroke-width="1.51"/><path d="M97,-318L213,-288L638,-325Z" fill="#e35e8d" stroke="#e35e8d" stroke-width="1.51"/><path d="M2000,183L1859,-6L1598,197Z" fill="#cc4787" stroke="#cc4787" stroke-width="1.51"/><path d="M1840,779L1960,473L1801,739Z" fill="#d771a9" stroke="#d771a9" stroke-width="1.51"/><path d="M75,1314L212,1388L215,1241Z" fill="#c7327c" stroke="#c7327c" stroke-width="1.51"/><path d="M215,1241L212,1388L361,1309Z" fill="#cb4284" stroke="#cb4284" stroke-width="1.51"/><path d="M361,1309L212,1388L726,1442Z" fill="#d15994" stroke="#d15994" stroke-width="1.51"/><path d="M2000,183L1598,197L1672,344Z" fill="#d5639b" stroke="#d5639b" stroke-width="1.51"/><path d="M-313,533L-91,626L-40,392Z" fill="#ef8cb2" stroke="#ef8cb2" stroke-width="1.51"/><path d="M-91,626L-213,718L7,963Z" fill="#ed7faa" stroke="#ed7faa" stroke-width="1.51"/><path d="M-173,1132L75,1314L15,1080Z" fill="#d24b89" stroke="#d24b89" stroke-width="1.51"/><path d="M15,1080L75,1314L215,1241Z" fill="#cf4485" stroke="#cf4485" stroke-width="1.51"/><path d="M-91,235L-313,533L-40,392Z" fill="#ed86ac" stroke="#ed86ac" stroke-width="1.51"/><path d="M97,-318L-63,-99L215,-103Z" fill="#dd4a80" stroke="#dd4a80" stroke-width="1.51"/><path d="M1859,-6L1802,-153L1499,75Z" fill="#ce4184" stroke="#ce4184" stroke-width="1.51"/><path d="M1802,-153L1610,-369L1499,75Z" fill="#d34d8a" stroke="#d34d8a" stroke-width="1.51"/><path d="M1354,-341L1610,-369L897,-375Z" fill="#ea77a6" stroke="#ea77a6" stroke-width="1.51"/><path d="M213,-288L97,-318L215,-103Z" fill="#dd4b80" stroke="#dd4b80" stroke-width="1.51"/><path d="M897,-375L97,-318L638,-325Z" fill="#eb7ba3" stroke="#eb7ba3" stroke-width="1.51"/><path d="M1960,473L2000,183L1672,344Z" fill="#d56aa1" stroke="#d56aa1" stroke-width="1.51"/><path d="M1859,-6L1856,-167L1802,-153Z" fill="#c7327c" stroke="#c7327c" stroke-width="1.51"/><path d="M2062,1271L2028,866L1696,1091Z" fill="#c4468e" stroke="#c4468e" stroke-width="1.51"/><path d="M1696,1091L2028,866L1840,779Z" fill="#d25fa0" stroke="#d25fa0" stroke-width="1.51"/><path d="M1840,779L2028,866L1960,473Z" fill="#d66ea8" stroke="#d66ea8" stroke-width="1.51"/><path d="M1960,473L2028,866L2000,183Z" fill="#d979ad" stroke="#d979ad" stroke-width="1.51"/><path d="M2000,183L1856,-167L1859,-6Z" fill="#c7327c" stroke="#c7327c" stroke-width="1.51"/><path d="M1802,-153L1856,-167L1610,-369Z" fill="#cc3c81" stroke="#cc3c81" stroke-width="1.51"/><path d="M-358,1036L-173,1132L7,963Z" fill="#de6096" stroke="#de6096" stroke-width="1.51"/><path d="M-315,118L-313,533L-91,235Z" fill="#ea78a0" stroke="#ea78a0" stroke-width="1.51"/><path d="M-358,1036L7,963L-213,718Z" fill="#e975a5" stroke="#e975a5" stroke-width="1.51"/><path d="M1437,1415L1796,1398L1696,1091Z" fill="#be3685" stroke="#be3685" stroke-width="1.51"/><path d="M1157,1474L1796,1398L1437,1415Z" fill="#c94e93" stroke="#c94e93" stroke-width="1.51"/><path d="M-63,-99L-257,2L-91,235Z" fill="#de4f83" stroke="#de4f83" stroke-width="1.51"/><path d="M-249,-344L-257,2L-63,-99Z" fill="#dd4a80" stroke="#dd4a80" stroke-width="1.51"/><path d="M-257,2L-315,118L-91,235Z" fill="#e25b8b" stroke="#e25b8b" stroke-width="1.51"/><path d="M-313,533L-358,1036L-213,718Z" fill="#ed7fab" stroke="#ed7fab" stroke-width="1.51"/><path d="M-173,1132L-358,1505L75,1314Z" fill="#c7327c" stroke="#c7327c" stroke-width="1.51"/><path d="M-315,118L-358,1036L-313,533Z" fill="#ef8ab0" stroke="#ef8ab0" stroke-width="1.51"/><path d="M1796,1398L2008,1338L1696,1091Z" fill="#b41d7a" stroke="#b41d7a" stroke-width="1.51"/><path d="M2008,1338L2062,1271L1696,1091Z" fill="#b8287e" stroke="#b8287e" stroke-width="1.51"/><path d="M2028,866L2062,1271L2000,183Z" fill="#d66ba6" stroke="#d66ba6" stroke-width="1.51"/><path d="M897,-375L-249,-344L97,-318Z" fill="#e05587" stroke="#e05587" stroke-width="1.51"/><path d="M97,-318L-249,-344L-63,-99Z" fill="#dd4a80" stroke="#dd4a80" stroke-width="1.51"/><path d="M-257,2L-249,-344L-315,118Z" fill="#dd4a80" stroke="#dd4a80" stroke-width="1.51"/><path d="M-358,1036L-358,1505L-173,1132Z" fill="#ce4284" stroke="#ce4284" stroke-width="1.51"/><path d="M75,1314L-358,1505L212,1388Z" fill="#c7327c" stroke="#c7327c" stroke-width="1.51"/><path d="M212,1388L-358,1505L726,1442Z" fill="#c8367e" stroke="#c8367e" stroke-width="1.51"/><path d="M726,1442L-358,1505L1157,1474Z" fill="#d3629b" stroke="#d3629b" stroke-width="1.51"/></svg>