<svg xmlns="http://www.w3.org/2000/svg" width="1440" height="900"><path d="M703,388L744,280L460,253Z" fill="#e77bad" stroke="#e77bad" stroke-width="1.51"/><path d="M460,253L421,464L703,388Z" fill="#e77aad" stroke="#e77aad" stroke-width="1.51"/><path d="M744,280L606,-154L460,253Z" fill="#e56da1" stroke="#e56da1" stroke-width="1.51"/><path d="M1128,259L898,136L744,280Z" fill="#e26093" stroke="#e26093" stroke-width="1.51"/><path d="M460,253L257,120L421,464Z" fill="#e56ca2" stroke="#e56ca2" stroke-width="1.51"/><path d="M511,-149L257,120L460,253Z" fill="#e36096" stroke="#e36096" stroke-width="1.51"/><path d="M703,388L945,557L744,280Z" fill="#e77eae" stroke="#e77eae" stroke-width="1.51"/><path d="M639,789L945,557L703,388Z" fill="#e46e9b" stroke="#e46e9b" stroke-width="1.51"/><path d="M898,136L606,-154L744,280Z" fill="#e56d9f" stroke="#e56d9f" stroke-width="1.51"/><path d="M606,-154L511,-149L460,253Z" fill="#e36295" stroke="#e36295" stroke-width="1.51"/><path d="M421,464L578,785L703,388Z" fill="#e571a1" stroke="#e571a1" stroke-width="1.51"/><path d="M257,120L167,518L421,464Z" fill="#e56fa3" stroke="#e56fa3" stroke-width="1.51"/><path d="M159,762L578,785L421,464Z" fill="#de4e82" stroke="#de4e82" stroke-width="1.51"/><path d="M578,785L639,789L703,388Z" fill="#e2608f" stroke="#e2608f" stroke-width="1.51"/><path d="M898,136L965,-174L606,-154Z" fill="#e15f90" stroke="#e15f90" stroke-width="1.51"/><path d="M945,557L1128,259L744,280Z" fill="#e46a99" stroke="#e46a99" stroke-width="1.51"/><path d="M639,789L894,764L945,557Z" fill="#dd517e" stroke="#dd517e" stroke-width="1.51"/><path d="M945,557L1258,364L1128,259Z" fill="#df5a88" stroke="#df5a88" stroke-width="1.51"/><path d="M511,-149L268,-188L257,120Z" fill="#e1588e" stroke="#e1588e" stroke-width="1.51"/><path d="M-86,211L39,517L167,518Z" fill="#e46a9c" stroke="#e46a9c" stroke-width="1.51"/><path d="M253,-295L268,-188L511,-149Z" fill="#e1588e" stroke="#e1588e" stroke-width="1.51"/><path d="M529,-403L253,-295L511,-149Z" fill="#e15c91" stroke="#e15c91" stroke-width="1.51"/><path d="M1235,-82L965,-174L898,136Z" fill="#db4377" stroke="#db4377" stroke-width="1.51"/><path d="M167,518L159,762L421,464Z" fill="#e15b8e" stroke="#e15b8e" stroke-width="1.51"/><path d="M-86,211L167,518L257,120Z" fill="#e36297" stroke="#e36297" stroke-width="1.51"/><path d="M965,-174L827,-284L606,-154Z" fill="#e26293" stroke="#e26293" stroke-width="1.51"/><path d="M373,1068L821,1051L639,789Z" fill="#d65071" stroke="#d65071" stroke-width="1.51"/><path d="M39,517L159,762L167,518Z" fill="#df5285" stroke="#df5285" stroke-width="1.51"/><path d="M1300,692L1258,364L945,557Z" fill="#da4b77" stroke="#da4b77" stroke-width="1.51"/><path d="M1128,259L1235,-82L898,136Z" fill="#db4378" stroke="#db4378" stroke-width="1.51"/><path d="M-178,-4L-86,211L257,120Z" fill="#df5187" stroke="#df5187" stroke-width="1.51"/><path d="M529,-403L511,-149L606,-154Z" fill="#e36396" stroke="#e36396" stroke-width="1.51"/><path d="M-178,-4L257,120L268,-188Z" fill="#de4f85" stroke="#de4f85" stroke-width="1.51"/><path d="M827,-284L529,-403L606,-154Z" fill="#e3699a" stroke="#e3699a" stroke-width="1.51"/><path d="M159,762L292,951L578,785Z" fill="#d6446f" stroke="#d6446f" stroke-width="1.51"/><path d="M639,789L821,1051L894,764Z" fill="#d74f71" stroke="#d74f71" stroke-width="1.51"/><path d="M1441,-76L1235,-82L1128,259Z" fill="#d43867" stroke="#d43867" stroke-width="1.51"/><path d="M965,-174L1098,-269L827,-284Z" fill="#dd4d80" stroke="#dd4d80" stroke-width="1.51"/><path d="M827,-284L1293,-407L529,-403Z" fill="#e05889" stroke="#e05889" stroke-width="1.51"/><path d="M1235,-82L1098,-269L965,-174Z" fill="#d93b71" stroke="#d93b71" stroke-width="1.51"/><path d="M894,764L1300,692L945,557Z" fill="#d73268" stroke="#d73268" stroke-width="1.51"/><path d="M373,1068L639,789L578,785Z" fill="#d64c71" stroke="#d64c71" stroke-width="1.51"/><path d="M1258,364L1441,-76L1128,259Z" fill="#d74370" stroke="#d74370" stroke-width="1.51"/><path d="M1125,996L1300,692L894,764Z" fill="#cd2154" stroke="#cd2154" stroke-width="1.51"/><path d="M292,951L373,1068L578,785Z" fill="#d3456b" stroke="#d3456b" stroke-width="1.51"/><path d="M121,1198L373,1068L292,951Z" fill="#d13e65" stroke="#d13e65" stroke-width="1.51"/><path d="M39,517L-104,700L159,762Z" fill="#db4176" stroke="#db4176" stroke-width="1.51"/><path d="M159,762L3,879L292,951Z" fill="#d23a64" stroke="#d23a64" stroke-width="1.51"/><path d="M-355,689L-104,700L-437,338Z" fill="#df5384" stroke="#df5384" stroke-width="1.51"/><path d="M-86,211L-437,338L39,517Z" fill="#e36497" stroke="#e36497" stroke-width="1.51"/><path d="M-142,-220L-178,-4L268,-188Z" fill="#dd4a80" stroke="#dd4a80" stroke-width="1.51"/><path d="M-104,700L3,879L159,762Z" fill="#d43868" stroke="#d43868" stroke-width="1.51"/><path d="M821,1051L1060,1038L894,764Z" fill="#d03b5e" stroke="#d03b5e" stroke-width="1.51"/><path d="M1060,1038L1125,996L894,764Z" fill="#cb2953" stroke="#cb2953" stroke-width="1.51"/><path d="M-333,-409L-142,-220L253,-295Z" fill="#dd4a80" stroke="#dd4a80" stroke-width="1.51"/><path d="M253,-295L-142,-220L268,-188Z" fill="#df4f85" stroke="#df4f85" stroke-width="1.51"/><path d="M1419,-256L1293,-407L1098,-269Z" fill="#d43666" stroke="#d43666" stroke-width="1.51"/><path d="M1586,84L1441,-76L1258,364Z" fill="#d13b63" stroke="#d13b63" stroke-width="1.51"/><path d="M1098,-269L1293,-407L827,-284Z" fill="#da3d73" stroke="#da3d73" stroke-width="1.51"/><path d="M1419,-256L1098,-269L1235,-82Z" fill="#d43667" stroke="#d43667" stroke-width="1.51"/><path d="M1441,-76L1419,-256L1235,-82Z" fill="#d0335f" stroke="#d0335f" stroke-width="1.51"/><path d="M-142,-220L-339,-30L-178,-4Z" fill="#dd4a80" stroke="#dd4a80" stroke-width="1.51"/><path d="M-178,-4L-409,259L-86,211Z" fill="#e0548a" stroke="#e0548a" stroke-width="1.51"/><path d="M1441,-76L1673,-140L1419,-256Z" fill="#ce315b" stroke="#ce315b" stroke-width="1.51"/><path d="M1586,556L1586,84L1258,364Z" fill="#d54c6f" stroke="#d54c6f" stroke-width="1.51"/><path d="M-339,-30L-409,259L-178,-4Z" fill="#df4f85" stroke="#df4f85" stroke-width="1.51"/><path d="M-170,1185L121,1198L3,879Z" fill="#ce315b" stroke="#ce315b" stroke-width="1.51"/><path d="M1358,1201L1424,996L1125,996Z" fill="#c2143f" stroke="#c2143f" stroke-width="1.51"/><path d="M821,1051L822,1273L1060,1038Z" fill="#d03f61" stroke="#d03f61" stroke-width="1.51"/><path d="M561,1334L822,1273L821,1051Z" fill="#d75574" stroke="#d75574" stroke-width="1.51"/><path d="M1300,692L1586,556L1258,364Z" fill="#d44669" stroke="#d44669" stroke-width="1.51"/><path d="M1565,762L1586,556L1300,692Z" fill="#ca1f4e" stroke="#ca1f4e" stroke-width="1.51"/><path d="M373,1068L561,1334L821,1051Z" fill="#d54f71" stroke="#d54f71" stroke-width="1.51"/><path d="M3,879L121,1198L292,951Z" fill="#d03860" stroke="#d03860" stroke-width="1.51"/><path d="M-392,995L3,879L-104,700Z" fill="#d0335f" stroke="#d0335f" stroke-width="1.51"/><path d="M-437,338L-104,700L39,517Z" fill="#e15e8f" stroke="#e15e8f" stroke-width="1.51"/><path d="M-333,-409L-437,338L-409,259Z" fill="#de4e84" stroke="#de4e84" stroke-width="1.51"/><path d="M-409,259L-437,338L-86,211Z" fill="#e15c91" stroke="#e15c91" stroke-width="1.51"/><path d="M121,1198L561,1334L373,1068Z" fill="#d24168" stroke="#d24168" stroke-width="1.51"/><path d="M1424,996L1300,692L1125,996Z" fill="#c31641" stroke="#c31641" stroke-width="1.51"/><path d="M1424,996L1565,762L1300,692Z" fill="#c2153f" stroke="#c2153f" stroke-width="1.51"/><path d="M1358,1201L1125,996L1060,1038Z" fill="#c61a47" stroke="#c61a47" stroke-width="1.51"/><path d="M822,1273L998,1340L1060,1038Z" fill="#ce355b" stroke="#ce355b" stroke-width="1.51"/><path d="M561,1334L998,1340L822,1273Z" fill="#d44d6d" stroke="#d44d6d" stroke-width="1.51"/><path d="M1586,84L1673,-140L1441,-76Z" fill="#ce315b" stroke="#ce315b" stroke-width="1.51"/><path d="M1419,-256L1848,-403L1293,-407Z" fill="#ce315b" stroke="#ce315b" stroke-width="1.51"/><path d="M1768,184L1673,-140L1586,84Z" fill="#cf355d" stroke="#cf355d" stroke-width="1.51"/><path d="M1768,184L1586,84L1586,556Z" fill="#d3466c" stroke="#d3466c" stroke-width="1.51"/><path d="M-339,-30L-333,-409L-409,259Z" fill="#dd4a80" stroke="#dd4a80" stroke-width="1.51"/><path d="M-142,-220L-333,-409L-339,-30Z" fill="#dd4a80" stroke="#dd4a80" stroke-width="1.51"/><path d="M529,-403L-333,-409L253,-295Z" fill="#df5086" stroke="#df5086" stroke-width="1.51"/><path d="M1293,-407L-333,-409L529,-403Z" fill="#e26094" stroke="#e26094" stroke-width="1.51"/><path d="M1819,458L1768,184L1586,556Z" fill="#d65273" stroke="#d65273" stroke-width="1.51"/><path d="M-392,995L-170,1185L3,879Z" fill="#ce315b" stroke="#ce315b" stroke-width="1.51"/><path d="M121,1198L-232,1338L561,1334Z" fill="#d03860" stroke="#d03860" stroke-width="1.51"/><path d="M998,1340L1358,1201L1060,1038Z" fill="#c71b4a" stroke="#c71b4a" stroke-width="1.51"/><path d="M1424,996L1643,1067L1565,762Z" fill="#bd0e37" stroke="#bd0e37" stroke-width="1.51"/><path d="M-355,689L-392,995L-104,700Z" fill="#d33666" stroke="#d33666" stroke-width="1.51"/><path d="M-437,338L-392,995L-355,689Z" fill="#d93c72" stroke="#d93c72" stroke-width="1.51"/><path d="M1871,674L1819,458L1586,556Z" fill="#d03f61" stroke="#d03f61" stroke-width="1.51"/><path d="M1871,674L1586,556L1565,762Z" fill="#ca224f" stroke="#ca224f" stroke-width="1.51"/><path d="M1599,1128L1643,1067L1424,996Z" fill="#bd0e37" stroke="#bd0e37" stroke-width="1.51"/><path d="M1728,1251L1599,1128L1358,1201Z" fill="#bd0e37" stroke="#bd0e37" stroke-width="1.51"/><path d="M1358,1201L1599,1128L1424,996Z" fill="#bd0e37" stroke="#bd0e37" stroke-width="1.51"/><path d="M1643,1067L1871,674L1565,762Z" fill="#c1133d" stroke="#c1133d" stroke-width="1.51"/><path d="M1819,458L1848,-403L1768,184Z" fill="#d0375f" stroke="#d0375f" stroke-width="1.51"/><path d="M-170,1185L-232,1338L121,1198Z" fill="#ce315b" stroke="#ce315b" stroke-width="1.51"/><path d="M561,1334L-232,1338L998,1340Z" fill="#d3476c" stroke="#d3476c" stroke-width="1.51"/><path d="M-392,995L-232,1338L-170,1185Z" fill="#ce315b" stroke="#ce315b" stroke-width="1.51"/><path d="M1768,184L1848,-403L1673,-140Z" fill="#ce315b" stroke="#ce315b" stroke-width="1.51"/><path d="M1673,-140L1848,-403L1419,-256Z" fill="#ce315b" stroke="#ce315b" stroke-width="1.51"/><path d="M1871,674L1848,-403L1819,458Z" fill="#d3446a" stroke="#d3446a" stroke-width="1.51"/><path d="M998,1340L1728,1251L1358,1201Z" fill="#c0123c" stroke="#c0123c" stroke-width="1.51"/><path d="M1599,1128L1728,1251L1643,1067Z" fill="#bd0e37" stroke="#bd0e37" stroke-width="1.51"/><path d="M1643,1067L1728,1251L1871,674Z" fill="#bd0e37" stroke="#bd0e37" stroke-width="1.51"/></svg>