<svg xmlns="http://www.w3.org/2000/svg" width="1440" height="900"><path d="M491,506L149,301L240,721Z" fill="#db583a" stroke="#db583a" stroke-width="1.51"/><path d="M149,301L-71,691L240,721Z" fill="#d44d2d" stroke="#d44d2d" stroke-width="1.51"/><path d="M491,506L419,127L149,301Z" fill="#e15839" stroke="#e15839" stroke-width="1.51"/><path d="M149,301L-163,359L-71,691Z" fill="#e05433" stroke="#e05433" stroke-width="1.51"/><path d="M153,34L-163,359L149,301Z" fill="#de4a25" stroke="#de4a25" stroke-width="1.51"/><path d="M419,127L153,34L149,301Z" fill="#de4c29" stroke="#de4c29" stroke-width="1.51"/><path d="M419,127L484,-310L153,34Z" fill="#dd4722" stroke="#dd4722" stroke-width="1.51"/><path d="M809,44L630,-15L419,127Z" fill="#df5432" stroke="#df5432" stroke-width="1.51"/><path d="M240,721L669,992L491,506Z" fill="#c44c2f" stroke="#c44c2f" stroke-width="1.51"/><path d="M-103,1061L187,1121L240,721Z" fill="#b13212" stroke="#b13212" stroke-width="1.51"/><path d="M153,34L-27,-73L-163,359Z" fill="#dc401a" stroke="#dc401a" stroke-width="1.51"/><path d="M173,-452L-27,-73L153,34Z" fill="#db3d16" stroke="#db3d16" stroke-width="1.51"/><path d="M187,1121L669,992L240,721Z" fill="#b33b1e" stroke="#b33b1e" stroke-width="1.51"/><path d="M491,506L809,44L419,127Z" fill="#e15b3c" stroke="#e15b3c" stroke-width="1.51"/><path d="M-513,957L-103,1061L-71,691Z" fill="#b02e0d" stroke="#b02e0d" stroke-width="1.51"/><path d="M-71,691L-103,1061L240,721Z" fill="#b73515" stroke="#b73515" stroke-width="1.51"/><path d="M1032,794L956,407L491,506Z" fill="#d05c42" stroke="#d05c42" stroke-width="1.51"/><path d="M956,407L809,44L491,506Z" fill="#e16347" stroke="#e16347" stroke-width="1.51"/><path d="M669,992L1032,794L491,506Z" fill="#c35137" stroke="#c35137" stroke-width="1.51"/><path d="M630,-15L484,-310L419,127Z" fill="#de4d2a" stroke="#de4d2a" stroke-width="1.51"/><path d="M732,-497L484,-310L630,-15Z" fill="#df512e" stroke="#df512e" stroke-width="1.51"/><path d="M669,992L1042,859L1032,794Z" fill="#aa3f25" stroke="#aa3f25" stroke-width="1.51"/><path d="M669,992L1148,1200L1042,859Z" fill="#a63b21" stroke="#a63b21" stroke-width="1.51"/><path d="M187,1121L641,1301L669,992Z" fill="#b44024" stroke="#b44024" stroke-width="1.51"/><path d="M101,1467L641,1301L187,1121Z" fill="#b2391b" stroke="#b2391b" stroke-width="1.51"/><path d="M1042,859L1095,815L1032,794Z" fill="#a73c22" stroke="#a73c22" stroke-width="1.51"/><path d="M1032,794L1245,649L956,407Z" fill="#bb4b31" stroke="#bb4b31" stroke-width="1.51"/><path d="M1148,1200L1095,815L1042,859Z" fill="#9d341a" stroke="#9d341a" stroke-width="1.51"/><path d="M-661,705L-513,957L-71,691Z" fill="#bc3817" stroke="#bc3817" stroke-width="1.51"/><path d="M-103,1061L101,1467L187,1121Z" fill="#b03010" stroke="#b03010" stroke-width="1.51"/><path d="M-661,705L-71,691L-163,359Z" fill="#d14928" stroke="#d14928" stroke-width="1.51"/><path d="M-598,80L-626,288L-163,359Z" fill="#dd4824" stroke="#dd4824" stroke-width="1.51"/><path d="M-626,288L-661,705L-163,359Z" fill="#e05433" stroke="#e05433" stroke-width="1.51"/><path d="M-27,-73L-598,80L-163,359Z" fill="#dc411b" stroke="#dc411b" stroke-width="1.51"/><path d="M484,-310L173,-452L153,34Z" fill="#dc441f" stroke="#dc441f" stroke-width="1.51"/><path d="M-630,-429L-598,80L-27,-73Z" fill="#da3910" stroke="#da3910" stroke-width="1.51"/><path d="M-215,1421L101,1467L-103,1061Z" fill="#b02e0d" stroke="#b02e0d" stroke-width="1.51"/><path d="M809,44L732,-497L630,-15Z" fill="#e05433" stroke="#e05433" stroke-width="1.51"/><path d="M956,407L1153,63L809,44Z" fill="#d15031" stroke="#d15031" stroke-width="1.51"/><path d="M1257,179L1153,63L956,407Z" fill="#c84b2d" stroke="#c84b2d" stroke-width="1.51"/><path d="M1095,815L1245,649L1032,794Z" fill="#aa3f24" stroke="#aa3f24" stroke-width="1.51"/><path d="M173,-452L-122,-457L-27,-73Z" fill="#da3a11" stroke="#da3a11" stroke-width="1.51"/><path d="M1245,649L1257,179L956,407Z" fill="#c75339" stroke="#c75339" stroke-width="1.51"/><path d="M-513,957L-215,1421L-103,1061Z" fill="#b02e0d" stroke="#b02e0d" stroke-width="1.51"/><path d="M484,-310L732,-497L173,-452Z" fill="#de4b28" stroke="#de4b28" stroke-width="1.51"/><path d="M173,-452L732,-497L-122,-457Z" fill="#dc431e" stroke="#dc431e" stroke-width="1.51"/><path d="M1084,-245L732,-497L809,44Z" fill="#d64c2b" stroke="#d64c2b" stroke-width="1.51"/><path d="M1084,-245L809,44L1153,63Z" fill="#cc4424" stroke="#cc4424" stroke-width="1.51"/><path d="M1449,-21L1084,-245L1153,63Z" fill="#be3918" stroke="#be3918" stroke-width="1.51"/><path d="M995,1429L1148,1200L641,1301Z" fill="#a83d23" stroke="#a83d23" stroke-width="1.51"/><path d="M641,1301L1148,1200L669,992Z" fill="#af4228" stroke="#af4228" stroke-width="1.51"/><path d="M1095,815L1481,928L1245,649Z" fill="#9c341a" stroke="#9c341a" stroke-width="1.51"/><path d="M-354,1688L-327,1470L-513,957Z" fill="#b02e0d" stroke="#b02e0d" stroke-width="1.51"/><path d="M-513,957L-327,1470L-215,1421Z" fill="#b02e0d" stroke="#b02e0d" stroke-width="1.51"/><path d="M-215,1421L-122,1653L101,1467Z" fill="#b02e0d" stroke="#b02e0d" stroke-width="1.51"/><path d="M910,1526L995,1429L641,1301Z" fill="#ad4127" stroke="#ad4127" stroke-width="1.51"/><path d="M495,1755L641,1301L101,1467Z" fill="#b33d20" stroke="#b33d20" stroke-width="1.51"/><path d="M495,1755L910,1526L641,1301Z" fill="#b5462b" stroke="#b5462b" stroke-width="1.51"/><path d="M-327,1470L-122,1653L-215,1421Z" fill="#b02e0d" stroke="#b02e0d" stroke-width="1.51"/><path d="M129,1780L495,1755L101,1467Z" fill="#b23718" stroke="#b23718" stroke-width="1.51"/><path d="M-122,-457L-630,-429L-27,-73Z" fill="#da3910" stroke="#da3910" stroke-width="1.51"/><path d="M-598,80L-630,-429L-626,288Z" fill="#da3910" stroke="#da3910" stroke-width="1.51"/><path d="M-626,288L-630,-429L-661,705Z" fill="#dd4520" stroke="#dd4520" stroke-width="1.51"/><path d="M1148,1200L1481,928L1095,815Z" fill="#932d13" stroke="#932d13" stroke-width="1.51"/><path d="M1610,419L1449,-21L1257,179Z" fill="#b2391b" stroke="#b2391b" stroke-width="1.51"/><path d="M1679,1390L1481,928L1148,1200Z" fill="#872309" stroke="#872309" stroke-width="1.51"/><path d="M1283,1778L1148,1200L995,1429Z" fill="#9a3218" stroke="#9a3218" stroke-width="1.51"/><path d="M-122,1653L129,1780L101,1467Z" fill="#b02f0e" stroke="#b02f0e" stroke-width="1.51"/><path d="M1257,179L1449,-21L1153,63Z" fill="#ba3a1b" stroke="#ba3a1b" stroke-width="1.51"/><path d="M1084,-245L1661,-459L732,-497Z" fill="#c23d1c" stroke="#c23d1c" stroke-width="1.51"/><path d="M1610,419L1257,179L1245,649Z" fill="#b9492e" stroke="#b9492e" stroke-width="1.51"/><path d="M-122,1653L-354,1688L129,1780Z" fill="#b02e0d" stroke="#b02e0d" stroke-width="1.51"/><path d="M-327,1470L-354,1688L-122,1653Z" fill="#b02e0d" stroke="#b02e0d" stroke-width="1.51"/><path d="M-661,705L-354,1688L-513,957Z" fill="#b02e0d" stroke="#b02e0d" stroke-width="1.51"/><path d="M1665,476L1610,419L1245,649Z" fill="#ae4128" stroke="#ae4128" stroke-width="1.51"/><path d="M1610,419L1765,3L1449,-21Z" fill="#b23617" stroke="#b23617" stroke-width="1.51"/><path d="M1481,928L1665,476L1245,649Z" fill="#9d341a" stroke="#9d341a" stroke-width="1.51"/><path d="M2035,155L1765,3L1610,419Z" fill="#b2391b" stroke="#b2391b" stroke-width="1.51"/><path d="M1449,-21L1661,-459L1084,-245Z" fill="#b2300f" stroke="#b2300f" stroke-width="1.51"/><path d="M910,1526L1283,1778L995,1429Z" fill="#9f361c" stroke="#9f361c" stroke-width="1.51"/><path d="M1481,928L1953,798L1665,476Z" fill="#983117" stroke="#983117" stroke-width="1.51"/><path d="M495,1755L1283,1778L910,1526Z" fill="#aa3e24" stroke="#aa3e24" stroke-width="1.51"/><path d="M129,1780L1283,1778L495,1755Z" fill="#b44429" stroke="#b44429" stroke-width="1.51"/><path d="M1283,1778L1679,1390L1148,1200Z" fill="#8b270d" stroke="#8b270d" stroke-width="1.51"/><path d="M1665,476L2035,155L1610,419Z" fill="#b44226" stroke="#b44226" stroke-width="1.51"/><path d="M1785,-292L1661,-459L1449,-21Z" fill="#b02e0d" stroke="#b02e0d" stroke-width="1.51"/><path d="M1765,3L1785,-292L1449,-21Z" fill="#b02e0d" stroke="#b02e0d" stroke-width="1.51"/><path d="M2035,155L1785,-292L1765,3Z" fill="#b02e0d" stroke="#b02e0d" stroke-width="1.51"/><path d="M1679,1390L1953,798L1481,928Z" fill="#872309" stroke="#872309" stroke-width="1.51"/><path d="M1953,798L2047,535L1665,476Z" fill="#a53b21" stroke="#a53b21" stroke-width="1.51"/><path d="M2047,535L2035,155L1665,476Z" fill="#b44429" stroke="#b44429" stroke-width="1.51"/><path d="M1283,1778L1603,1746L1679,1390Z" fill="#872309" stroke="#872309" stroke-width="1.51"/><path d="M1679,1390L2001,1463L1953,798Z" fill="#872309" stroke="#872309" stroke-width="1.51"/><path d="M1603,1746L1793,1619L1679,1390Z" fill="#872309" stroke="#872309" stroke-width="1.51"/><path d="M1953,798L2001,1463L2047,535Z" fill="#872309" stroke="#872309" stroke-width="1.51"/><path d="M1793,1619L2001,1463L1679,1390Z" fill="#872309" stroke="#872309" stroke-width="1.51"/></svg>