<svg xmlns="http://www.w3.org/2000/svg" width="1440" height="900"><path d="M491,506L149,301L240,721Z" fill="#ca2261" stroke="#ca2261" stroke-width="1.51"/><path d="M149,301L-71,691L240,721Z" fill="#b51f57" stroke="#b51f57" stroke-width="1.51"/><path d="M491,506L419,127L149,301Z" fill="#cd2362" stroke="#cd2362" stroke-width="1.51"/><path d="M149,301L-163,359L-71,691Z" fill="#c72260" stroke="#c72260" stroke-width="1.51"/><path d="M153,34L-163,359L149,301Z" fill="#b82058" stroke="#b82058" stroke-width="1.51"/><path d="M419,127L153,34L149,301Z" fill="#bc205a" stroke="#bc205a" stroke-width="1.51"/><path d="M419,127L484,-310L153,34Z" fill="#b52057" stroke="#b52057" stroke-width="1.51"/><path d="M809,44L630,-15L419,127Z" fill="#c6225f" stroke="#c6225f" stroke-width="1.51"/><path d="M240,721L669,992L491,506Z" fill="#a71c50" stroke="#a71c50" stroke-width="1.51"/><path d="M-103,1061L187,1121L240,721Z" fill="#7b143a" stroke="#7b143a" stroke-width="1.51"/><path d="M153,34L-27,-73L-163,359Z" fill="#ad1e53" stroke="#ad1e53" stroke-width="1.51"/><path d="M173,-452L-27,-73L153,34Z" fill="#a91e51" stroke="#a91e51" stroke-width="1.51"/><path d="M187,1121L669,992L240,721Z" fill="#861640" stroke="#861640" stroke-width="1.51"/><path d="M491,506L809,44L419,127Z" fill="#d12365" stroke="#d12365" stroke-width="1.51"/><path d="M-513,957L-103,1061L-71,691Z" fill="#761438" stroke="#761438" stroke-width="1.51"/><path d="M-71,691L-103,1061L240,721Z" fill="#84163f" stroke="#84163f" stroke-width="1.51"/><path d="M1032,794L956,407L491,506Z" fill="#c6215f" stroke="#c6215f" stroke-width="1.51"/><path d="M956,407L809,44L491,506Z" fill="#db246a" stroke="#db246a" stroke-width="1.51"/><path d="M669,992L1032,794L491,506Z" fill="#ad1c53" stroke="#ad1c53" stroke-width="1.51"/><path d="M630,-15L484,-310L419,127Z" fill="#bd205b" stroke="#bd205b" stroke-width="1.51"/><path d="M732,-497L484,-310L630,-15Z" fill="#c2215d" stroke="#c2215d" stroke-width="1.51"/><path d="M669,992L1042,859L1032,794Z" fill="#84163f" stroke="#84163f" stroke-width="1.51"/><path d="M669,992L1148,1200L1042,859Z" fill="#7c143b" stroke="#7c143b" stroke-width="1.51"/><path d="M187,1121L641,1301L669,992Z" fill="#8c1743" stroke="#8c1743" stroke-width="1.51"/><path d="M101,1467L641,1301L187,1121Z" fill="#83163e" stroke="#83163e" stroke-width="1.51"/><path d="M1042,859L1095,815L1032,794Z" fill="#7e153c" stroke="#7e153c" stroke-width="1.51"/><path d="M1032,794L1245,649L956,407Z" fill="#a11b4d" stroke="#a11b4d" stroke-width="1.51"/><path d="M1148,1200L1095,815L1042,859Z" fill="#6d1234" stroke="#6d1234" stroke-width="1.51"/><path d="M-661,705L-513,957L-71,691Z" fill="#8a1742" stroke="#8a1742" stroke-width="1.51"/><path d="M-103,1061L101,1467L187,1121Z" fill="#791439" stroke="#791439" stroke-width="1.51"/><path d="M-661,705L-71,691L-163,359Z" fill="#ae1e53" stroke="#ae1e53" stroke-width="1.51"/><path d="M-598,80L-626,288L-163,359Z" fill="#b72058" stroke="#b72058" stroke-width="1.51"/><path d="M-626,288L-661,705L-163,359Z" fill="#c72260" stroke="#c72260" stroke-width="1.51"/><path d="M-27,-73L-598,80L-163,359Z" fill="#ae1f53" stroke="#ae1f53" stroke-width="1.51"/><path d="M484,-310L173,-452L153,34Z" fill="#b11f55" stroke="#b11f55" stroke-width="1.51"/><path d="M-630,-429L-598,80L-27,-73Z" fill="#a51d4f" stroke="#a51d4f" stroke-width="1.51"/><path d="M-215,1421L101,1467L-103,1061Z" fill="#761438" stroke="#761438" stroke-width="1.51"/><path d="M809,44L732,-497L630,-15Z" fill="#c62260" stroke="#c62260" stroke-width="1.51"/><path d="M956,407L1153,63L809,44Z" fill="#b61f58" stroke="#b61f58" stroke-width="1.51"/><path d="M1257,179L1153,63L956,407Z" fill="#a91c51" stroke="#a91c51" stroke-width="1.51"/><path d="M1095,815L1245,649L1032,794Z" fill="#83163e" stroke="#83163e" stroke-width="1.51"/><path d="M173,-452L-122,-457L-27,-73Z" fill="#a51d4f" stroke="#a51d4f" stroke-width="1.51"/><path d="M1245,649L1257,179L956,407Z" fill="#b41e56" stroke="#b41e56" stroke-width="1.51"/><path d="M-513,957L-215,1421L-103,1061Z" fill="#761438" stroke="#761438" stroke-width="1.51"/><path d="M484,-310L732,-497L173,-452Z" fill="#bb205a" stroke="#bb205a" stroke-width="1.51"/><path d="M173,-452L732,-497L-122,-457Z" fill="#b11f55" stroke="#b11f55" stroke-width="1.51"/><path d="M1084,-245L732,-497L809,44Z" fill="#b51f57" stroke="#b51f57" stroke-width="1.51"/><path d="M1084,-245L809,44L1153,63Z" fill="#a51c4f" stroke="#a51c4f" stroke-width="1.51"/><path d="M1449,-21L1084,-245L1153,63Z" fill="#8d1843" stroke="#8d1843" stroke-width="1.51"/><path d="M995,1429L1148,1200L641,1301Z" fill="#7f153c" stroke="#7f153c" stroke-width="1.51"/><path d="M641,1301L1148,1200L669,992Z" fill="#8b1742" stroke="#8b1742" stroke-width="1.51"/><path d="M1095,815L1481,928L1245,649Z" fill="#6c1133" stroke="#6c1133" stroke-width="1.51"/><path d="M-354,1688L-327,1470L-513,957Z" fill="#761438" stroke="#761438" stroke-width="1.51"/><path d="M-513,957L-327,1470L-215,1421Z" fill="#761438" stroke="#761438" stroke-width="1.51"/><path d="M-215,1421L-122,1653L101,1467Z" fill="#761438" stroke="#761438" stroke-width="1.51"/><path d="M910,1526L995,1429L641,1301Z" fill="#881641" stroke="#881641" stroke-width="1.51"/><path d="M495,1755L641,1301L101,1467Z" fill="#881741" stroke="#881741" stroke-width="1.51"/><path d="M495,1755L910,1526L641,1301Z" fill="#941947" stroke="#941947" stroke-width="1.51"/><path d="M-327,1470L-122,1653L-215,1421Z" fill="#761438" stroke="#761438" stroke-width="1.51"/><path d="M129,1780L495,1755L101,1467Z" fill="#81153d" stroke="#81153d" stroke-width="1.51"/><path d="M-122,-457L-630,-429L-27,-73Z" fill="#a51d4f" stroke="#a51d4f" stroke-width="1.51"/><path d="M-598,80L-630,-429L-626,288Z" fill="#a51d4f" stroke="#a51d4f" stroke-width="1.51"/><path d="M-626,288L-630,-429L-661,705Z" fill="#b31f56" stroke="#b31f56" stroke-width="1.51"/><path d="M1148,1200L1481,928L1095,815Z" fill="#5e0f2c" stroke="#5e0f2c" stroke-width="1.51"/><path d="M1610,419L1449,-21L1257,179Z" fill="#83163e" stroke="#83163e" stroke-width="1.51"/><path d="M1679,1390L1481,928L1148,1200Z" fill="#4a0b22" stroke="#4a0b22" stroke-width="1.51"/><path d="M1283,1778L1148,1200L995,1429Z" fill="#681131" stroke="#681131" stroke-width="1.51"/><path d="M-122,1653L129,1780L101,1467Z" fill="#771439" stroke="#771439" stroke-width="1.51"/><path d="M1257,179L1449,-21L1153,63Z" fill="#8c1843" stroke="#8c1843" stroke-width="1.51"/><path d="M1084,-245L1661,-459L732,-497Z" fill="#951947" stroke="#951947" stroke-width="1.51"/><path d="M1610,419L1257,179L1245,649Z" fill="#9c1a4a" stroke="#9c1a4a" stroke-width="1.51"/><path d="M-122,1653L-354,1688L129,1780Z" fill="#761438" stroke="#761438" stroke-width="1.51"/><path d="M-327,1470L-354,1688L-122,1653Z" fill="#761438" stroke="#761438" stroke-width="1.51"/><path d="M-661,705L-354,1688L-513,957Z" fill="#761438" stroke="#761438" stroke-width="1.51"/><path d="M1665,476L1610,419L1245,649Z" fill="#8a1742" stroke="#8a1742" stroke-width="1.51"/><path d="M1610,419L1765,3L1449,-21Z" fill="#7f153c" stroke="#7f153c" stroke-width="1.51"/><path d="M1481,928L1665,476L1245,649Z" fill="#6d1234" stroke="#6d1234" stroke-width="1.51"/><path d="M2035,155L1765,3L1610,419Z" fill="#83163e" stroke="#83163e" stroke-width="1.51"/><path d="M1449,-21L1661,-459L1084,-245Z" fill="#7a153a" stroke="#7a153a" stroke-width="1.51"/><path d="M910,1526L1283,1778L995,1429Z" fill="#711235" stroke="#711235" stroke-width="1.51"/><path d="M1481,928L1953,798L1665,476Z" fill="#65102f" stroke="#65102f" stroke-width="1.51"/><path d="M495,1755L1283,1778L910,1526Z" fill="#83153e" stroke="#83153e" stroke-width="1.51"/><path d="M129,1780L1283,1778L495,1755Z" fill="#921846" stroke="#921846" stroke-width="1.51"/><path d="M1283,1778L1679,1390L1148,1200Z" fill="#510c25" stroke="#510c25" stroke-width="1.51"/><path d="M1665,476L2035,155L1610,419Z" fill="#8f1844" stroke="#8f1844" stroke-width="1.51"/><path d="M1785,-292L1661,-459L1449,-21Z" fill="#761438" stroke="#761438" stroke-width="1.51"/><path d="M1765,3L1785,-292L1449,-21Z" fill="#761438" stroke="#761438" stroke-width="1.51"/><path d="M2035,155L1785,-292L1765,3Z" fill="#761438" stroke="#761438" stroke-width="1.51"/><path d="M1679,1390L1953,798L1481,928Z" fill="#4a0b22" stroke="#4a0b22" stroke-width="1.51"/><path d="M1953,798L2047,535L1665,476Z" fill="#7b143b" stroke="#7b143b" stroke-width="1.51"/><path d="M2047,535L2035,155L1665,476Z" fill="#911845" stroke="#911845" stroke-width="1.51"/><path d="M1283,1778L1603,1746L1679,1390Z" fill="#4a0b22" stroke="#4a0b22" stroke-width="1.51"/><path d="M1679,1390L2001,1463L1953,798Z" fill="#4a0b22" stroke="#4a0b22" stroke-width="1.51"/><path d="M1603,1746L1793,1619L1679,1390Z" fill="#4a0b22" stroke="#4a0b22" stroke-width="1.51"/><path d="M1953,798L2001,1463L2047,535Z" fill="#4a0b22" stroke="#4a0b22" stroke-width="1.51"/><path d="M1793,1619L2001,1463L1679,1390Z" fill="#4a0b22" stroke="#4a0b22" stroke-width="1.51"/></svg>