<svg xmlns="http://www.w3.org/2000/svg" width="1440" height="900"><path d="M491,506L149,301L240,721Z" fill="#896cc0" stroke="#896cc0" stroke-width="1.51"/><path d="M149,301L-71,691L240,721Z" fill="#7d5fb2" stroke="#7d5fb2" stroke-width="1.51"/><path d="M491,506L419,127L149,301Z" fill="#8c6cc5" stroke="#8c6cc5" stroke-width="1.51"/><path d="M149,301L-163,359L-71,691Z" fill="#8967c2" stroke="#8967c2" stroke-width="1.51"/><path d="M153,34L-163,359L149,301Z" fill="#815dbc" stroke="#815dbc" stroke-width="1.51"/><path d="M419,127L153,34L149,301Z" fill="#825fbd" stroke="#825fbd" stroke-width="1.51"/><path d="M419,127L484,-310L153,34Z" fill="#7f5bba" stroke="#7f5bba" stroke-width="1.51"/><path d="M809,44L630,-15L419,127Z" fill="#8967c2" stroke="#8967c2" stroke-width="1.51"/><path d="M240,721L669,992L491,506Z" fill="#725a9f" stroke="#725a9f" stroke-width="1.51"/><path d="M-103,1061L187,1121L240,721Z" fill="#563e7f" stroke="#563e7f" stroke-width="1.51"/><path d="M153,34L-27,-73L-163,359Z" fill="#7a55b6" stroke="#7a55b6" stroke-width="1.51"/><path d="M173,-452L-27,-73L153,34Z" fill="#7852b5" stroke="#7852b5" stroke-width="1.51"/><path d="M187,1121L669,992L240,721Z" fill="#5d4784" stroke="#5d4784" stroke-width="1.51"/><path d="M491,506L809,44L419,127Z" fill="#8f6ec7" stroke="#8f6ec7" stroke-width="1.51"/><path d="M-513,957L-103,1061L-71,691Z" fill="#543b7d" stroke="#543b7d" stroke-width="1.51"/><path d="M-71,691L-103,1061L240,721Z" fill="#5d4388" stroke="#5d4388" stroke-width="1.51"/><path d="M1032,794L956,407L491,506Z" fill="#856cb4" stroke="#856cb4" stroke-width="1.51"/><path d="M956,407L809,44L491,506Z" fill="#9477ca" stroke="#9477ca" stroke-width="1.51"/><path d="M669,992L1032,794L491,506Z" fill="#745f9f" stroke="#745f9f" stroke-width="1.51"/><path d="M630,-15L484,-310L419,127Z" fill="#8360be" stroke="#8360be" stroke-width="1.51"/><path d="M732,-497L484,-310L630,-15Z" fill="#8664c0" stroke="#8664c0" stroke-width="1.51"/><path d="M669,992L1042,859L1032,794Z" fill="#5a487b" stroke="#5a487b" stroke-width="1.51"/><path d="M669,992L1148,1200L1042,859Z" fill="#554475" stroke="#554475" stroke-width="1.51"/><path d="M187,1121L641,1301L669,992Z" fill="#604b86" stroke="#604b86" stroke-width="1.51"/><path d="M101,1467L641,1301L187,1121Z" fill="#5b4583" stroke="#5b4583" stroke-width="1.51"/><path d="M1042,859L1095,815L1032,794Z" fill="#564577" stroke="#564577" stroke-width="1.51"/><path d="M1032,794L1245,649L956,407Z" fill="#6c5894" stroke="#6c5894" stroke-width="1.51"/><path d="M1148,1200L1095,815L1042,859Z" fill="#4b3b68" stroke="#4b3b68" stroke-width="1.51"/><path d="M-661,705L-513,957L-71,691Z" fill="#61468e" stroke="#61468e" stroke-width="1.51"/><path d="M-103,1061L101,1467L187,1121Z" fill="#553d7e" stroke="#553d7e" stroke-width="1.51"/><path d="M-661,705L-71,691L-163,359Z" fill="#785aad" stroke="#785aad" stroke-width="1.51"/><path d="M-598,80L-626,288L-163,359Z" fill="#805cbb" stroke="#805cbb" stroke-width="1.51"/><path d="M-626,288L-661,705L-163,359Z" fill="#8967c2" stroke="#8967c2" stroke-width="1.51"/><path d="M-27,-73L-598,80L-163,359Z" fill="#7b55b7" stroke="#7b55b7" stroke-width="1.51"/><path d="M484,-310L173,-452L153,34Z" fill="#7d58b9" stroke="#7d58b9" stroke-width="1.51"/><path d="M-630,-429L-598,80L-27,-73Z" fill="#754fb3" stroke="#754fb3" stroke-width="1.51"/><path d="M-215,1421L101,1467L-103,1061Z" fill="#543b7d" stroke="#543b7d" stroke-width="1.51"/><path d="M809,44L732,-497L630,-15Z" fill="#8867c2" stroke="#8867c2" stroke-width="1.51"/><path d="M956,407L1153,63L809,44Z" fill="#7d61af" stroke="#7d61af" stroke-width="1.51"/><path d="M1257,179L1153,63L956,407Z" fill="#7459a2" stroke="#7459a2" stroke-width="1.51"/><path d="M1095,815L1245,649L1032,794Z" fill="#59487b" stroke="#59487b" stroke-width="1.51"/><path d="M173,-452L-122,-457L-27,-73Z" fill="#7550b3" stroke="#7550b3" stroke-width="1.51"/><path d="M1245,649L1257,179L956,407Z" fill="#7962a5" stroke="#7962a5" stroke-width="1.51"/><path d="M-513,957L-215,1421L-103,1061Z" fill="#543b7d" stroke="#543b7d" stroke-width="1.51"/><path d="M484,-310L732,-497L173,-452Z" fill="#825ebd" stroke="#825ebd" stroke-width="1.51"/><path d="M173,-452L732,-497L-122,-457Z" fill="#7c58b8" stroke="#7c58b8" stroke-width="1.51"/><path d="M1084,-245L732,-497L809,44Z" fill="#7d5eb3" stroke="#7d5eb3" stroke-width="1.51"/><path d="M1084,-245L809,44L1153,63Z" fill="#7255a5" stroke="#7255a5" stroke-width="1.51"/><path d="M1449,-21L1084,-245L1153,63Z" fill="#624890" stroke="#624890" stroke-width="1.51"/><path d="M995,1429L1148,1200L641,1301Z" fill="#574577" stroke="#574577" stroke-width="1.51"/><path d="M641,1301L1148,1200L669,992Z" fill="#5f4c82" stroke="#5f4c82" stroke-width="1.51"/><path d="M1095,815L1481,928L1245,649Z" fill="#4a3b67" stroke="#4a3b67" stroke-width="1.51"/><path d="M-354,1688L-327,1470L-513,957Z" fill="#543b7d" stroke="#543b7d" stroke-width="1.51"/><path d="M-513,957L-327,1470L-215,1421Z" fill="#543b7d" stroke="#543b7d" stroke-width="1.51"/><path d="M-215,1421L-122,1653L101,1467Z" fill="#543b7d" stroke="#543b7d" stroke-width="1.51"/><path d="M910,1526L995,1429L641,1301Z" fill="#5c4a7f" stroke="#5c4a7f" stroke-width="1.51"/><path d="M495,1755L641,1301L101,1467Z" fill="#5e4885" stroke="#5e4885" stroke-width="1.51"/><path d="M495,1755L910,1526L641,1301Z" fill="#65518a" stroke="#65518a" stroke-width="1.51"/><path d="M-327,1470L-122,1653L-215,1421Z" fill="#543b7d" stroke="#543b7d" stroke-width="1.51"/><path d="M129,1780L495,1755L101,1467Z" fill="#5a4381" stroke="#5a4381" stroke-width="1.51"/><path d="M-122,-457L-630,-429L-27,-73Z" fill="#754fb3" stroke="#754fb3" stroke-width="1.51"/><path d="M-598,80L-630,-429L-626,288Z" fill="#754fb3" stroke="#754fb3" stroke-width="1.51"/><path d="M-626,288L-630,-429L-661,705Z" fill="#7d59b9" stroke="#7d59b9" stroke-width="1.51"/><path d="M1148,1200L1481,928L1095,815Z" fill="#41335b" stroke="#41335b" stroke-width="1.51"/><path d="M1610,419L1449,-21L1257,179Z" fill="#5b4583" stroke="#5b4583" stroke-width="1.51"/><path d="M1679,1390L1481,928L1148,1200Z" fill="#35284a" stroke="#35284a" stroke-width="1.51"/><path d="M1283,1778L1148,1200L995,1429Z" fill="#483964" stroke="#483964" stroke-width="1.51"/><path d="M-122,1653L129,1780L101,1467Z" fill="#553c7d" stroke="#553c7d" stroke-width="1.51"/><path d="M1257,179L1449,-21L1153,63Z" fill="#62488d" stroke="#62488d" stroke-width="1.51"/><path d="M1084,-245L1661,-459L732,-497Z" fill="#684c97" stroke="#684c97" stroke-width="1.51"/><path d="M1610,419L1257,179L1245,649Z" fill="#695591" stroke="#695591" stroke-width="1.51"/><path d="M-122,1653L-354,1688L129,1780Z" fill="#543b7d" stroke="#543b7d" stroke-width="1.51"/><path d="M-327,1470L-354,1688L-122,1653Z" fill="#543b7d" stroke="#543b7d" stroke-width="1.51"/><path d="M-661,705L-354,1688L-513,957Z" fill="#543b7d" stroke="#543b7d" stroke-width="1.51"/><path d="M1665,476L1610,419L1245,649Z" fill="#5e4b81" stroke="#5e4b81" stroke-width="1.51"/><path d="M1610,419L1765,3L1449,-21Z" fill="#594281" stroke="#594281" stroke-width="1.51"/><path d="M1481,928L1665,476L1245,649Z" fill="#4b3b68" stroke="#4b3b68" stroke-width="1.51"/><path d="M2035,155L1765,3L1610,419Z" fill="#5b4583" stroke="#5b4583" stroke-width="1.51"/><path d="M1449,-21L1661,-459L1084,-245Z" fill="#563e80" stroke="#563e80" stroke-width="1.51"/><path d="M910,1526L1283,1778L995,1429Z" fill="#4d3d6b" stroke="#4d3d6b" stroke-width="1.51"/><path d="M1481,928L1953,798L1665,476Z" fill="#463761" stroke="#463761" stroke-width="1.51"/><path d="M495,1755L1283,1778L910,1526Z" fill="#59477b" stroke="#59477b" stroke-width="1.51"/><path d="M129,1780L1283,1778L495,1755Z" fill="#644f89" stroke="#644f89" stroke-width="1.51"/><path d="M1283,1778L1679,1390L1148,1200Z" fill="#382c50" stroke="#382c50" stroke-width="1.51"/><path d="M1665,476L2035,155L1610,419Z" fill="#614d88" stroke="#614d88" stroke-width="1.51"/><path d="M1785,-292L1661,-459L1449,-21Z" fill="#543b7d" stroke="#543b7d" stroke-width="1.51"/><path d="M1765,3L1785,-292L1449,-21Z" fill="#543b7d" stroke="#543b7d" stroke-width="1.51"/><path d="M2035,155L1785,-292L1765,3Z" fill="#543b7d" stroke="#543b7d" stroke-width="1.51"/><path d="M1679,1390L1953,798L1481,928Z" fill="#34284a" stroke="#34284a" stroke-width="1.51"/><path d="M1953,798L2047,535L1665,476Z" fill="#544374" stroke="#544374" stroke-width="1.51"/><path d="M2047,535L2035,155L1665,476Z" fill="#634f89" stroke="#634f89" stroke-width="1.51"/><path d="M1283,1778L1603,1746L1679,1390Z" fill="#34284a" stroke="#34284a" stroke-width="1.51"/><path d="M1679,1390L2001,1463L1953,798Z" fill="#34284a" stroke="#34284a" stroke-width="1.51"/><path d="M1603,1746L1793,1619L1679,1390Z" fill="#34284a" stroke="#34284a" stroke-width="1.51"/><path d="M1953,798L2001,1463L2047,535Z" fill="#34284a" stroke="#34284a" stroke-width="1.51"/><path d="M1793,1619L2001,1463L1679,1390Z" fill="#34284a" stroke="#34284a" stroke-width="1.51"/></svg>