<svg xmlns="http://www.w3.org/2000/svg" width="1440" height="900"><path d="M832,505L961,437L816,248Z" fill="#f6a78a" stroke="#f6a78a" stroke-width="1.51"/><path d="M570,550L707,595L832,505Z" fill="#f6ae92" stroke="#f6ae92" stroke-width="1.51"/><path d="M832,505L861,759L961,437Z" fill="#f28f6b" stroke="#f28f6b" stroke-width="1.51"/><path d="M961,437L1016,131L816,248Z" fill="#f38460" stroke="#f38460" stroke-width="1.51"/><path d="M816,248L570,550L832,505Z" fill="#f7c4af" stroke="#f7c4af" stroke-width="1.51"/><path d="M1016,131L982,67L816,248Z" fill="#f17650" stroke="#f17650" stroke-width="1.51"/><path d="M982,67L815,39L816,248Z" fill="#f3815c" stroke="#f3815c" stroke-width="1.51"/><path d="M816,248L392,299L570,550Z" fill="#f9ab90" stroke="#f9ab90" stroke-width="1.51"/><path d="M1016,131L1135,28L982,67Z" fill="#eb5f36" stroke="#eb5f36" stroke-width="1.51"/><path d="M961,437L1156,198L1016,131Z" fill="#ed6d44" stroke="#ed6d44" stroke-width="1.51"/><path d="M707,595L861,759L832,505Z" fill="#f28f6c" stroke="#f28f6c" stroke-width="1.51"/><path d="M961,437L1293,349L1156,198Z" fill="#e9744c" stroke="#e9744c" stroke-width="1.51"/><path d="M577,736L861,759L707,595Z" fill="#ee8d68" stroke="#ee8d68" stroke-width="1.51"/><path d="M815,39L585,32L816,248Z" fill="#f89777" stroke="#f89777" stroke-width="1.51"/><path d="M1293,795L1293,349L961,437Z" fill="#e3764d" stroke="#e3764d" stroke-width="1.51"/><path d="M570,550L577,736L707,595Z" fill="#f38f6b" stroke="#f38f6b" stroke-width="1.51"/><path d="M1156,198L1135,28L1016,131Z" fill="#e75a30" stroke="#e75a30" stroke-width="1.51"/><path d="M1041,-218L643,-209L815,39Z" fill="#f4825e" stroke="#f4825e" stroke-width="1.51"/><path d="M815,39L643,-209L585,32Z" fill="#f89170" stroke="#f89170" stroke-width="1.51"/><path d="M1465,199L1135,28L1156,198Z" fill="#da582c" stroke="#da582c" stroke-width="1.51"/><path d="M585,32L392,299L816,248Z" fill="#f88f6e" stroke="#f88f6e" stroke-width="1.51"/><path d="M570,550L367,858L577,736Z" fill="#e87249" stroke="#e87249" stroke-width="1.51"/><path d="M861,759L983,858L961,437Z" fill="#e7683c" stroke="#e7683c" stroke-width="1.51"/><path d="M644,888L983,858L861,759Z" fill="#d5754b" stroke="#d5754b" stroke-width="1.51"/><path d="M392,299L315,434L570,550Z" fill="#f9a386" stroke="#f9a386" stroke-width="1.51"/><path d="M577,736L644,888L861,759Z" fill="#df8660" stroke="#df8660" stroke-width="1.51"/><path d="M367,858L644,888L577,736Z" fill="#d87147" stroke="#d87147" stroke-width="1.51"/><path d="M983,858L1293,795L961,437Z" fill="#dd4c1b" stroke="#dd4c1b" stroke-width="1.51"/><path d="M197,25L190,255L392,299Z" fill="#f36e49" stroke="#f36e49" stroke-width="1.51"/><path d="M392,299L190,255L315,434Z" fill="#f78663" stroke="#f78663" stroke-width="1.51"/><path d="M1041,-218L815,39L982,67Z" fill="#ef6e47" stroke="#ef6e47" stroke-width="1.51"/><path d="M1135,28L1041,-218L982,67Z" fill="#e95930" stroke="#e95930" stroke-width="1.51"/><path d="M1376,-107L1041,-218L1135,28Z" fill="#de5227" stroke="#de5227" stroke-width="1.51"/><path d="M1293,349L1465,199L1156,198Z" fill="#d76035" stroke="#d76035" stroke-width="1.51"/><path d="M1513,458L1465,199L1293,349Z" fill="#cf6f45" stroke="#cf6f45" stroke-width="1.51"/><path d="M197,25L392,299L585,32Z" fill="#f4714c" stroke="#f4714c" stroke-width="1.51"/><path d="M1293,795L1513,458L1293,349Z" fill="#d27045" stroke="#d27045" stroke-width="1.51"/><path d="M295,869L367,858L154,667Z" fill="#d8592d" stroke="#d8592d" stroke-width="1.51"/><path d="M315,434L367,858L570,550Z" fill="#f17953" stroke="#f17953" stroke-width="1.51"/><path d="M1465,199L1376,-107L1135,28Z" fill="#d25225" stroke="#d25225" stroke-width="1.51"/><path d="M438,-271L197,25L585,32Z" fill="#f36e49" stroke="#f36e49" stroke-width="1.51"/><path d="M498,1268L688,1286L644,888Z" fill="#ce784f" stroke="#ce784f" stroke-width="1.51"/><path d="M154,667L367,858L315,434Z" fill="#ec643a" stroke="#ec643a" stroke-width="1.51"/><path d="M1293,795L1563,661L1513,458Z" fill="#c35220" stroke="#c35220" stroke-width="1.51"/><path d="M983,858L1274,990L1293,795Z" fill="#b9460f" stroke="#b9460f" stroke-width="1.51"/><path d="M1023,1168L1274,990L983,858Z" fill="#bf4710" stroke="#bf4710" stroke-width="1.51"/><path d="M1023,1168L983,858L644,888Z" fill="#ca6a3d" stroke="#ca6a3d" stroke-width="1.51"/><path d="M43,611L154,667L315,434Z" fill="#f27952" stroke="#f27952" stroke-width="1.51"/><path d="M77,268L315,434L190,255Z" fill="#f6815e" stroke="#f6815e" stroke-width="1.51"/><path d="M643,-209L438,-271L585,32Z" fill="#f6815e" stroke="#f6815e" stroke-width="1.51"/><path d="M1041,-218L438,-271L643,-209Z" fill="#f89474" stroke="#f89474" stroke-width="1.51"/><path d="M1675,891L1563,661L1293,795Z" fill="#b0440c" stroke="#b0440c" stroke-width="1.51"/><path d="M1513,458L1793,393L1465,199Z" fill="#ce7248" stroke="#ce7248" stroke-width="1.51"/><path d="M197,25L77,268L190,255Z" fill="#f36a45" stroke="#f36a45" stroke-width="1.51"/><path d="M688,1286L1023,1168L644,888Z" fill="#cd7a52" stroke="#cd7a52" stroke-width="1.51"/><path d="M1274,990L1347,1033L1293,795Z" fill="#ac4309" stroke="#ac4309" stroke-width="1.51"/><path d="M1140,1210L1347,1033L1274,990Z" fill="#b0440b" stroke="#b0440b" stroke-width="1.51"/><path d="M1376,-107L1322,-310L1041,-218Z" fill="#d95125" stroke="#d95125" stroke-width="1.51"/><path d="M1041,-218L283,-351L438,-271Z" fill="#f78563" stroke="#f78563" stroke-width="1.51"/><path d="M1540,-356L1322,-310L1376,-107Z" fill="#ca4f21" stroke="#ca4f21" stroke-width="1.51"/><path d="M-121,899L278,1108L295,869Z" fill="#c85325" stroke="#c85325" stroke-width="1.51"/><path d="M77,268L43,611L315,434Z" fill="#f99778" stroke="#f99778" stroke-width="1.51"/><path d="M1023,1168L1140,1210L1274,990Z" fill="#ba460f" stroke="#ba460f" stroke-width="1.51"/><path d="M-346,270L-58,441L77,268Z" fill="#f67d59" stroke="#f67d59" stroke-width="1.51"/><path d="M77,268L-58,441L43,611Z" fill="#f89474" stroke="#f89474" stroke-width="1.51"/><path d="M438,-271L283,-351L197,25Z" fill="#f26641" stroke="#f26641" stroke-width="1.51"/><path d="M197,25L-41,-21L77,268Z" fill="#f2633e" stroke="#f2633e" stroke-width="1.51"/><path d="M1322,-310L283,-351L1041,-218Z" fill="#f37954" stroke="#f37954" stroke-width="1.51"/><path d="M278,1108L644,888L367,858Z" fill="#cb6236" stroke="#cb6236" stroke-width="1.51"/><path d="M1023,1168L858,1455L1140,1210Z" fill="#c45423" stroke="#c45423" stroke-width="1.51"/><path d="M278,1108L367,858L295,869Z" fill="#c9572a" stroke="#c9572a" stroke-width="1.51"/><path d="M-121,899L154,667L43,611Z" fill="#e05429" stroke="#e05429" stroke-width="1.51"/><path d="M-121,899L295,869L154,667Z" fill="#d55428" stroke="#d55428" stroke-width="1.51"/><path d="M1465,199L1725,-19L1376,-107Z" fill="#c74f21" stroke="#c74f21" stroke-width="1.51"/><path d="M1563,661L1793,393L1513,458Z" fill="#cd764d" stroke="#cd764d" stroke-width="1.51"/><path d="M1859,468L1793,393L1563,661Z" fill="#cd764c" stroke="#cd764c" stroke-width="1.51"/><path d="M278,1108L498,1268L644,888Z" fill="#cc673c" stroke="#cc673c" stroke-width="1.51"/><path d="M1793,196L1725,-19L1465,199Z" fill="#c85526" stroke="#c85526" stroke-width="1.51"/><path d="M1793,393L1793,196L1465,199Z" fill="#cb6134" stroke="#cb6134" stroke-width="1.51"/><path d="M283,-351L-41,-21L197,25Z" fill="#f1613c" stroke="#f1613c" stroke-width="1.51"/><path d="M1347,1033L1675,891L1293,795Z" fill="#a04105" stroke="#a04105" stroke-width="1.51"/><path d="M1427,1206L1675,891L1347,1033Z" fill="#a04105" stroke="#a04105" stroke-width="1.51"/><path d="M1675,891L1749,784L1563,661Z" fill="#b1440c" stroke="#b1440c" stroke-width="1.51"/><path d="M1725,-19L1540,-356L1376,-107Z" fill="#c74e20" stroke="#c74e20" stroke-width="1.51"/><path d="M1322,-310L1540,-356L283,-351Z" fill="#ea5b31" stroke="#ea5b31" stroke-width="1.51"/><path d="M1305,1335L1427,1206L1140,1210Z" fill="#ad440a" stroke="#ad440a" stroke-width="1.51"/><path d="M1140,1210L1427,1206L1347,1033Z" fill="#ac4309" stroke="#ac4309" stroke-width="1.51"/><path d="M1793,393L1866,244L1793,196Z" fill="#cb6438" stroke="#cb6438" stroke-width="1.51"/><path d="M1749,784L1859,468L1563,661Z" fill="#c35220" stroke="#c35220" stroke-width="1.51"/><path d="M1859,468L1866,244L1793,393Z" fill="#ce754c" stroke="#ce754c" stroke-width="1.51"/><path d="M1793,196L1928,-134L1725,-19Z" fill="#c74f21" stroke="#c74f21" stroke-width="1.51"/><path d="M858,1455L1305,1335L1140,1210Z" fill="#be4610" stroke="#be4610" stroke-width="1.51"/><path d="M688,1286L858,1455L1023,1168Z" fill="#cb6e43" stroke="#cb6e43" stroke-width="1.51"/><path d="M498,1268L459,1371L688,1286Z" fill="#ce7047" stroke="#ce7047" stroke-width="1.51"/><path d="M278,1108L459,1371L498,1268Z" fill="#cb5f33" stroke="#cb5f33" stroke-width="1.51"/><path d="M640,1481L858,1455L688,1286Z" fill="#cf835d" stroke="#cf835d" stroke-width="1.51"/><path d="M-295,675L-121,899L43,611Z" fill="#e05328" stroke="#e05328" stroke-width="1.51"/><path d="M278,1108L230,1488L459,1371Z" fill="#c9582b" stroke="#c9582b" stroke-width="1.51"/><path d="M-295,675L43,611L-58,441Z" fill="#f1734c" stroke="#f1734c" stroke-width="1.51"/><path d="M1725,-19L1657,-374L1540,-356Z" fill="#c74e20" stroke="#c74e20" stroke-width="1.51"/><path d="M1540,-356L1657,-374L283,-351Z" fill="#e05328" stroke="#e05328" stroke-width="1.51"/><path d="M1928,-134L1657,-374L1725,-19Z" fill="#c74e20" stroke="#c74e20" stroke-width="1.51"/><path d="M459,1371L640,1481L688,1286Z" fill="#ce764d" stroke="#ce764d" stroke-width="1.51"/><path d="M-373,344L-295,675L-58,441Z" fill="#f68c6a" stroke="#f68c6a" stroke-width="1.51"/><path d="M283,-351L-128,-224L-41,-21Z" fill="#f05d38" stroke="#f05d38" stroke-width="1.51"/><path d="M459,1371L230,1488L640,1481Z" fill="#cb6338" stroke="#cb6338" stroke-width="1.51"/><path d="M-121,899L34,1215L278,1108Z" fill="#c85022" stroke="#c85022" stroke-width="1.51"/><path d="M1985,1464L1422,1392L858,1455Z" fill="#a14105" stroke="#a14105" stroke-width="1.51"/><path d="M858,1455L1422,1392L1305,1335Z" fill="#b5450d" stroke="#b5450d" stroke-width="1.51"/><path d="M1305,1335L1422,1392L1427,1206Z" fill="#a54207" stroke="#a54207" stroke-width="1.51"/><path d="M1427,1206L1659,1288L1675,891Z" fill="#a04105" stroke="#a04105" stroke-width="1.51"/><path d="M1995,1014L1970,782L1749,784Z" fill="#a54207" stroke="#a54207" stroke-width="1.51"/><path d="M-179,1289L48,1316L34,1215Z" fill="#c74e20" stroke="#c74e20" stroke-width="1.51"/><path d="M-346,270L77,268L-41,-21Z" fill="#f26540" stroke="#f26540" stroke-width="1.51"/><path d="M-128,-224L-280,-3L-41,-21Z" fill="#f05c37" stroke="#f05c37" stroke-width="1.51"/><path d="M1995,1014L1749,784L1675,891Z" fill="#a04105" stroke="#a04105" stroke-width="1.51"/><path d="M1749,784L1970,782L1859,468Z" fill="#bf4711" stroke="#bf4711" stroke-width="1.51"/><path d="M1859,468L1970,782L1866,244Z" fill="#cd784f" stroke="#cd784f" stroke-width="1.51"/><path d="M1970,782L1928,-134L1866,244Z" fill="#cc673d" stroke="#cc673d" stroke-width="1.51"/><path d="M1866,244L1928,-134L1793,196Z" fill="#c85325" stroke="#c85325" stroke-width="1.51"/><path d="M-280,-3L-346,270L-41,-21Z" fill="#f1603b" stroke="#f1603b" stroke-width="1.51"/><path d="M-274,-361L-373,344L-346,270Z" fill="#f1613b" stroke="#f1613b" stroke-width="1.51"/><path d="M-346,270L-373,344L-58,441Z" fill="#f6825f" stroke="#f6825f" stroke-width="1.51"/><path d="M1422,1392L1659,1288L1427,1206Z" fill="#a04105" stroke="#a04105" stroke-width="1.51"/><path d="M-179,1289L34,1215L-121,899Z" fill="#c74e20" stroke="#c74e20" stroke-width="1.51"/><path d="M34,1215L48,1316L278,1108Z" fill="#c85224" stroke="#c85224" stroke-width="1.51"/><path d="M1422,1392L1657,1341L1659,1288Z" fill="#a04105" stroke="#a04105" stroke-width="1.51"/><path d="M1923,1262L1995,1014L1675,891Z" fill="#a04105" stroke="#a04105" stroke-width="1.51"/><path d="M48,1316L230,1488L278,1108Z" fill="#c85426" stroke="#c85426" stroke-width="1.51"/><path d="M1928,-134L1973,-300L1657,-374Z" fill="#c74e20" stroke="#c74e20" stroke-width="1.51"/><path d="M1970,782L1973,-300L1928,-134Z" fill="#c85426" stroke="#c85426" stroke-width="1.51"/><path d="M1970,782L1995,1014L1973,-300Z" fill="#cd784f" stroke="#cd784f" stroke-width="1.51"/><path d="M1923,1262L1675,891L1659,1288Z" fill="#a04105" stroke="#a04105" stroke-width="1.51"/><path d="M-295,675L-330,965L-121,899Z" fill="#cf5023" stroke="#cf5023" stroke-width="1.51"/><path d="M48,1316L-338,1531L230,1488Z" fill="#c74e20" stroke="#c74e20" stroke-width="1.51"/><path d="M-373,344L-330,965L-295,675Z" fill="#ea582f" stroke="#ea582f" stroke-width="1.51"/><path d="M1657,-374L-274,-361L283,-351Z" fill="#f6815e" stroke="#f6815e" stroke-width="1.51"/><path d="M283,-351L-274,-361L-128,-224Z" fill="#f05c37" stroke="#f05c37" stroke-width="1.51"/><path d="M-128,-224L-274,-361L-280,-3Z" fill="#f05c37" stroke="#f05c37" stroke-width="1.51"/><path d="M-280,-3L-274,-361L-346,270Z" fill="#f05c37" stroke="#f05c37" stroke-width="1.51"/><path d="M-330,965L-179,1289L-121,899Z" fill="#c74e20" stroke="#c74e20" stroke-width="1.51"/><path d="M1657,1341L1923,1262L1659,1288Z" fill="#a04105" stroke="#a04105" stroke-width="1.51"/><path d="M1657,1341L1985,1464L1923,1262Z" fill="#a04105" stroke="#a04105" stroke-width="1.51"/><path d="M1923,1262L1985,1464L1995,1014Z" fill="#a04105" stroke="#a04105" stroke-width="1.51"/><path d="M1422,1392L1985,1464L1657,1341Z" fill="#a04105" stroke="#a04105" stroke-width="1.51"/><path d="M640,1481L1985,1464L858,1455Z" fill="#b8460e" stroke="#b8460e" stroke-width="1.51"/><path d="M-338,1531L1985,1464L640,1481Z" fill="#ce7e56" stroke="#ce7e56" stroke-width="1.51"/><path d="M230,1488L-338,1531L640,1481Z" fill="#c85426" stroke="#c85426" stroke-width="1.51"/><path d="M-179,1289L-338,1531L48,1316Z" fill="#c74e20" stroke="#c74e20" stroke-width="1.51"/><path d="M-330,965L-338,1531L-179,1289Z" fill="#c74e20" stroke="#c74e20" stroke-width="1.51"/><path d="M-373,344L-338,1531L-330,965Z" fill="#c74e20" stroke="#c74e20" stroke-width="1.51"/></svg>