<svg xmlns="http://www.w3.org/2000/svg" width="1440" height="900"><path d="M836,588L889,453L810,521Z" fill="#85ae78" stroke="#85ae78" stroke-width="1.51"/><path d="M836,588L988,633L889,453Z" fill="#98a66e" stroke="#98a66e" stroke-width="1.51"/><path d="M988,633L1212,520L889,453Z" fill="#a79f65" stroke="#a79f65" stroke-width="1.51"/><path d="M917,1020L1091,707L988,633Z" fill="#cb874b" stroke="#cb874b" stroke-width="1.51"/><path d="M1091,707L1212,520L988,633Z" fill="#be9156" stroke="#be9156" stroke-width="1.51"/><path d="M810,521L561,575L836,588Z" fill="#79b27e" stroke="#79b27e" stroke-width="1.51"/><path d="M836,588L738,903L988,633Z" fill="#ae9b61" stroke="#ae9b61" stroke-width="1.51"/><path d="M680,221L561,575L810,521Z" fill="#59b98c" stroke="#59b98c" stroke-width="1.51"/><path d="M889,453L680,221L810,521Z" fill="#71b285" stroke="#71b285" stroke-width="1.51"/><path d="M1157,281L933,196L889,453Z" fill="#a79b72" stroke="#a79b72" stroke-width="1.51"/><path d="M1212,520L1157,281L889,453Z" fill="#a4a06a" stroke="#a4a06a" stroke-width="1.51"/><path d="M933,196L680,221L889,453Z" fill="#91a480" stroke="#91a480" stroke-width="1.51"/><path d="M561,575L738,903L836,588Z" fill="#96a770" stroke="#96a770" stroke-width="1.51"/><path d="M738,903L917,1020L988,633Z" fill="#c88a4e" stroke="#c88a4e" stroke-width="1.51"/><path d="M1091,707L1375,683L1212,520Z" fill="#cf8347" stroke="#cf8347" stroke-width="1.51"/><path d="M917,1020L1150,949L1091,707Z" fill="#db763d" stroke="#db763d" stroke-width="1.51"/><path d="M680,221L393,407L561,575Z" fill="#7fa98a" stroke="#7fa98a" stroke-width="1.51"/><path d="M561,575L536,993L738,903Z" fill="#bb905f" stroke="#bb905f" stroke-width="1.51"/><path d="M1150,949L1375,683L1091,707Z" fill="#e07338" stroke="#e07338" stroke-width="1.51"/><path d="M1212,520L1452,411L1157,281Z" fill="#be8f5a" stroke="#be8f5a" stroke-width="1.51"/><path d="M680,221L519,123L393,407Z" fill="#9d9888" stroke="#9d9888" stroke-width="1.51"/><path d="M501,-50L519,123L667,-144Z" fill="#b4808a" stroke="#b4808a" stroke-width="1.51"/><path d="M1375,683L1452,411L1212,520Z" fill="#be8a59" stroke="#be8a59" stroke-width="1.51"/><path d="M917,1020L1006,1096L1150,949Z" fill="#c87655" stroke="#c87655" stroke-width="1.51"/><path d="M686,1150L1006,1096L917,1020Z" fill="#ac836d" stroke="#ac836d" stroke-width="1.51"/><path d="M738,903L686,1150L917,1020Z" fill="#ab8c6b" stroke="#ab8c6b" stroke-width="1.51"/><path d="M234,701L536,993L561,575Z" fill="#c18765" stroke="#c18765" stroke-width="1.51"/><path d="M393,407L234,701L561,575Z" fill="#a5987c" stroke="#a5987c" stroke-width="1.51"/><path d="M519,123L301,333L393,407Z" fill="#a79187" stroke="#a79187" stroke-width="1.51"/><path d="M933,196L667,-144L680,221Z" fill="#a59484" stroke="#a59484" stroke-width="1.51"/><path d="M1157,281L971,-92L933,196Z" fill="#c3826d" stroke="#c3826d" stroke-width="1.51"/><path d="M1146,-183L971,-92L1157,281Z" fill="#d56b68" stroke="#d56b68" stroke-width="1.51"/><path d="M536,993L686,1150L738,903Z" fill="#ab8b6e" stroke="#ab8b6e" stroke-width="1.51"/><path d="M301,333L234,701L393,407Z" fill="#9f9885" stroke="#9f9885" stroke-width="1.51"/><path d="M536,993L448,1275L686,1150Z" fill="#a17f80" stroke="#a17f80" stroke-width="1.51"/><path d="M301,333L-40,392L234,701Z" fill="#ae8c84" stroke="#ae8c84" stroke-width="1.51"/><path d="M519,123L263,242L301,333Z" fill="#b38685" stroke="#b38685" stroke-width="1.51"/><path d="M215,-103L263,242L519,123Z" fill="#c86e83" stroke="#c86e83" stroke-width="1.51"/><path d="M1452,411L1518,255L1157,281Z" fill="#be8265" stroke="#be8265" stroke-width="1.51"/><path d="M1598,197L1518,255L1672,344Z" fill="#aa777d" stroke="#aa777d" stroke-width="1.51"/><path d="M667,-144L519,123L680,221Z" fill="#ae8b86" stroke="#ae8b86" stroke-width="1.51"/><path d="M971,-92L667,-144L933,196Z" fill="#b8847e" stroke="#b8847e" stroke-width="1.51"/><path d="M1672,344L1518,255L1452,411Z" fill="#a7817a" stroke="#a7817a" stroke-width="1.51"/><path d="M1150,949L1332,1103L1375,683Z" fill="#ec5a2e" stroke="#ec5a2e" stroke-width="1.51"/><path d="M1119,1242L1332,1103L1150,949Z" fill="#d06151" stroke="#d06151" stroke-width="1.51"/><path d="M1119,1242L1150,949L1006,1096Z" fill="#c56d5a" stroke="#c56d5a" stroke-width="1.51"/><path d="M994,1357L1119,1242L1006,1096Z" fill="#ac7072" stroke="#ac7072" stroke-width="1.51"/><path d="M897,-375L638,-325L667,-144Z" fill="#7693a7" stroke="#7693a7" stroke-width="1.51"/><path d="M1317,-148L1146,-183L1157,281Z" fill="#df5e60" stroke="#df5e60" stroke-width="1.51"/><path d="M1518,255L1499,75L1157,281Z" fill="#ca7165" stroke="#ca7165" stroke-width="1.51"/><path d="M1518,255L1598,197L1499,75Z" fill="#bc6c76" stroke="#bc6c76" stroke-width="1.51"/><path d="M1672,344L1452,411L1801,739Z" fill="#938880" stroke="#938880" stroke-width="1.51"/><path d="M667,-144L487,-165L501,-50Z" fill="#a78194" stroke="#a78194" stroke-width="1.51"/><path d="M501,-50L215,-103L519,123Z" fill="#c56f87" stroke="#c56f87" stroke-width="1.51"/><path d="M638,-325L487,-165L667,-144Z" fill="#93889f" stroke="#93889f" stroke-width="1.51"/><path d="M1499,75L1317,-148L1157,281Z" fill="#df5c5c" stroke="#df5c5c" stroke-width="1.51"/><path d="M1801,739L1452,411L1375,683Z" fill="#b37e68" stroke="#b37e68" stroke-width="1.51"/><path d="M1614,1049L1568,1016L1332,1103Z" fill="#c55760" stroke="#c55760" stroke-width="1.51"/><path d="M686,1150L994,1357L1006,1096Z" fill="#9e7d7b" stroke="#9e7d7b" stroke-width="1.51"/><path d="M1332,1103L1568,1016L1375,683Z" fill="#dc5944" stroke="#dc5944" stroke-width="1.51"/><path d="M1614,1049L1437,1415L1696,1091Z" fill="#a9557a" stroke="#a9557a" stroke-width="1.51"/><path d="M686,1150L726,1442L994,1357Z" fill="#7a8393" stroke="#7a8393" stroke-width="1.51"/><path d="M215,1241L448,1275L536,993Z" fill="#ac6e82" stroke="#ac6e82" stroke-width="1.51"/><path d="M897,-375L971,-92L1146,-183Z" fill="#b07b88" stroke="#b07b88" stroke-width="1.51"/><path d="M897,-375L667,-144L971,-92Z" fill="#9a8994" stroke="#9a8994" stroke-width="1.51"/><path d="M1568,1016L1801,739L1375,683Z" fill="#cc6356" stroke="#cc6356" stroke-width="1.51"/><path d="M1437,1415L1332,1103L1119,1242Z" fill="#c05764" stroke="#c05764" stroke-width="1.51"/><path d="M1354,-341L897,-375L1146,-183Z" fill="#b57285" stroke="#b57285" stroke-width="1.51"/><path d="M234,701L112,1004L536,993Z" fill="#dc655a" stroke="#dc655a" stroke-width="1.51"/><path d="M7,963L112,1004L234,701Z" fill="#e3545c" stroke="#e3545c" stroke-width="1.51"/><path d="M213,-288L215,-103L487,-165Z" fill="#b76998" stroke="#b76998" stroke-width="1.51"/><path d="M487,-165L215,-103L501,-50Z" fill="#b97190" stroke="#b97190" stroke-width="1.51"/><path d="M263,242L-40,392L301,333Z" fill="#ba7f84" stroke="#ba7f84" stroke-width="1.51"/><path d="M448,1275L726,1442L686,1150Z" fill="#7d8196" stroke="#7d8196" stroke-width="1.51"/><path d="M-91,235L-40,392L263,242Z" fill="#b27c8f" stroke="#b27c8f" stroke-width="1.51"/><path d="M1840,779L1801,739L1568,1016Z" fill="#c05d64" stroke="#c05d64" stroke-width="1.51"/><path d="M448,1275L361,1309L726,1442Z" fill="#877797" stroke="#877797" stroke-width="1.51"/><path d="M215,1241L361,1309L448,1275Z" fill="#a06690" stroke="#a06690" stroke-width="1.51"/><path d="M112,1004L215,1241L536,993Z" fill="#c46274" stroke="#c46274" stroke-width="1.51"/><path d="M112,1004L15,1080L215,1241Z" fill="#c5537b" stroke="#c5537b" stroke-width="1.51"/><path d="M-91,626L7,963L234,701Z" fill="#d06b6d" stroke="#d06b6d" stroke-width="1.51"/><path d="M994,1357L1157,1474L1119,1242Z" fill="#a66a79" stroke="#a66a79" stroke-width="1.51"/><path d="M726,1442L1157,1474L994,1357Z" fill="#957684" stroke="#957684" stroke-width="1.51"/><path d="M-40,392L-91,626L234,701Z" fill="#b18384" stroke="#b18384" stroke-width="1.51"/><path d="M1614,1049L1840,779L1568,1016Z" fill="#c25763" stroke="#c25763" stroke-width="1.51"/><path d="M1437,1415L1614,1049L1332,1103Z" fill="#b7566e" stroke="#b7566e" stroke-width="1.51"/><path d="M1801,739L1960,473L1672,344Z" fill="#7d8291" stroke="#7d8291" stroke-width="1.51"/><path d="M1696,1091L1840,779L1614,1049Z" fill="#b9566b" stroke="#b9566b" stroke-width="1.51"/><path d="M1317,-148L1354,-341L1146,-183Z" fill="#ce5f71" stroke="#ce5f71" stroke-width="1.51"/><path d="M1610,-369L1354,-341L1317,-148Z" fill="#b56189" stroke="#b56189" stroke-width="1.51"/><path d="M1610,-369L1317,-148L1499,75Z" fill="#c05b7f" stroke="#c05b7f" stroke-width="1.51"/><path d="M1859,-6L1499,75L1598,197Z" fill="#b95d81" stroke="#b95d81" stroke-width="1.51"/><path d="M-313,533L-213,718L-91,626Z" fill="#9f8293" stroke="#9f8293" stroke-width="1.51"/><path d="M215,-103L-91,235L263,242Z" fill="#cf6185" stroke="#cf6185" stroke-width="1.51"/><path d="M-173,1132L15,1080L7,963Z" fill="#bd5a82" stroke="#bd5a82" stroke-width="1.51"/><path d="M7,963L15,1080L112,1004Z" fill="#cc5774" stroke="#cc5774" stroke-width="1.51"/><path d="M1157,1474L1437,1415L1119,1242Z" fill="#b85a6c" stroke="#b85a6c" stroke-width="1.51"/><path d="M215,-103L-63,-99L-91,235Z" fill="#ce528d" stroke="#ce528d" stroke-width="1.51"/><path d="M638,-325L213,-288L487,-165Z" fill="#9d7ba2" stroke="#9d7ba2" stroke-width="1.51"/><path d="M97,-318L213,-288L638,-325Z" fill="#a46fa6" stroke="#a46fa6" stroke-width="1.51"/><path d="M2000,183L1859,-6L1598,197Z" fill="#9f6193" stroke="#9f6193" stroke-width="1.51"/><path d="M1840,779L1960,473L1801,739Z" fill="#9a7381" stroke="#9a7381" stroke-width="1.51"/><path d="M75,1314L212,1388L215,1241Z" fill="#ab5192" stroke="#ab5192" stroke-width="1.51"/><path d="M215,1241L212,1388L361,1309Z" fill="#a25d93" stroke="#a25d93" stroke-width="1.51"/><path d="M361,1309L212,1388L726,1442Z" fill="#906f96" stroke="#906f96" stroke-width="1.51"/><path d="M2000,183L1598,197L1672,344Z" fill="#98728f" stroke="#98728f" stroke-width="1.51"/><path d="M-313,533L-91,626L-40,392Z" fill="#908d9a" stroke="#908d9a" stroke-width="1.51"/><path d="M-91,626L-213,718L7,963Z" fill="#c36e79" stroke="#c36e79" stroke-width="1.51"/><path d="M-173,1132L75,1314L15,1080Z" fill="#ac5990" stroke="#ac5990" stroke-width="1.51"/><path d="M15,1080L75,1314L215,1241Z" fill="#b4538b" stroke="#b4538b" stroke-width="1.51"/><path d="M-91,235L-313,533L-40,392Z" fill="#8b8ca1" stroke="#8b8ca1" stroke-width="1.51"/><path d="M97,-318L-63,-99L215,-103Z" fill="#bd5a9c" stroke="#bd5a9c" stroke-width="1.51"/><path d="M1859,-6L1802,-153L1499,75Z" fill="#b1538d" stroke="#b1538d" stroke-width="1.51"/><path d="M1802,-153L1610,-369L1499,75Z" fill="#ac5991" stroke="#ac5991" stroke-width="1.51"/><path d="M1354,-341L1610,-369L897,-375Z" fill="#bc6582" stroke="#bc6582" stroke-width="1.51"/><path d="M213,-288L97,-318L215,-103Z" fill="#bc5a9c" stroke="#bc5a9c" stroke-width="1.51"/><path d="M897,-375L97,-318L638,-325Z" fill="#8286ad" stroke="#8286ad" stroke-width="1.51"/><path d="M1960,473L2000,183L1672,344Z" fill="#7f7c98" stroke="#7f7c98" stroke-width="1.51"/><path d="M1859,-6L1856,-167L1802,-153Z" fill="#9857a0" stroke="#9857a0" stroke-width="1.51"/><path d="M2062,1271L2028,866L1696,1091Z" fill="#9d5585" stroke="#9d5585" stroke-width="1.51"/><path d="M1696,1091L2028,866L1840,779Z" fill="#b6566e" stroke="#b6566e" stroke-width="1.51"/><path d="M1840,779L2028,866L1960,473Z" fill="#a16e7d" stroke="#a16e7d" stroke-width="1.51"/><path d="M1960,473L2028,866L2000,183Z" fill="#798393" stroke="#798393" stroke-width="1.51"/><path d="M2000,183L1856,-167L1859,-6Z" fill="#a85294" stroke="#a85294" stroke-width="1.51"/><path d="M1802,-153L1856,-167L1610,-369Z" fill="#8e5ca6" stroke="#8e5ca6" stroke-width="1.51"/><path d="M-358,1036L-173,1132L7,963Z" fill="#b35e8b" stroke="#b35e8b" stroke-width="1.51"/><path d="M-315,118L-313,533L-91,235Z" fill="#8e83a7" stroke="#8e83a7" stroke-width="1.51"/><path d="M-358,1036L7,963L-213,718Z" fill="#c76078" stroke="#c76078" stroke-width="1.51"/><path d="M1437,1415L1796,1398L1696,1091Z" fill="#8e5490" stroke="#8e5490" stroke-width="1.51"/><path d="M1157,1474L1796,1398L1437,1415Z" fill="#a5557e" stroke="#a5557e" stroke-width="1.51"/><path d="M-63,-99L-257,2L-91,235Z" fill="#bd5d9a" stroke="#bd5d9a" stroke-width="1.51"/><path d="M-249,-344L-257,2L-63,-99Z" fill="#a063b0" stroke="#a063b0" stroke-width="1.51"/><path d="M-257,2L-315,118L-91,235Z" fill="#aa6ca3" stroke="#aa6ca3" stroke-width="1.51"/><path d="M-313,533L-358,1036L-213,718Z" fill="#ae748b" stroke="#ae748b" stroke-width="1.51"/><path d="M-173,1132L-358,1505L75,1314Z" fill="#835cad" stroke="#835cad" stroke-width="1.51"/><path d="M-315,118L-358,1036L-313,533Z" fill="#808ba5" stroke="#808ba5" stroke-width="1.51"/><path d="M1796,1398L2008,1338L1696,1091Z" fill="#76539f" stroke="#76539f" stroke-width="1.51"/><path d="M2008,1338L2062,1271L1696,1091Z" fill="#7f539a" stroke="#7f539a" stroke-width="1.51"/><path d="M2028,866L2062,1271L2000,183Z" fill="#ac6575" stroke="#ac6575" stroke-width="1.51"/><path d="M897,-375L-249,-344L97,-318Z" fill="#a568a9" stroke="#a568a9" stroke-width="1.51"/><path d="M97,-318L-249,-344L-63,-99Z" fill="#9e63b2" stroke="#9e63b2" stroke-width="1.51"/><path d="M-257,2L-249,-344L-315,118Z" fill="#a262b0" stroke="#a262b0" stroke-width="1.51"/><path d="M-358,1036L-358,1505L-173,1132Z" fill="#8061ae" stroke="#8061ae" stroke-width="1.51"/><path d="M75,1314L-358,1505L212,1388Z" fill="#9458a2" stroke="#9458a2" stroke-width="1.51"/><path d="M212,1388L-358,1505L726,1442Z" fill="#a95493" stroke="#a95493" stroke-width="1.51"/><path d="M726,1442L-358,1505L1157,1474Z" fill="#877697" stroke="#877697" stroke-width="1.51"/></svg>