<svg xmlns="http://www.w3.org/2000/svg" width="1440" height="900"><path d="M845,512L990,435L828,225Z" fill="#9f87b7" stroke="#9f87b7" stroke-width="1.51"/><path d="M553,562L705,612L845,512Z" fill="#a28bb8" stroke="#a28bb8" stroke-width="1.51"/><path d="M845,512L877,795L990,435Z" fill="#8b6aaf" stroke="#8b6aaf" stroke-width="1.51"/><path d="M990,435L1051,93L828,225Z" fill="#896aae" stroke="#896aae" stroke-width="1.51"/><path d="M828,225L553,562L845,512Z" fill="#b3a4c0" stroke="#b3a4c0" stroke-width="1.51"/><path d="M1051,93L1013,22L828,225Z" fill="#7e5ea9" stroke="#7e5ea9" stroke-width="1.51"/><path d="M1013,22L826,-10L828,225Z" fill="#8568ac" stroke="#8568ac" stroke-width="1.51"/><path d="M828,225L353,282L553,562Z" fill="#a592b9" stroke="#a592b9" stroke-width="1.51"/><path d="M1051,93L1184,-22L1013,22Z" fill="#6a46a1" stroke="#6a46a1" stroke-width="1.51"/><path d="M990,435L1207,168L1051,93Z" fill="#7854a7" stroke="#7854a7" stroke-width="1.51"/><path d="M705,612L877,795L845,512Z" fill="#8b6aaf" stroke="#8b6aaf" stroke-width="1.51"/><path d="M990,435L1361,337L1207,168Z" fill="#825aa4" stroke="#825aa4" stroke-width="1.51"/><path d="M560,769L877,795L705,612Z" fill="#8f6bab" stroke="#8f6bab" stroke-width="1.51"/><path d="M826,-10L570,-17L828,225Z" fill="#957eb2" stroke="#957eb2" stroke-width="1.51"/><path d="M1360,835L1361,337L990,435Z" fill="#8052a0" stroke="#8052a0" stroke-width="1.51"/><path d="M553,562L560,769L705,612Z" fill="#8d6daf" stroke="#8d6daf" stroke-width="1.51"/><path d="M1207,168L1184,-22L1051,93Z" fill="#6e469e" stroke="#6e469e" stroke-width="1.51"/><path d="M1079,-297L634,-286L826,-10Z" fill="#8469ab" stroke="#8469ab" stroke-width="1.51"/><path d="M826,-10L634,-286L570,-17Z" fill="#907ab0" stroke="#907ab0" stroke-width="1.51"/><path d="M1552,169L1184,-22L1207,168Z" fill="#714094" stroke="#714094" stroke-width="1.51"/><path d="M570,-17L353,282L828,225Z" fill="#947eb2" stroke="#947eb2" stroke-width="1.51"/><path d="M553,562L326,906L560,769Z" fill="#8058a3" stroke="#8058a3" stroke-width="1.51"/><path d="M877,795L1014,906L990,435Z" fill="#7346a1" stroke="#7346a1" stroke-width="1.51"/><path d="M635,940L1014,906L877,795Z" fill="#834d97" stroke="#834d97" stroke-width="1.51"/><path d="M353,282L268,432L553,562Z" fill="#a08db8" stroke="#a08db8" stroke-width="1.51"/><path d="M560,769L635,940L877,795Z" fill="#8f62a0" stroke="#8f62a0" stroke-width="1.51"/><path d="M326,906L635,940L560,769Z" fill="#845197" stroke="#845197" stroke-width="1.51"/><path d="M1014,906L1360,835L990,435Z" fill="#642f96" stroke="#642f96" stroke-width="1.51"/><path d="M136,-25L128,232L353,282Z" fill="#8066a9" stroke="#8066a9" stroke-width="1.51"/><path d="M353,282L128,232L268,432Z" fill="#8f77b0" stroke="#8f77b0" stroke-width="1.51"/><path d="M1079,-297L826,-10L1013,22Z" fill="#7655a5" stroke="#7655a5" stroke-width="1.51"/><path d="M1184,-22L1079,-297L1013,22Z" fill="#68439f" stroke="#68439f" stroke-width="1.51"/><path d="M1453,-173L1079,-297L1184,-22Z" fill="#6a3d96" stroke="#6a3d96" stroke-width="1.51"/><path d="M1361,337L1552,169L1207,168Z" fill="#7a4795" stroke="#7a4795" stroke-width="1.51"/><path d="M1607,459L1552,169L1361,337Z" fill="#845095" stroke="#845095" stroke-width="1.51"/><path d="M136,-25L353,282L570,-17Z" fill="#8066aa" stroke="#8066aa" stroke-width="1.51"/><path d="M1360,835L1607,459L1361,337Z" fill="#804793" stroke="#804793" stroke-width="1.51"/><path d="M245,918L326,906L87,692Z" fill="#744294" stroke="#744294" stroke-width="1.51"/><path d="M268,432L326,906L553,562Z" fill="#8160aa" stroke="#8160aa" stroke-width="1.51"/><path d="M1552,169L1453,-173L1184,-22Z" fill="#6b368d" stroke="#6b368d" stroke-width="1.51"/><path d="M405,-356L136,-25L570,-17Z" fill="#7c62a8" stroke="#7c62a8" stroke-width="1.51"/><path d="M472,1365L684,1384L635,940Z" fill="#895697" stroke="#895697" stroke-width="1.51"/><path d="M87,692L326,906L268,432Z" fill="#714da4" stroke="#714da4" stroke-width="1.51"/><path d="M1360,835L1662,686L1607,459Z" fill="#69278a" stroke="#69278a" stroke-width="1.51"/><path d="M1014,906L1339,1053L1360,835Z" fill="#67187f" stroke="#67187f" stroke-width="1.51"/><path d="M1059,1252L1339,1053L1014,906Z" fill="#661f85" stroke="#661f85" stroke-width="1.51"/><path d="M1059,1252L1014,906L635,940Z" fill="#7c4292" stroke="#7c4292" stroke-width="1.51"/><path d="M-37,630L87,692L268,432Z" fill="#7f5fa9" stroke="#7f5fa9" stroke-width="1.51"/><path d="M1,247L268,432L128,232Z" fill="#8971ae" stroke="#8971ae" stroke-width="1.51"/><path d="M634,-286L405,-356L570,-17Z" fill="#876fac" stroke="#876fac" stroke-width="1.51"/><path d="M1079,-297L405,-356L634,-286Z" fill="#927cb1" stroke="#927cb1" stroke-width="1.51"/><path d="M1788,943L1662,686L1360,835Z" fill="#67137b" stroke="#67137b" stroke-width="1.51"/><path d="M1607,459L1919,387L1552,169Z" fill="#865296" stroke="#865296" stroke-width="1.51"/><path d="M136,-25L1,247L128,232Z" fill="#7b60a7" stroke="#7b60a7" stroke-width="1.51"/><path d="M684,1384L1059,1252L635,940Z" fill="#895497" stroke="#895497" stroke-width="1.51"/><path d="M1339,1053L1421,1101L1360,835Z" fill="#670d78" stroke="#670d78" stroke-width="1.51"/><path d="M1189,1300L1421,1101L1339,1053Z" fill="#67127b" stroke="#67127b" stroke-width="1.51"/><path d="M1637,-451L1393,-399L1453,-173Z" fill="#6c348a" stroke="#6c348a" stroke-width="1.51"/><path d="M1453,-173L1393,-399L1079,-297Z" fill="#6a3a92" stroke="#6a3a92" stroke-width="1.51"/><path d="M1079,-297L232,-445L405,-356Z" fill="#8a71ad" stroke="#8a71ad" stroke-width="1.51"/><path d="M-220,952L226,1185L245,918Z" fill="#6f378c" stroke="#6f378c" stroke-width="1.51"/><path d="M1,247L-37,630L268,432Z" fill="#947fb2" stroke="#947fb2" stroke-width="1.51"/><path d="M1059,1252L1189,1300L1339,1053Z" fill="#671b82" stroke="#671b82" stroke-width="1.51"/><path d="M-471,249L-150,440L1,247Z" fill="#856cab" stroke="#856cab" stroke-width="1.51"/><path d="M1,247L-150,440L-37,630Z" fill="#927cb1" stroke="#927cb1" stroke-width="1.51"/><path d="M405,-356L232,-445L136,-25Z" fill="#785da6" stroke="#785da6" stroke-width="1.51"/><path d="M136,-25L-131,-76L1,247Z" fill="#7055a3" stroke="#7055a3" stroke-width="1.51"/><path d="M1393,-399L232,-445L1079,-297Z" fill="#7e60a9" stroke="#7e60a9" stroke-width="1.51"/><path d="M226,1185L635,940L326,906Z" fill="#7d4792" stroke="#7d4792" stroke-width="1.51"/><path d="M1059,1252L874,1574L1189,1300Z" fill="#6b2a8b" stroke="#6b2a8b" stroke-width="1.51"/><path d="M226,1185L326,906L245,918Z" fill="#77408f" stroke="#77408f" stroke-width="1.51"/><path d="M-220,952L87,692L-37,630Z" fill="#693e97" stroke="#693e97" stroke-width="1.51"/><path d="M-220,952L245,918L87,692Z" fill="#6d398f" stroke="#6d398f" stroke-width="1.51"/><path d="M1993,470L1919,387L1662,686Z" fill="#864f96" stroke="#864f96" stroke-width="1.51"/><path d="M1662,686L1919,387L1607,459Z" fill="#865096" stroke="#865096" stroke-width="1.51"/><path d="M1552,169L1843,-75L1453,-173Z" fill="#6c348a" stroke="#6c348a" stroke-width="1.51"/><path d="M226,1185L472,1365L635,940Z" fill="#804a93" stroke="#804a93" stroke-width="1.51"/><path d="M1919,387L1919,167L1552,169Z" fill="#7c4691" stroke="#7c4691" stroke-width="1.51"/><path d="M1919,167L1843,-75L1552,169Z" fill="#713a8d" stroke="#713a8d" stroke-width="1.51"/><path d="M232,-445L-131,-76L136,-25Z" fill="#7155a3" stroke="#7155a3" stroke-width="1.51"/><path d="M1421,1101L1788,943L1360,835Z" fill="#670574" stroke="#670574" stroke-width="1.51"/><path d="M1510,1295L1788,943L1421,1101Z" fill="#670574" stroke="#670574" stroke-width="1.51"/><path d="M1788,943L1870,823L1662,686Z" fill="#67137b" stroke="#67137b" stroke-width="1.51"/><path d="M1843,-75L1637,-451L1453,-173Z" fill="#6c348a" stroke="#6c348a" stroke-width="1.51"/><path d="M1393,-399L1637,-451L232,-445Z" fill="#68439f" stroke="#68439f" stroke-width="1.51"/><path d="M1374,1439L1510,1295L1189,1300Z" fill="#670e78" stroke="#670e78" stroke-width="1.51"/><path d="M1189,1300L1510,1295L1421,1101Z" fill="#670d78" stroke="#670d78" stroke-width="1.51"/><path d="M1870,823L1993,470L1662,686Z" fill="#69278a" stroke="#69278a" stroke-width="1.51"/><path d="M1919,387L2001,220L1919,167Z" fill="#7e4892" stroke="#7e4892" stroke-width="1.51"/><path d="M1993,470L2001,220L1919,387Z" fill="#885596" stroke="#885596" stroke-width="1.51"/><path d="M1919,167L2071,-203L1843,-75Z" fill="#6c348a" stroke="#6c348a" stroke-width="1.51"/><path d="M874,1574L1374,1439L1189,1300Z" fill="#661f85" stroke="#661f85" stroke-width="1.51"/><path d="M684,1384L874,1574L1059,1252Z" fill="#7f4793" stroke="#7f4793" stroke-width="1.51"/><path d="M472,1365L428,1479L684,1384Z" fill="#855195" stroke="#855195" stroke-width="1.51"/><path d="M226,1185L428,1479L472,1365Z" fill="#7b4591" stroke="#7b4591" stroke-width="1.51"/><path d="M630,1603L874,1574L684,1384Z" fill="#905e9a" stroke="#905e9a" stroke-width="1.51"/><path d="M-414,702L-220,952L-37,630Z" fill="#693e97" stroke="#693e97" stroke-width="1.51"/><path d="M226,1185L172,1610L428,1479Z" fill="#77408f" stroke="#77408f" stroke-width="1.51"/><path d="M-414,702L-37,630L-150,440Z" fill="#7959a6" stroke="#7959a6" stroke-width="1.51"/><path d="M1843,-75L1767,-471L1637,-451Z" fill="#6c348a" stroke="#6c348a" stroke-width="1.51"/><path d="M1637,-451L1767,-471L232,-445Z" fill="#693e97" stroke="#693e97" stroke-width="1.51"/><path d="M2071,-203L1767,-471L1843,-75Z" fill="#6c348a" stroke="#6c348a" stroke-width="1.51"/><path d="M428,1479L630,1603L684,1384Z" fill="#885597" stroke="#885597" stroke-width="1.51"/><path d="M-502,331L-414,702L-150,440Z" fill="#8c72ae" stroke="#8c72ae" stroke-width="1.51"/><path d="M232,-445L-228,-303L-131,-76Z" fill="#6d52a1" stroke="#6d52a1" stroke-width="1.51"/><path d="M428,1479L172,1610L630,1603Z" fill="#7d4892" stroke="#7d4892" stroke-width="1.51"/><path d="M-220,952L-47,1305L226,1185Z" fill="#6c348a" stroke="#6c348a" stroke-width="1.51"/><path d="M2134,1584L1505,1503L874,1574Z" fill="#670574" stroke="#670574" stroke-width="1.51"/><path d="M874,1574L1505,1503L1374,1439Z" fill="#67177f" stroke="#67177f" stroke-width="1.51"/><path d="M1374,1439L1505,1503L1510,1295Z" fill="#670574" stroke="#670574" stroke-width="1.51"/><path d="M1510,1295L1770,1387L1788,943Z" fill="#670574" stroke="#670574" stroke-width="1.51"/><path d="M2145,1080L2117,821L1870,823Z" fill="#670574" stroke="#670574" stroke-width="1.51"/><path d="M-285,1387L-31,1418L-47,1305Z" fill="#6c348a" stroke="#6c348a" stroke-width="1.51"/><path d="M-471,249L1,247L-131,-76Z" fill="#765ba5" stroke="#765ba5" stroke-width="1.51"/><path d="M-228,-303L-398,-56L-131,-76Z" fill="#6d52a1" stroke="#6d52a1" stroke-width="1.51"/><path d="M2145,1080L1870,823L1788,943Z" fill="#670574" stroke="#670574" stroke-width="1.51"/><path d="M1870,823L2117,821L1993,470Z" fill="#661f86" stroke="#661f86" stroke-width="1.51"/><path d="M1993,470L2117,821L2001,220Z" fill="#875296" stroke="#875296" stroke-width="1.51"/><path d="M-398,-56L-471,249L-131,-76Z" fill="#7054a2" stroke="#7054a2" stroke-width="1.51"/><path d="M2117,821L2071,-203L2001,220Z" fill="#804a93" stroke="#804a93" stroke-width="1.51"/><path d="M2001,220L2071,-203L1919,167Z" fill="#70388c" stroke="#70388c" stroke-width="1.51"/><path d="M-398,-56L-502,331L-471,249Z" fill="#795ea6" stroke="#795ea6" stroke-width="1.51"/><path d="M-471,249L-502,331L-150,440Z" fill="#8870ad" stroke="#8870ad" stroke-width="1.51"/><path d="M1505,1503L1770,1387L1510,1295Z" fill="#670574" stroke="#670574" stroke-width="1.51"/><path d="M-285,1387L-47,1305L-220,952Z" fill="#6c348a" stroke="#6c348a" stroke-width="1.51"/><path d="M-47,1305L-31,1418L226,1185Z" fill="#6e368b" stroke="#6e368b" stroke-width="1.51"/><path d="M1505,1503L1768,1446L1770,1387Z" fill="#670574" stroke="#670574" stroke-width="1.51"/><path d="M2064,1358L2145,1080L1788,943Z" fill="#670574" stroke="#670574" stroke-width="1.51"/><path d="M-31,1418L172,1610L226,1185Z" fill="#71398c" stroke="#71398c" stroke-width="1.51"/><path d="M2071,-203L2120,-388L1767,-471Z" fill="#6c348a" stroke="#6c348a" stroke-width="1.51"/><path d="M2117,821L2120,-388L2071,-203Z" fill="#71398c" stroke="#71398c" stroke-width="1.51"/><path d="M2117,821L2145,1080L2120,-388Z" fill="#875296" stroke="#875296" stroke-width="1.51"/><path d="M2064,1358L1788,943L1770,1387Z" fill="#670574" stroke="#670574" stroke-width="1.51"/><path d="M-414,702L-454,1026L-220,952Z" fill="#6c348b" stroke="#6c348b" stroke-width="1.51"/><path d="M-31,1418L-463,1659L172,1610Z" fill="#6c348a" stroke="#6c348a" stroke-width="1.51"/><path d="M-502,331L-454,1026L-414,702Z" fill="#68439f" stroke="#68439f" stroke-width="1.51"/><path d="M1767,-471L-391,-457L232,-445Z" fill="#876fac" stroke="#876fac" stroke-width="1.51"/><path d="M232,-445L-391,-457L-228,-303Z" fill="#6d52a1" stroke="#6d52a1" stroke-width="1.51"/><path d="M-228,-303L-391,-457L-398,-56Z" fill="#6d52a1" stroke="#6d52a1" stroke-width="1.51"/><path d="M-398,-56L-391,-457L-502,331Z" fill="#6d52a1" stroke="#6d52a1" stroke-width="1.51"/><path d="M-454,1026L-285,1387L-220,952Z" fill="#6c348a" stroke="#6c348a" stroke-width="1.51"/><path d="M1768,1446L2064,1358L1770,1387Z" fill="#670574" stroke="#670574" stroke-width="1.51"/><path d="M1768,1446L2134,1584L2064,1358Z" fill="#670574" stroke="#670574" stroke-width="1.51"/><path d="M2064,1358L2134,1584L2145,1080Z" fill="#670574" stroke="#670574" stroke-width="1.51"/><path d="M1505,1503L2134,1584L1768,1446Z" fill="#670574" stroke="#670574" stroke-width="1.51"/><path d="M630,1603L2134,1584L874,1574Z" fill="#661a81" stroke="#661a81" stroke-width="1.51"/><path d="M-463,1659L2134,1584L630,1603Z" fill="#8c5898" stroke="#8c5898" stroke-width="1.51"/><path d="M172,1610L-463,1659L630,1603Z" fill="#70398c" stroke="#70398c" stroke-width="1.51"/><path d="M-285,1387L-463,1659L-31,1418Z" fill="#6c348a" stroke="#6c348a" stroke-width="1.51"/><path d="M-454,1026L-463,1659L-285,1387Z" fill="#6c348a" stroke="#6c348a" stroke-width="1.51"/><path d="M-502,331L-463,1659L-454,1026Z" fill="#6c348a" stroke="#6c348a" stroke-width="1.51"/></svg>