<svg xmlns="http://www.w3.org/2000/svg" width="1440" height="900"><path d="M911,598L1220,612L1100,438Z" fill="#84bea0" stroke="#84bea0" stroke-width="1.51"/><path d="M1220,612L1191,419L1100,438Z" fill="#aba4b5" stroke="#aba4b5" stroke-width="1.51"/><path d="M1100,438L657,325L911,598Z" fill="#af93de" stroke="#af93de" stroke-width="1.51"/><path d="M1191,419L1115,289L1100,438Z" fill="#9e9fbf" stroke="#9e9fbf" stroke-width="1.51"/><path d="M911,598L1264,892L1220,612Z" fill="#7dc77e" stroke="#7dc77e" stroke-width="1.51"/><path d="M1220,612L1436,596L1191,419Z" fill="#ba9aac" stroke="#ba9aac" stroke-width="1.51"/><path d="M1264,892L1436,596L1220,612Z" fill="#afaa89" stroke="#afaa89" stroke-width="1.51"/><path d="M1191,419L1522,347L1115,289Z" fill="#b882c5" stroke="#b882c5" stroke-width="1.51"/><path d="M911,598L880,1084L1264,892Z" fill="#bc9d95" stroke="#bc9d95" stroke-width="1.51"/><path d="M554,410L722,785L911,598Z" fill="#a89dd1" stroke="#a89dd1" stroke-width="1.51"/><path d="M1115,289L657,325L1100,438Z" fill="#9797d2" stroke="#9797d2" stroke-width="1.51"/><path d="M1436,596L1522,347L1191,419Z" fill="#da6cca" stroke="#da6cca" stroke-width="1.51"/><path d="M1115,289L657,273L657,325Z" fill="#9a81eb" stroke="#9a81eb" stroke-width="1.51"/><path d="M722,785L880,1084L911,598Z" fill="#c48fb3" stroke="#c48fb3" stroke-width="1.51"/><path d="M722,785L618,881L880,1084Z" fill="#e35eca" stroke="#e35eca" stroke-width="1.51"/><path d="M419,829L618,881L722,785Z" fill="#c576c8" stroke="#c576c8" stroke-width="1.51"/><path d="M554,410L911,598L657,325Z" fill="#ba78fd" stroke="#ba78fd" stroke-width="1.51"/><path d="M657,273L554,410L657,325Z" fill="#9c73fb" stroke="#9c73fb" stroke-width="1.51"/><path d="M1115,289L914,12L657,273Z" fill="#998acc" stroke="#998acc" stroke-width="1.51"/><path d="M1522,347L1253,45L1115,289Z" fill="#a978c5" stroke="#a978c5" stroke-width="1.51"/><path d="M1169,-31L914,12L1115,289Z" fill="#ada183" stroke="#ada183" stroke-width="1.51"/><path d="M1253,45L1169,-31L1115,289Z" fill="#bd918b" stroke="#bd918b" stroke-width="1.51"/><path d="M1522,347L1441,45L1253,45Z" fill="#d85ba8" stroke="#d85ba8" stroke-width="1.51"/><path d="M1253,45L1174,-235L1169,-31Z" fill="#db8e5f" stroke="#db8e5f" stroke-width="1.51"/><path d="M618,881L587,1145L880,1084Z" fill="#e259ce" stroke="#e259ce" stroke-width="1.51"/><path d="M554,410L419,829L722,785Z" fill="#8aa7bc" stroke="#8aa7bc" stroke-width="1.51"/><path d="M1122,1311L1267,1272L1264,892Z" fill="#dd7c95" stroke="#dd7c95" stroke-width="1.51"/><path d="M1264,892L1643,1082L1436,596Z" fill="#f54d9d" stroke="#f54d9d" stroke-width="1.51"/><path d="M1436,596L1842,611L1522,347Z" fill="#dc71ba" stroke="#dc71ba" stroke-width="1.51"/><path d="M893,1549L1122,1311L880,1084Z" fill="#cf88a3" stroke="#cf88a3" stroke-width="1.51"/><path d="M880,1084L1122,1311L1264,892Z" fill="#c4978e" stroke="#c4978e" stroke-width="1.51"/><path d="M440,1009L587,1145L618,881Z" fill="#d456cc" stroke="#d456cc" stroke-width="1.51"/><path d="M419,829L440,1009L618,881Z" fill="#cf56cc" stroke="#cf56cc" stroke-width="1.51"/><path d="M1267,1272L1643,1082L1264,892Z" fill="#f8449e" stroke="#f8449e" stroke-width="1.51"/><path d="M554,410L206,745L419,829Z" fill="#799fbf" stroke="#799fbf" stroke-width="1.51"/><path d="M419,829L174,1106L440,1009Z" fill="#c653c7" stroke="#c653c7" stroke-width="1.51"/><path d="M657,273L355,307L554,410Z" fill="#8f71fa" stroke="#8f71fa" stroke-width="1.51"/><path d="M560,-23L355,307L657,273Z" fill="#936be8" stroke="#936be8" stroke-width="1.51"/><path d="M567,1427L893,1549L880,1084Z" fill="#e067c3" stroke="#e067c3" stroke-width="1.51"/><path d="M440,1009L531,1149L587,1145Z" fill="#d256cc" stroke="#d256cc" stroke-width="1.51"/><path d="M1643,1082L1842,611L1436,596Z" fill="#dd7b95" stroke="#dd7b95" stroke-width="1.51"/><path d="M1522,347L1878,256L1441,45Z" fill="#c653c7" stroke="#c653c7" stroke-width="1.51"/><path d="M914,12L560,-23L657,273Z" fill="#d16dbf" stroke="#d16dbf" stroke-width="1.51"/><path d="M797,-214L560,-23L914,12Z" fill="#e87295" stroke="#e87295" stroke-width="1.51"/><path d="M1842,611L1847,399L1522,347Z" fill="#e45acd" stroke="#e45acd" stroke-width="1.51"/><path d="M1169,-31L1174,-235L914,12Z" fill="#c4a457" stroke="#c4a457" stroke-width="1.51"/><path d="M1441,45L1174,-235L1253,45Z" fill="#ea7965" stroke="#ea7965" stroke-width="1.51"/><path d="M1654,-182L1174,-235L1441,45Z" fill="#ff506d" stroke="#ff506d" stroke-width="1.51"/><path d="M1643,1082L1848,999L1842,611Z" fill="#ff2ba0" stroke="#ff2ba0" stroke-width="1.51"/><path d="M1267,1272L1657,1188L1643,1082Z" fill="#ff27a0" stroke="#ff27a0" stroke-width="1.51"/><path d="M1700,1182L1657,1188L1758,1506Z" fill="#ff27a0" stroke="#ff27a0" stroke-width="1.51"/><path d="M1174,-235L797,-214L914,12Z" fill="#d3946f" stroke="#d3946f" stroke-width="1.51"/><path d="M1657,1188L1700,1182L1643,1082Z" fill="#ff27a0" stroke="#ff27a0" stroke-width="1.51"/><path d="M1284,1456L1657,1188L1267,1272Z" fill="#fa3f9e" stroke="#fa3f9e" stroke-width="1.51"/><path d="M249,1419L567,1427L531,1149Z" fill="#cb55cc" stroke="#cb55cc" stroke-width="1.51"/><path d="M355,307L206,745L554,410Z" fill="#907af0" stroke="#907af0" stroke-width="1.51"/><path d="M1847,399L1878,256L1522,347Z" fill="#d357cc" stroke="#d357cc" stroke-width="1.51"/><path d="M2032,305L1878,256L1847,399Z" fill="#d156cc" stroke="#d156cc" stroke-width="1.51"/><path d="M1700,1182L1848,999L1643,1082Z" fill="#ff27a0" stroke="#ff27a0" stroke-width="1.51"/><path d="M2148,357L2032,305L1847,399Z" fill="#d657cc" stroke="#d657cc" stroke-width="1.51"/><path d="M1122,1311L1284,1456L1267,1272Z" fill="#de7a95" stroke="#de7a95" stroke-width="1.51"/><path d="M893,1549L1284,1456L1122,1311Z" fill="#c7958f" stroke="#c7958f" stroke-width="1.51"/><path d="M1925,15L1654,-182L1441,45Z" fill="#ff496e" stroke="#ff496e" stroke-width="1.51"/><path d="M567,1427L880,1084L587,1145Z" fill="#e058cd" stroke="#e058cd" stroke-width="1.51"/><path d="M531,1149L567,1427L587,1145Z" fill="#d657cc" stroke="#d657cc" stroke-width="1.51"/><path d="M174,1106L531,1149L440,1009Z" fill="#c554cb" stroke="#c554cb" stroke-width="1.51"/><path d="M355,307L74,511L206,745Z" fill="#b881bf" stroke="#b881bf" stroke-width="1.51"/><path d="M206,745L174,1106L419,829Z" fill="#d554b2" stroke="#d554b2" stroke-width="1.51"/><path d="M102,147L74,511L355,307Z" fill="#b669c8" stroke="#b669c8" stroke-width="1.51"/><path d="M1878,256L1925,15L1441,45Z" fill="#e84e99" stroke="#e84e99" stroke-width="1.51"/><path d="M2148,357L1847,399L1842,611Z" fill="#e45bcc" stroke="#e45bcc" stroke-width="1.51"/><path d="M291,-136L102,147L355,307Z" fill="#c264a8" stroke="#c264a8" stroke-width="1.51"/><path d="M797,-214L548,-280L560,-23Z" fill="#e5699b" stroke="#e5699b" stroke-width="1.51"/><path d="M1006,-444L713,-359L797,-214Z" fill="#e08186" stroke="#e08186" stroke-width="1.51"/><path d="M1006,-444L797,-214L1174,-235Z" fill="#cf9969" stroke="#cf9969" stroke-width="1.51"/><path d="M713,-359L548,-280L797,-214Z" fill="#e96a9b" stroke="#e96a9b" stroke-width="1.51"/><path d="M1848,999L2189,787L1842,611Z" fill="#e66c98" stroke="#e66c98" stroke-width="1.51"/><path d="M1700,1182L1962,1088L1848,999Z" fill="#ff27a0" stroke="#ff27a0" stroke-width="1.51"/><path d="M2102,1334L1962,1088L1700,1182Z" fill="#ff27a0" stroke="#ff27a0" stroke-width="1.51"/><path d="M-9,850L174,1106L206,745Z" fill="#f04d8e" stroke="#f04d8e" stroke-width="1.51"/><path d="M2032,305L1925,15L1878,256Z" fill="#cf52bd" stroke="#cf52bd" stroke-width="1.51"/><path d="M1609,-426L1006,-444L1174,-235Z" fill="#e68064" stroke="#e68064" stroke-width="1.51"/><path d="M291,-136L355,307L560,-23Z" fill="#c266ae" stroke="#c266ae" stroke-width="1.51"/><path d="M548,-280L291,-136L560,-23Z" fill="#d6669a" stroke="#d6669a" stroke-width="1.51"/><path d="M567,1427L784,1658L893,1549Z" fill="#e260c9" stroke="#e260c9" stroke-width="1.51"/><path d="M893,1549L784,1658L1284,1456Z" fill="#cd8c9f" stroke="#cd8c9f" stroke-width="1.51"/><path d="M249,1419L784,1658L567,1427Z" fill="#d357cc" stroke="#d357cc" stroke-width="1.51"/><path d="M-215,414L-9,850L74,511Z" fill="#d49372" stroke="#d49372" stroke-width="1.51"/><path d="M74,511L-9,850L206,745Z" fill="#be9c74" stroke="#be9c74" stroke-width="1.51"/><path d="M2189,787L2148,357L1842,611Z" fill="#d283a8" stroke="#d283a8" stroke-width="1.51"/><path d="M2032,305L2170,-86L1925,15Z" fill="#ef4d8f" stroke="#ef4d8f" stroke-width="1.51"/><path d="M1962,1088L2189,787L1848,999Z" fill="#ff27a0" stroke="#ff27a0" stroke-width="1.51"/><path d="M1962,1088L2102,1334L2189,787Z" fill="#ff27a0" stroke="#ff27a0" stroke-width="1.51"/><path d="M1670,1596L1758,1506L1657,1188Z" fill="#ff27a0" stroke="#ff27a0" stroke-width="1.51"/><path d="M1670,1596L1657,1188L1284,1456Z" fill="#ff27a0" stroke="#ff27a0" stroke-width="1.51"/><path d="M1654,-182L1609,-426L1174,-235Z" fill="#ff496e" stroke="#ff496e" stroke-width="1.51"/><path d="M1740,-500L1609,-426L1654,-182Z" fill="#ff496e" stroke="#ff496e" stroke-width="1.51"/><path d="M156,1351L249,1419L174,1106Z" fill="#e44fa0" stroke="#e44fa0" stroke-width="1.51"/><path d="M174,1106L249,1419L531,1149Z" fill="#cc52c0" stroke="#cc52c0" stroke-width="1.51"/><path d="M784,1658L1670,1596L1284,1456Z" fill="#e17496" stroke="#e17496" stroke-width="1.51"/><path d="M-33,1261L156,1351L174,1106Z" fill="#f44c88" stroke="#f44c88" stroke-width="1.51"/><path d="M102,147L-137,188L74,511Z" fill="#d3669d" stroke="#d3669d" stroke-width="1.51"/><path d="M291,-136L-35,14L102,147Z" fill="#ef615e" stroke="#ef615e" stroke-width="1.51"/><path d="M60,-437L-35,14L291,-136Z" fill="#f36156" stroke="#f36156" stroke-width="1.51"/><path d="M-35,14L-137,188L102,147Z" fill="#e8626c" stroke="#e8626c" stroke-width="1.51"/><path d="M2209,1645L2102,1334L1758,1506Z" fill="#ff27a0" stroke="#ff27a0" stroke-width="1.51"/><path d="M1758,1506L2102,1334L1700,1182Z" fill="#ff27a0" stroke="#ff27a0" stroke-width="1.51"/><path d="M2014,-358L1740,-500L1654,-182Z" fill="#ff496e" stroke="#ff496e" stroke-width="1.51"/><path d="M1609,-426L1740,-500L1006,-444Z" fill="#ff496e" stroke="#ff496e" stroke-width="1.51"/><path d="M2014,-358L1654,-182L1925,15Z" fill="#ff496e" stroke="#ff496e" stroke-width="1.51"/><path d="M-9,850L-33,1261L174,1106Z" fill="#fb4a7a" stroke="#fb4a7a" stroke-width="1.51"/><path d="M156,1351L-59,1521L249,1419Z" fill="#f14c8c" stroke="#f14c8c" stroke-width="1.51"/><path d="M-238,1124L-33,1261L-9,850Z" fill="#ff496e" stroke="#ff496e" stroke-width="1.51"/><path d="M-137,188L-215,414L74,511Z" fill="#e1689a" stroke="#e1689a" stroke-width="1.51"/><path d="M2189,787L2170,-86L2148,357Z" fill="#d657cc" stroke="#d657cc" stroke-width="1.51"/><path d="M2148,357L2170,-86L2032,305Z" fill="#cf52bd" stroke="#cf52bd" stroke-width="1.51"/><path d="M2170,-86L2014,-358L1925,15Z" fill="#ff496e" stroke="#ff496e" stroke-width="1.51"/><path d="M-322,898L-238,1124L-9,850Z" fill="#ff496e" stroke="#ff496e" stroke-width="1.51"/><path d="M-215,414L-322,898L-9,850Z" fill="#d2975c" stroke="#d2975c" stroke-width="1.51"/><path d="M548,-280L60,-437L291,-136Z" fill="#d76389" stroke="#d76389" stroke-width="1.51"/><path d="M-477,101L-379,421L-137,188Z" fill="#cf6499" stroke="#cf6499" stroke-width="1.51"/><path d="M-137,188L-379,421L-215,414Z" fill="#dd679a" stroke="#dd679a" stroke-width="1.51"/><path d="M713,-359L60,-437L548,-280Z" fill="#d46599" stroke="#d46599" stroke-width="1.51"/><path d="M1006,-444L60,-437L713,-359Z" fill="#e1689a" stroke="#e1689a" stroke-width="1.51"/><path d="M-98,-468L60,-437L1006,-444Z" fill="#d4638f" stroke="#d4638f" stroke-width="1.51"/><path d="M-215,414L-508,607L-322,898Z" fill="#cb9d63" stroke="#cb9d63" stroke-width="1.51"/><path d="M-267,-28L-137,188L-35,14Z" fill="#f46153" stroke="#f46153" stroke-width="1.51"/><path d="M-405,1238L-59,1521L-33,1261Z" fill="#ff496e" stroke="#ff496e" stroke-width="1.51"/><path d="M-33,1261L-59,1521L156,1351Z" fill="#fe4a74" stroke="#fe4a74" stroke-width="1.51"/><path d="M249,1419L-59,1521L784,1658Z" fill="#cb52c2" stroke="#cb52c2" stroke-width="1.51"/><path d="M-98,-468L-267,-28L-35,14Z" fill="#ff6138" stroke="#ff6138" stroke-width="1.51"/><path d="M1670,1596L2209,1645L1758,1506Z" fill="#ff27a0" stroke="#ff27a0" stroke-width="1.51"/><path d="M2102,1334L2209,1645L2189,787Z" fill="#ff27a0" stroke="#ff27a0" stroke-width="1.51"/><path d="M2189,787L2209,1645L2170,-86Z" fill="#e27397" stroke="#e27397" stroke-width="1.51"/><path d="M784,1658L2209,1645L1670,1596Z" fill="#ff27a0" stroke="#ff27a0" stroke-width="1.51"/><path d="M60,-437L-98,-468L-35,14Z" fill="#ff6138" stroke="#ff6138" stroke-width="1.51"/><path d="M1740,-500L-98,-468L1006,-444Z" fill="#db887e" stroke="#db887e" stroke-width="1.51"/><path d="M-238,1124L-405,1238L-33,1261Z" fill="#ff496e" stroke="#ff496e" stroke-width="1.51"/><path d="M-322,898L-405,1238L-238,1124Z" fill="#ff496e" stroke="#ff496e" stroke-width="1.51"/><path d="M-379,421L-508,607L-215,414Z" fill="#e77593" stroke="#e77593" stroke-width="1.51"/><path d="M-477,101L-508,607L-379,421Z" fill="#e2689a" stroke="#e2689a" stroke-width="1.51"/><path d="M-508,607L-405,1238L-322,898Z" fill="#ff496e" stroke="#ff496e" stroke-width="1.51"/><path d="M-267,-28L-477,101L-137,188Z" fill="#ef6260" stroke="#ef6260" stroke-width="1.51"/><path d="M-355,-387L-477,101L-267,-28Z" fill="#ff6138" stroke="#ff6138" stroke-width="1.51"/><path d="M-98,-468L-355,-387L-267,-28Z" fill="#ff6138" stroke="#ff6138" stroke-width="1.51"/><path d="M-508,607L-412,1552L-405,1238Z" fill="#ff496e" stroke="#ff496e" stroke-width="1.51"/><path d="M-405,1238L-412,1552L-59,1521Z" fill="#ff496e" stroke="#ff496e" stroke-width="1.51"/><path d="M-59,1521L-412,1552L784,1658Z" fill="#f24c89" stroke="#f24c89" stroke-width="1.51"/></svg>