<svg xmlns="http://www.w3.org/2000/svg" width="1440" height="900"><path d="M491,506L149,301L240,721Z" fill="#5670da" stroke="#5670da" stroke-width="1.51"/><path d="M149,301L-71,691L240,721Z" fill="#4961c7" stroke="#4961c7" stroke-width="1.51"/><path d="M491,506L419,127L149,301Z" fill="#5571e1" stroke="#5571e1" stroke-width="1.51"/><path d="M149,301L-163,359L-71,691Z" fill="#506bdd" stroke="#506bdd" stroke-width="1.51"/><path d="M153,34L-163,359L149,301Z" fill="#435fd3" stroke="#435fd3" stroke-width="1.51"/><path d="M419,127L153,34L149,301Z" fill="#4662d5" stroke="#4662d5" stroke-width="1.51"/><path d="M419,127L484,-310L153,34Z" fill="#405dd0" stroke="#405dd0" stroke-width="1.51"/><path d="M809,44L630,-15L419,127Z" fill="#4f6bdc" stroke="#4f6bdc" stroke-width="1.51"/><path d="M240,721L669,992L491,506Z" fill="#475cb0" stroke="#475cb0" stroke-width="1.51"/><path d="M-103,1061L187,1121L240,721Z" fill="#2c3d84" stroke="#2c3d84" stroke-width="1.51"/><path d="M153,34L-27,-73L-163,359Z" fill="#3755ca" stroke="#3755ca" stroke-width="1.51"/><path d="M173,-452L-27,-73L153,34Z" fill="#3453c8" stroke="#3453c8" stroke-width="1.51"/><path d="M187,1121L669,992L240,721Z" fill="#35468c" stroke="#35468c" stroke-width="1.51"/><path d="M491,506L809,44L419,127Z" fill="#5974e4" stroke="#5974e4" stroke-width="1.51"/><path d="M-513,957L-103,1061L-71,691Z" fill="#273981" stroke="#273981" stroke-width="1.51"/><path d="M-71,691L-103,1061L240,721Z" fill="#2e4290" stroke="#2e4290" stroke-width="1.51"/><path d="M1032,794L956,407L491,506Z" fill="#5a72cd" stroke="#5a72cd" stroke-width="1.51"/><path d="M956,407L809,44L491,506Z" fill="#627eea" stroke="#627eea" stroke-width="1.51"/><path d="M669,992L1032,794L491,506Z" fill="#4e62b1" stroke="#4e62b1" stroke-width="1.51"/><path d="M630,-15L484,-310L419,127Z" fill="#4763d6" stroke="#4763d6" stroke-width="1.51"/><path d="M732,-497L484,-310L630,-15Z" fill="#4b67d9" stroke="#4b67d9" stroke-width="1.51"/><path d="M669,992L1042,859L1032,794Z" fill="#384982" stroke="#384982" stroke-width="1.51"/><path d="M669,992L1148,1200L1042,859Z" fill="#34447a" stroke="#34447a" stroke-width="1.51"/><path d="M187,1121L641,1301L669,992Z" fill="#3a4c90" stroke="#3a4c90" stroke-width="1.51"/><path d="M101,1467L641,1301L187,1121Z" fill="#33448a" stroke="#33448a" stroke-width="1.51"/><path d="M1042,859L1095,815L1032,794Z" fill="#36457d" stroke="#36457d" stroke-width="1.51"/><path d="M1032,794L1245,649L956,407Z" fill="#475aa3" stroke="#475aa3" stroke-width="1.51"/><path d="M1148,1200L1095,815L1042,859Z" fill="#2d3a6a" stroke="#2d3a6a" stroke-width="1.51"/><path d="M-661,705L-513,957L-71,691Z" fill="#314598" stroke="#314598" stroke-width="1.51"/><path d="M-103,1061L101,1467L187,1121Z" fill="#2a3b83" stroke="#2a3b83" stroke-width="1.51"/><path d="M-661,705L-71,691L-163,359Z" fill="#435cc1" stroke="#435cc1" stroke-width="1.51"/><path d="M-598,80L-626,288L-163,359Z" fill="#415ed2" stroke="#415ed2" stroke-width="1.51"/><path d="M-626,288L-661,705L-163,359Z" fill="#506bdd" stroke="#506bdd" stroke-width="1.51"/><path d="M-27,-73L-598,80L-163,359Z" fill="#3956cb" stroke="#3956cb" stroke-width="1.51"/><path d="M484,-310L173,-452L153,34Z" fill="#3c59ce" stroke="#3c59ce" stroke-width="1.51"/><path d="M-630,-429L-598,80L-27,-73Z" fill="#2e4fc5" stroke="#2e4fc5" stroke-width="1.51"/><path d="M-215,1421L101,1467L-103,1061Z" fill="#273981" stroke="#273981" stroke-width="1.51"/><path d="M809,44L732,-497L630,-15Z" fill="#506bdc" stroke="#506bdc" stroke-width="1.51"/><path d="M956,407L1153,63L809,44Z" fill="#4c64c4" stroke="#4c64c4" stroke-width="1.51"/><path d="M1257,179L1153,63L956,407Z" fill="#475cb4" stroke="#475cb4" stroke-width="1.51"/><path d="M1095,815L1245,649L1032,794Z" fill="#384882" stroke="#384882" stroke-width="1.51"/><path d="M173,-452L-122,-457L-27,-73Z" fill="#2f4fc5" stroke="#2f4fc5" stroke-width="1.51"/><path d="M1245,649L1257,179L956,407Z" fill="#4f66ba" stroke="#4f66ba" stroke-width="1.51"/><path d="M-513,957L-215,1421L-103,1061Z" fill="#273981" stroke="#273981" stroke-width="1.51"/><path d="M484,-310L732,-497L173,-452Z" fill="#4561d4" stroke="#4561d4" stroke-width="1.51"/><path d="M173,-452L732,-497L-122,-457Z" fill="#3b59cd" stroke="#3b59cd" stroke-width="1.51"/><path d="M1084,-245L732,-497L809,44Z" fill="#4760c9" stroke="#4760c9" stroke-width="1.51"/><path d="M1084,-245L809,44L1153,63Z" fill="#3f56b6" stroke="#3f56b6" stroke-width="1.51"/><path d="M1449,-21L1084,-245L1153,63Z" fill="#33479b" stroke="#33479b" stroke-width="1.51"/><path d="M995,1429L1148,1200L641,1301Z" fill="#36467e" stroke="#36467e" stroke-width="1.51"/><path d="M641,1301L1148,1200L669,992Z" fill="#3c4d8b" stroke="#3c4d8b" stroke-width="1.51"/><path d="M1095,815L1481,928L1245,649Z" fill="#2c3968" stroke="#2c3968" stroke-width="1.51"/><path d="M-354,1688L-327,1470L-513,957Z" fill="#273981" stroke="#273981" stroke-width="1.51"/><path d="M-513,957L-327,1470L-215,1421Z" fill="#273981" stroke="#273981" stroke-width="1.51"/><path d="M-215,1421L-122,1653L101,1467Z" fill="#273981" stroke="#273981" stroke-width="1.51"/><path d="M910,1526L995,1429L641,1301Z" fill="#3a4b87" stroke="#3a4b87" stroke-width="1.51"/><path d="M495,1755L641,1301L101,1467Z" fill="#37488d" stroke="#37488d" stroke-width="1.51"/><path d="M495,1755L910,1526L641,1301Z" fill="#405296" stroke="#405296" stroke-width="1.51"/><path d="M-327,1470L-122,1653L-215,1421Z" fill="#273981" stroke="#273981" stroke-width="1.51"/><path d="M129,1780L495,1755L101,1467Z" fill="#314288" stroke="#314288" stroke-width="1.51"/><path d="M-122,-457L-630,-429L-27,-73Z" fill="#2e4fc5" stroke="#2e4fc5" stroke-width="1.51"/><path d="M-598,80L-630,-429L-626,288Z" fill="#2e4fc5" stroke="#2e4fc5" stroke-width="1.51"/><path d="M-626,288L-630,-429L-661,705Z" fill="#3d5bcf" stroke="#3d5bcf" stroke-width="1.51"/><path d="M1148,1200L1481,928L1095,815Z" fill="#253159" stroke="#253159" stroke-width="1.51"/><path d="M1610,419L1449,-21L1257,179Z" fill="#33448a" stroke="#33448a" stroke-width="1.51"/><path d="M1679,1390L1481,928L1148,1200Z" fill="#1b2443" stroke="#1b2443" stroke-width="1.51"/><path d="M1283,1778L1148,1200L995,1429Z" fill="#2a3764" stroke="#2a3764" stroke-width="1.51"/><path d="M-122,1653L129,1780L101,1467Z" fill="#293a82" stroke="#293a82" stroke-width="1.51"/><path d="M1257,179L1449,-21L1153,63Z" fill="#344897" stroke="#344897" stroke-width="1.51"/><path d="M1084,-245L1661,-459L732,-497Z" fill="#374ca4" stroke="#374ca4" stroke-width="1.51"/><path d="M1610,419L1257,179L1245,649Z" fill="#44579e" stroke="#44579e" stroke-width="1.51"/><path d="M-122,1653L-354,1688L129,1780Z" fill="#273981" stroke="#273981" stroke-width="1.51"/><path d="M-327,1470L-354,1688L-122,1653Z" fill="#273981" stroke="#273981" stroke-width="1.51"/><path d="M-661,705L-354,1688L-513,957Z" fill="#273981" stroke="#273981" stroke-width="1.51"/><path d="M1665,476L1610,419L1245,649Z" fill="#3b4c8a" stroke="#3b4c8a" stroke-width="1.51"/><path d="M1610,419L1765,3L1449,-21Z" fill="#304187" stroke="#304187" stroke-width="1.51"/><path d="M1481,928L1665,476L1245,649Z" fill="#2d3a6a" stroke="#2d3a6a" stroke-width="1.51"/><path d="M2035,155L1765,3L1610,419Z" fill="#33448a" stroke="#33448a" stroke-width="1.51"/><path d="M1449,-21L1661,-459L1084,-245Z" fill="#2a3c86" stroke="#2a3c86" stroke-width="1.51"/><path d="M910,1526L1283,1778L995,1429Z" fill="#2e3c6d" stroke="#2e3c6d" stroke-width="1.51"/><path d="M1481,928L1953,798L1665,476Z" fill="#293561" stroke="#293561" stroke-width="1.51"/><path d="M495,1755L1283,1778L910,1526Z" fill="#384781" stroke="#384781" stroke-width="1.51"/><path d="M129,1780L1283,1778L495,1755Z" fill="#3f5194" stroke="#3f5194" stroke-width="1.51"/><path d="M1283,1778L1679,1390L1148,1200Z" fill="#1e284a" stroke="#1e284a" stroke-width="1.51"/><path d="M1665,476L2035,155L1610,419Z" fill="#3c4e92" stroke="#3c4e92" stroke-width="1.51"/><path d="M1785,-292L1661,-459L1449,-21Z" fill="#273981" stroke="#273981" stroke-width="1.51"/><path d="M1765,3L1785,-292L1449,-21Z" fill="#273981" stroke="#273981" stroke-width="1.51"/><path d="M2035,155L1785,-292L1765,3Z" fill="#273981" stroke="#273981" stroke-width="1.51"/><path d="M1679,1390L1953,798L1481,928Z" fill="#1b2443" stroke="#1b2443" stroke-width="1.51"/><path d="M1953,798L2047,535L1665,476Z" fill="#344379" stroke="#344379" stroke-width="1.51"/><path d="M2047,535L2035,155L1665,476Z" fill="#3e5094" stroke="#3e5094" stroke-width="1.51"/><path d="M1283,1778L1603,1746L1679,1390Z" fill="#1b2443" stroke="#1b2443" stroke-width="1.51"/><path d="M1679,1390L2001,1463L1953,798Z" fill="#1b2443" stroke="#1b2443" stroke-width="1.51"/><path d="M1603,1746L1793,1619L1679,1390Z" fill="#1b2443" stroke="#1b2443" stroke-width="1.51"/><path d="M1953,798L2001,1463L2047,535Z" fill="#1b2443" stroke="#1b2443" stroke-width="1.51"/><path d="M1793,1619L2001,1463L1679,1390Z" fill="#1b2443" stroke="#1b2443" stroke-width="1.51"/></svg>