<svg xmlns="http://www.w3.org/2000/svg" width="1440" height="900"><path d="M491,506L149,301L240,721Z" fill="#1ea05e" stroke="#1ea05e" stroke-width="1.51"/><path d="M149,301L-71,691L240,721Z" fill="#1c9056" stroke="#1c9056" stroke-width="1.51"/><path d="M491,506L419,127L149,301Z" fill="#1fa35f" stroke="#1fa35f" stroke-width="1.51"/><path d="M149,301L-163,359L-71,691Z" fill="#1f9e5d" stroke="#1f9e5d" stroke-width="1.51"/><path d="M153,34L-163,359L149,301Z" fill="#1e9158" stroke="#1e9158" stroke-width="1.51"/><path d="M419,127L153,34L149,301Z" fill="#1e9459" stroke="#1e9459" stroke-width="1.51"/><path d="M419,127L484,-310L153,34Z" fill="#1e8f57" stroke="#1e8f57" stroke-width="1.51"/><path d="M809,44L630,-15L419,127Z" fill="#1f9d5d" stroke="#1f9d5d" stroke-width="1.51"/><path d="M240,721L669,992L491,506Z" fill="#19864f" stroke="#19864f" stroke-width="1.51"/><path d="M-103,1061L187,1121L240,721Z" fill="#14623d" stroke="#14623d" stroke-width="1.51"/><path d="M153,34L-27,-73L-163,359Z" fill="#1e8754" stroke="#1e8754" stroke-width="1.51"/><path d="M173,-452L-27,-73L153,34Z" fill="#1e8553" stroke="#1e8553" stroke-width="1.51"/><path d="M187,1121L669,992L240,721Z" fill="#156c41" stroke="#156c41" stroke-width="1.51"/><path d="M491,506L809,44L419,127Z" fill="#1fa660" stroke="#1fa660" stroke-width="1.51"/><path d="M-513,957L-103,1061L-71,691Z" fill="#145e3b" stroke="#145e3b" stroke-width="1.51"/><path d="M-71,691L-103,1061L240,721Z" fill="#166941" stroke="#166941" stroke-width="1.51"/><path d="M1032,794L956,407L491,506Z" fill="#1b9f5a" stroke="#1b9f5a" stroke-width="1.51"/><path d="M956,407L809,44L491,506Z" fill="#1faf64" stroke="#1faf64" stroke-width="1.51"/><path d="M669,992L1032,794L491,506Z" fill="#198b50" stroke="#198b50" stroke-width="1.51"/><path d="M630,-15L484,-310L419,127Z" fill="#1e9559" stroke="#1e9559" stroke-width="1.51"/><path d="M732,-497L484,-310L630,-15Z" fill="#1f995b" stroke="#1f995b" stroke-width="1.51"/><path d="M669,992L1042,859L1032,794Z" fill="#136b3f" stroke="#136b3f" stroke-width="1.51"/><path d="M669,992L1148,1200L1042,859Z" fill="#12653b" stroke="#12653b" stroke-width="1.51"/><path d="M187,1121L641,1301L669,992Z" fill="#157143" stroke="#157143" stroke-width="1.51"/><path d="M101,1467L641,1301L187,1121Z" fill="#156940" stroke="#156940" stroke-width="1.51"/><path d="M1042,859L1095,815L1032,794Z" fill="#13673c" stroke="#13673c" stroke-width="1.51"/><path d="M1032,794L1245,649L956,407Z" fill="#17814a" stroke="#17814a" stroke-width="1.51"/><path d="M1148,1200L1095,815L1042,859Z" fill="#115935" stroke="#115935" stroke-width="1.51"/><path d="M-661,705L-513,957L-71,691Z" fill="#176e43" stroke="#176e43" stroke-width="1.51"/><path d="M-103,1061L101,1467L187,1121Z" fill="#14603c" stroke="#14603c" stroke-width="1.51"/><path d="M-661,705L-71,691L-163,359Z" fill="#1c8a53" stroke="#1c8a53" stroke-width="1.51"/><path d="M-598,80L-626,288L-163,359Z" fill="#1e9057" stroke="#1e9057" stroke-width="1.51"/><path d="M-626,288L-661,705L-163,359Z" fill="#1f9e5d" stroke="#1f9e5d" stroke-width="1.51"/><path d="M-27,-73L-598,80L-163,359Z" fill="#1e8854" stroke="#1e8854" stroke-width="1.51"/><path d="M484,-310L173,-452L153,34Z" fill="#1e8b55" stroke="#1e8b55" stroke-width="1.51"/><path d="M-630,-429L-598,80L-27,-73Z" fill="#1d8151" stroke="#1d8151" stroke-width="1.51"/><path d="M-215,1421L101,1467L-103,1061Z" fill="#145e3b" stroke="#145e3b" stroke-width="1.51"/><path d="M809,44L732,-497L630,-15Z" fill="#1f9d5d" stroke="#1f9d5d" stroke-width="1.51"/><path d="M956,407L1153,63L809,44Z" fill="#1c9155" stroke="#1c9155" stroke-width="1.51"/><path d="M1257,179L1153,63L956,407Z" fill="#1a874f" stroke="#1a874f" stroke-width="1.51"/><path d="M1095,815L1245,649L1032,794Z" fill="#136a3e" stroke="#136a3e" stroke-width="1.51"/><path d="M173,-452L-122,-457L-27,-73Z" fill="#1d8151" stroke="#1d8151" stroke-width="1.51"/><path d="M1245,649L1257,179L956,407Z" fill="#1a9053" stroke="#1a9053" stroke-width="1.51"/><path d="M-513,957L-215,1421L-103,1061Z" fill="#145e3b" stroke="#145e3b" stroke-width="1.51"/><path d="M484,-310L732,-497L173,-452Z" fill="#1e9358" stroke="#1e9358" stroke-width="1.51"/><path d="M173,-452L732,-497L-122,-457Z" fill="#1e8b55" stroke="#1e8b55" stroke-width="1.51"/><path d="M1084,-245L732,-497L809,44Z" fill="#1d8f56" stroke="#1d8f56" stroke-width="1.51"/><path d="M1084,-245L809,44L1153,63Z" fill="#1b824f" stroke="#1b824f" stroke-width="1.51"/><path d="M1449,-21L1084,-245L1153,63Z" fill="#177045" stroke="#177045" stroke-width="1.51"/><path d="M995,1429L1148,1200L641,1301Z" fill="#13673d" stroke="#13673d" stroke-width="1.51"/><path d="M641,1301L1148,1200L669,992Z" fill="#157042" stroke="#157042" stroke-width="1.51"/><path d="M1095,815L1481,928L1245,649Z" fill="#105835" stroke="#105835" stroke-width="1.51"/><path d="M-354,1688L-327,1470L-513,957Z" fill="#145e3b" stroke="#145e3b" stroke-width="1.51"/><path d="M-513,957L-327,1470L-215,1421Z" fill="#145e3b" stroke="#145e3b" stroke-width="1.51"/><path d="M-215,1421L-122,1653L101,1467Z" fill="#145e3b" stroke="#145e3b" stroke-width="1.51"/><path d="M910,1526L995,1429L641,1301Z" fill="#146e40" stroke="#146e40" stroke-width="1.51"/><path d="M495,1755L641,1301L101,1467Z" fill="#156d42" stroke="#156d42" stroke-width="1.51"/><path d="M495,1755L910,1526L641,1301Z" fill="#167846" stroke="#167846" stroke-width="1.51"/><path d="M-327,1470L-122,1653L-215,1421Z" fill="#145e3b" stroke="#145e3b" stroke-width="1.51"/><path d="M129,1780L495,1755L101,1467Z" fill="#15673f" stroke="#15673f" stroke-width="1.51"/><path d="M-122,-457L-630,-429L-27,-73Z" fill="#1d8151" stroke="#1d8151" stroke-width="1.51"/><path d="M-598,80L-630,-429L-626,288Z" fill="#1d8151" stroke="#1d8151" stroke-width="1.51"/><path d="M-626,288L-630,-429L-661,705Z" fill="#1e8d56" stroke="#1e8d56" stroke-width="1.51"/><path d="M1148,1200L1481,928L1095,815Z" fill="#0e4d2e" stroke="#0e4d2e" stroke-width="1.51"/><path d="M1610,419L1449,-21L1257,179Z" fill="#156940" stroke="#156940" stroke-width="1.51"/><path d="M1679,1390L1481,928L1148,1200Z" fill="#0b3d26" stroke="#0b3d26" stroke-width="1.51"/><path d="M1283,1778L1148,1200L995,1429Z" fill="#105533" stroke="#105533" stroke-width="1.51"/><path d="M-122,1653L129,1780L101,1467Z" fill="#145f3b" stroke="#145f3b" stroke-width="1.51"/><path d="M1257,179L1449,-21L1153,63Z" fill="#176f44" stroke="#176f44" stroke-width="1.51"/><path d="M1084,-245L1661,-459L732,-497Z" fill="#187648" stroke="#187648" stroke-width="1.51"/><path d="M1610,419L1257,179L1245,649Z" fill="#177d49" stroke="#177d49" stroke-width="1.51"/><path d="M-122,1653L-354,1688L129,1780Z" fill="#145e3b" stroke="#145e3b" stroke-width="1.51"/><path d="M-327,1470L-354,1688L-122,1653Z" fill="#145e3b" stroke="#145e3b" stroke-width="1.51"/><path d="M-661,705L-354,1688L-513,957Z" fill="#145e3b" stroke="#145e3b" stroke-width="1.51"/><path d="M1665,476L1610,419L1245,649Z" fill="#157042" stroke="#157042" stroke-width="1.51"/><path d="M1610,419L1765,3L1449,-21Z" fill="#15663e" stroke="#15663e" stroke-width="1.51"/><path d="M1481,928L1665,476L1245,649Z" fill="#115935" stroke="#115935" stroke-width="1.51"/><path d="M2035,155L1765,3L1610,419Z" fill="#156940" stroke="#156940" stroke-width="1.51"/><path d="M1449,-21L1661,-459L1084,-245Z" fill="#14623d" stroke="#14623d" stroke-width="1.51"/><path d="M910,1526L1283,1778L995,1429Z" fill="#115c37" stroke="#115c37" stroke-width="1.51"/><path d="M1481,928L1953,798L1665,476Z" fill="#0f5232" stroke="#0f5232" stroke-width="1.51"/><path d="M495,1755L1283,1778L910,1526Z" fill="#146a3e" stroke="#146a3e" stroke-width="1.51"/><path d="M129,1780L1283,1778L495,1755Z" fill="#167645" stroke="#167645" stroke-width="1.51"/><path d="M1283,1778L1679,1390L1148,1200Z" fill="#0c4229" stroke="#0c4229" stroke-width="1.51"/><path d="M1665,476L2035,155L1610,419Z" fill="#167344" stroke="#167344" stroke-width="1.51"/><path d="M1785,-292L1661,-459L1449,-21Z" fill="#145e3b" stroke="#145e3b" stroke-width="1.51"/><path d="M1765,3L1785,-292L1449,-21Z" fill="#145e3b" stroke="#145e3b" stroke-width="1.51"/><path d="M2035,155L1785,-292L1765,3Z" fill="#145e3b" stroke="#145e3b" stroke-width="1.51"/><path d="M1679,1390L1953,798L1481,928Z" fill="#0b3d26" stroke="#0b3d26" stroke-width="1.51"/><path d="M1953,798L2047,535L1665,476Z" fill="#12643b" stroke="#12643b" stroke-width="1.51"/><path d="M2047,535L2035,155L1665,476Z" fill="#167545" stroke="#167545" stroke-width="1.51"/><path d="M1283,1778L1603,1746L1679,1390Z" fill="#0b3d26" stroke="#0b3d26" stroke-width="1.51"/><path d="M1679,1390L2001,1463L1953,798Z" fill="#0b3d26" stroke="#0b3d26" stroke-width="1.51"/><path d="M1603,1746L1793,1619L1679,1390Z" fill="#0b3d26" stroke="#0b3d26" stroke-width="1.51"/><path d="M1953,798L2001,1463L2047,535Z" fill="#0b3d26" stroke="#0b3d26" stroke-width="1.51"/><path d="M1793,1619L2001,1463L1679,1390Z" fill="#0b3d26" stroke="#0b3d26" stroke-width="1.51"/></svg>