<svg xmlns="http://www.w3.org/2000/svg" width="1440" height="900"><path d="M738,495L749,328L441,261Z" fill="#ada168" stroke="#ada168" stroke-width="1.51"/><path d="M441,261L542,629L738,495Z" fill="#c3a356" stroke="#c3a356" stroke-width="1.51"/><path d="M441,261L216,409L542,629Z" fill="#9f8f74" stroke="#9f8f74" stroke-width="1.51"/><path d="M216,409L270,614L542,629Z" fill="#925d81" stroke="#925d81" stroke-width="1.51"/><path d="M738,495L1155,306L749,328Z" fill="#bb7f65" stroke="#bb7f65" stroke-width="1.51"/><path d="M542,629L819,823L738,495Z" fill="#c9715f" stroke="#c9715f" stroke-width="1.51"/><path d="M537,1002L819,823L542,629Z" fill="#a26c7c" stroke="#a26c7c" stroke-width="1.51"/><path d="M819,823L1155,306L738,495Z" fill="#c8575f" stroke="#c8575f" stroke-width="1.51"/><path d="M275,-309L110,30L441,261Z" fill="#315dab" stroke="#315dab" stroke-width="1.51"/><path d="M441,261L110,30L216,409Z" fill="#3d54a3" stroke="#3d54a3" stroke-width="1.51"/><path d="M216,409L-93,574L270,614Z" fill="#965e81" stroke="#965e81" stroke-width="1.51"/><path d="M647,-251L441,261L749,328Z" fill="#837389" stroke="#837389" stroke-width="1.51"/><path d="M270,614L537,1002L542,629Z" fill="#6a619f" stroke="#6a619f" stroke-width="1.51"/><path d="M846,-218L647,-251L749,328Z" fill="#a48a79" stroke="#a48a79" stroke-width="1.51"/><path d="M1223,1L846,-218L749,328Z" fill="#87528e" stroke="#87528e" stroke-width="1.51"/><path d="M90,1167L408,1213L537,1002Z" fill="#58489b" stroke="#58489b" stroke-width="1.51"/><path d="M-202,139L-93,574L216,409Z" fill="#778893" stroke="#778893" stroke-width="1.51"/><path d="M1155,306L1223,1L749,328Z" fill="#7c4891" stroke="#7c4891" stroke-width="1.51"/><path d="M647,-251L275,-309L441,261Z" fill="#147baf" stroke="#147baf" stroke-width="1.51"/><path d="M1155,306L1605,188L1223,1Z" fill="#61399a" stroke="#61399a" stroke-width="1.51"/><path d="M819,823L1368,541L1155,306Z" fill="#b14076" stroke="#b14076" stroke-width="1.51"/><path d="M1356,855L1368,541L819,823Z" fill="#8e3193" stroke="#8e3193" stroke-width="1.51"/><path d="M110,30L-202,139L216,409Z" fill="#325eaa" stroke="#325eaa" stroke-width="1.51"/><path d="M-196,54L-202,139L110,30Z" fill="#2465b1" stroke="#2465b1" stroke-width="1.51"/><path d="M537,1002L1156,1315L819,823Z" fill="#a54d75" stroke="#a54d75" stroke-width="1.51"/><path d="M90,1167L537,1002L270,614Z" fill="#583f9a" stroke="#583f9a" stroke-width="1.51"/><path d="M-365,-354L-196,54L110,30Z" fill="#0073b6" stroke="#0073b6" stroke-width="1.51"/><path d="M-93,574L90,1167L270,614Z" fill="#644ba1" stroke="#644ba1" stroke-width="1.51"/><path d="M1156,1315L1356,855L819,823Z" fill="#832b8e" stroke="#832b8e" stroke-width="1.51"/><path d="M-365,-354L-374,34L-196,54Z" fill="#0073b6" stroke="#0073b6" stroke-width="1.51"/><path d="M647,-251L565,-558L275,-309Z" fill="#2c81ac" stroke="#2c81ac" stroke-width="1.51"/><path d="M846,-218L565,-558L647,-251Z" fill="#9c8f7e" stroke="#9c8f7e" stroke-width="1.51"/><path d="M1031,-616L565,-558L846,-218Z" fill="#9b7a82" stroke="#9b7a82" stroke-width="1.51"/><path d="M-93,574L-308,1071L90,1167Z" fill="#5253a4" stroke="#5253a4" stroke-width="1.51"/><path d="M-202,139L-434,517L-93,574Z" fill="#908c86" stroke="#908c86" stroke-width="1.51"/><path d="M-374,34L-434,517L-202,139Z" fill="#276dad" stroke="#276dad" stroke-width="1.51"/><path d="M-196,54L-374,34L-202,139Z" fill="#2565b0" stroke="#2565b0" stroke-width="1.51"/><path d="M-365,-354L110,30L275,-309Z" fill="#0472b5" stroke="#0472b5" stroke-width="1.51"/><path d="M1368,541L1605,188L1155,306Z" fill="#7f668e" stroke="#7f668e" stroke-width="1.51"/><path d="M1223,1L1310,-375L846,-218Z" fill="#6f57a0" stroke="#6f57a0" stroke-width="1.51"/><path d="M1756,589L1605,188L1368,541Z" fill="#b16c6b" stroke="#b16c6b" stroke-width="1.51"/><path d="M1443,-225L1310,-375L1223,1Z" fill="#5c55a5" stroke="#5c55a5" stroke-width="1.51"/><path d="M1605,188L1443,-225L1223,1Z" fill="#5353a4" stroke="#5353a4" stroke-width="1.51"/><path d="M743,1521L1156,1315L537,1002Z" fill="#a95572" stroke="#a95572" stroke-width="1.51"/><path d="M-434,517L-308,1071L-93,574Z" fill="#6c58a2" stroke="#6c58a2" stroke-width="1.51"/><path d="M1310,-375L1031,-616L846,-218Z" fill="#77569b" stroke="#77569b" stroke-width="1.51"/><path d="M408,1213L743,1521L537,1002Z" fill="#7f658c" stroke="#7f658c" stroke-width="1.51"/><path d="M14,1528L743,1521L408,1213Z" fill="#58509d" stroke="#58509d" stroke-width="1.51"/><path d="M14,1528L408,1213L90,1167Z" fill="#573c9c" stroke="#573c9c" stroke-width="1.51"/><path d="M1762,1042L1756,589L1356,855Z" fill="#722c94" stroke="#722c94" stroke-width="1.51"/><path d="M1356,855L1756,589L1368,541Z" fill="#882a8a" stroke="#882a8a" stroke-width="1.51"/><path d="M-374,34L-661,270L-434,517Z" fill="#1979af" stroke="#1979af" stroke-width="1.51"/><path d="M-276,-614L-365,-354L275,-309Z" fill="#0073b6" stroke="#0073b6" stroke-width="1.51"/><path d="M-308,1071L-194,1335L90,1167Z" fill="#5253a4" stroke="#5253a4" stroke-width="1.51"/><path d="M1310,-375L1458,-428L1031,-616Z" fill="#6057a5" stroke="#6057a5" stroke-width="1.51"/><path d="M1443,-225L1458,-428L1310,-375Z" fill="#5554a4" stroke="#5554a4" stroke-width="1.51"/><path d="M2138,-237L1458,-428L1443,-225Z" fill="#5253a4" stroke="#5253a4" stroke-width="1.51"/><path d="M1871,168L1443,-225L1605,188Z" fill="#544aa1" stroke="#544aa1" stroke-width="1.51"/><path d="M-365,-354L-661,270L-374,34Z" fill="#0073b6" stroke="#0073b6" stroke-width="1.51"/><path d="M-434,517L-690,1009L-308,1071Z" fill="#5754a5" stroke="#5754a5" stroke-width="1.51"/><path d="M-308,1071L-427,1525L-194,1335Z" fill="#5253a4" stroke="#5253a4" stroke-width="1.51"/><path d="M-194,1335L14,1528L90,1167Z" fill="#5253a4" stroke="#5253a4" stroke-width="1.51"/><path d="M1756,589L1871,168L1605,188Z" fill="#646299" stroke="#646299" stroke-width="1.51"/><path d="M-365,-354L-276,-614L-661,270Z" fill="#0073b6" stroke="#0073b6" stroke-width="1.51"/><path d="M565,-558L-276,-614L275,-309Z" fill="#2e5dad" stroke="#2e5dad" stroke-width="1.51"/><path d="M1031,-616L-276,-614L565,-558Z" fill="#1879af" stroke="#1879af" stroke-width="1.51"/><path d="M1478,1457L1762,1042L1356,855Z" fill="#6a2b93" stroke="#6a2b93" stroke-width="1.51"/><path d="M1756,589L1989,466L1871,168Z" fill="#a16a77" stroke="#a16a77" stroke-width="1.51"/><path d="M1478,1457L1356,855L1156,1315Z" fill="#722c94" stroke="#722c94" stroke-width="1.51"/><path d="M743,1521L1478,1457L1156,1315Z" fill="#822c8f" stroke="#822c8f" stroke-width="1.51"/><path d="M-194,1335L-427,1525L14,1528Z" fill="#5253a4" stroke="#5253a4" stroke-width="1.51"/><path d="M-661,270L-690,1009L-434,517Z" fill="#835693" stroke="#835693" stroke-width="1.51"/><path d="M2029,842L1989,466L1756,589Z" fill="#8c2886" stroke="#8c2886" stroke-width="1.51"/><path d="M-690,1009L-427,1525L-308,1071Z" fill="#5253a4" stroke="#5253a4" stroke-width="1.51"/><path d="M1861,1270L2029,842L1762,1042Z" fill="#6a2b93" stroke="#6a2b93" stroke-width="1.51"/><path d="M1762,1042L2029,842L1756,589Z" fill="#722c94" stroke="#722c94" stroke-width="1.51"/><path d="M1478,1457L1861,1270L1762,1042Z" fill="#6a2b93" stroke="#6a2b93" stroke-width="1.51"/><path d="M2029,842L2138,-237L1989,466Z" fill="#836589" stroke="#836589" stroke-width="1.51"/><path d="M1989,466L2138,-237L1871,168Z" fill="#57379a" stroke="#57379a" stroke-width="1.51"/><path d="M1871,168L2138,-237L1443,-225Z" fill="#5253a4" stroke="#5253a4" stroke-width="1.51"/><path d="M1458,-428L2099,-490L1031,-616Z" fill="#5253a4" stroke="#5253a4" stroke-width="1.51"/><path d="M2138,-237L2099,-490L1458,-428Z" fill="#5253a4" stroke="#5253a4" stroke-width="1.51"/></svg>