<svg xmlns="http://www.w3.org/2000/svg" width="1440" height="900"><path d="M612,383L363,125L556,403Z" fill="#ae8487" stroke="#ae8487" stroke-width="1.51"/><path d="M612,383L767,20L363,125Z" fill="#a37e92" stroke="#a37e92" stroke-width="1.51"/><path d="M368,-154L278,-44L363,125Z" fill="#6a68bc" stroke="#6a68bc" stroke-width="1.51"/><path d="M767,20L368,-154L363,125Z" fill="#8b77a7" stroke="#8b77a7" stroke-width="1.51"/><path d="M363,125L111,171L556,403Z" fill="#8064af" stroke="#8064af" stroke-width="1.51"/><path d="M278,-44L111,171L363,125Z" fill="#6d67ba" stroke="#6d67ba" stroke-width="1.51"/><path d="M767,20L771,-127L368,-154Z" fill="#a28893" stroke="#a28893" stroke-width="1.51"/><path d="M612,383L955,261L767,20Z" fill="#b69483" stroke="#b69483" stroke-width="1.51"/><path d="M767,20L1022,-195L771,-127Z" fill="#a59e9c" stroke="#a59e9c" stroke-width="1.51"/><path d="M996,490L955,261L612,383Z" fill="#d0bb64" stroke="#d0bb64" stroke-width="1.51"/><path d="M556,403L822,630L612,383Z" fill="#daba44" stroke="#daba44" stroke-width="1.51"/><path d="M506,867L822,630L556,403Z" fill="#cccc7d" stroke="#cccc7d" stroke-width="1.51"/><path d="M822,630L996,490L612,383Z" fill="#dcce52" stroke="#dcce52" stroke-width="1.51"/><path d="M278,-44L-103,-134L111,171Z" fill="#596ac4" stroke="#596ac4" stroke-width="1.51"/><path d="M368,-154L295,-300L278,-44Z" fill="#6968bd" stroke="#6968bd" stroke-width="1.51"/><path d="M838,-329L295,-300L368,-154Z" fill="#8b77a7" stroke="#8b77a7" stroke-width="1.51"/><path d="M111,171L66,561L556,403Z" fill="#a5828f" stroke="#a5828f" stroke-width="1.51"/><path d="M-103,-134L-100,273L111,171Z" fill="#5e69c1" stroke="#5e69c1" stroke-width="1.51"/><path d="M111,171L-100,273L66,561Z" fill="#927ba1" stroke="#927ba1" stroke-width="1.51"/><path d="M771,-127L838,-329L368,-154Z" fill="#a58b8f" stroke="#a58b8f" stroke-width="1.51"/><path d="M1022,-195L838,-329L771,-127Z" fill="#a4a0a0" stroke="#a4a0a0" stroke-width="1.51"/><path d="M66,561L506,867L556,403Z" fill="#ada9a2" stroke="#ada9a2" stroke-width="1.51"/><path d="M955,261L1022,-195L767,20Z" fill="#a3a4a5" stroke="#a3a4a5" stroke-width="1.51"/><path d="M1268,207L1022,-195L955,261Z" fill="#97b1be" stroke="#97b1be" stroke-width="1.51"/><path d="M1022,-195L972,-331L838,-329Z" fill="#9ea7ab" stroke="#9ea7ab" stroke-width="1.51"/><path d="M295,-300L-103,-134L278,-44Z" fill="#5e6ac2" stroke="#5e6ac2" stroke-width="1.51"/><path d="M-132,578L28,770L66,561Z" fill="#97adb8" stroke="#97adb8" stroke-width="1.51"/><path d="M66,561L28,770L506,867Z" fill="#a09abd" stroke="#a09abd" stroke-width="1.51"/><path d="M-100,273L-132,578L66,561Z" fill="#ac958b" stroke="#ac958b" stroke-width="1.51"/><path d="M-355,543L-132,578L-100,273Z" fill="#ad9489" stroke="#ad9489" stroke-width="1.51"/><path d="M1022,-195L1277,-284L972,-331Z" fill="#91b0c3" stroke="#91b0c3" stroke-width="1.51"/><path d="M996,490L1268,207L955,261Z" fill="#bac39c" stroke="#bac39c" stroke-width="1.51"/><path d="M822,630L1025,806L996,490Z" fill="#caee97" stroke="#caee97" stroke-width="1.51"/><path d="M996,490L1388,576L1268,207Z" fill="#d8b684" stroke="#d8b684" stroke-width="1.51"/><path d="M702,1077L1025,806L822,630Z" fill="#dea696" stroke="#dea696" stroke-width="1.51"/><path d="M-132,578L-98,760L28,770Z" fill="#94a8c3" stroke="#94a8c3" stroke-width="1.51"/><path d="M431,1147L702,1077L506,867Z" fill="#cc659c" stroke="#cc659c" stroke-width="1.51"/><path d="M295,-300L105,-493L-103,-134Z" fill="#5a6ac4" stroke="#5a6ac4" stroke-width="1.51"/><path d="M838,-329L105,-493L295,-300Z" fill="#786db4" stroke="#786db4" stroke-width="1.51"/><path d="M972,-331L105,-493L838,-329Z" fill="#a28892" stroke="#a28892" stroke-width="1.51"/><path d="M129,1037L506,867L28,770Z" fill="#a852bc" stroke="#a852bc" stroke-width="1.51"/><path d="M506,867L702,1077L822,630Z" fill="#de8b87" stroke="#de8b87" stroke-width="1.51"/><path d="M-415,87L-355,543L-100,273Z" fill="#8775aa" stroke="#8775aa" stroke-width="1.51"/><path d="M105,-493L-194,-328L-103,-134Z" fill="#526bc7" stroke="#526bc7" stroke-width="1.51"/><path d="M-98,760L129,1037L28,770Z" fill="#a067c3" stroke="#a067c3" stroke-width="1.51"/><path d="M1372,-175L1277,-284L1022,-195Z" fill="#9a8fc3" stroke="#9a8fc3" stroke-width="1.51"/><path d="M972,-331L1581,-420L105,-493Z" fill="#a3a1a1" stroke="#a3a1a1" stroke-width="1.51"/><path d="M129,1037L431,1147L506,867Z" fill="#ad4bb7" stroke="#ad4bb7" stroke-width="1.51"/><path d="M702,1077L1048,991L1025,806Z" fill="#dd91a4" stroke="#dd91a4" stroke-width="1.51"/><path d="M1296,761L1388,576L996,490Z" fill="#d1d0a9" stroke="#d1d0a9" stroke-width="1.51"/><path d="M876,1284L1048,991L702,1077Z" fill="#df8d9b" stroke="#df8d9b" stroke-width="1.51"/><path d="M-98,760L-248,884L129,1037Z" fill="#9f55c3" stroke="#9f55c3" stroke-width="1.51"/><path d="M-132,578L-400,807L-98,760Z" fill="#95a2c3" stroke="#95a2c3" stroke-width="1.51"/><path d="M-415,87L-100,273L-103,-134Z" fill="#5c6ac3" stroke="#5c6ac3" stroke-width="1.51"/><path d="M1296,761L996,490L1025,806Z" fill="#bff4ba" stroke="#bff4ba" stroke-width="1.51"/><path d="M1268,207L1372,-175L1022,-195Z" fill="#9a8fc3" stroke="#9a8fc3" stroke-width="1.51"/><path d="M1583,-126L1372,-175L1268,207Z" fill="#9f5cc3" stroke="#9f5cc3" stroke-width="1.51"/><path d="M1048,991L1296,761L1025,806Z" fill="#d4aabe" stroke="#d4aabe" stroke-width="1.51"/><path d="M-574,-124L-415,87L-103,-134Z" fill="#526bc7" stroke="#526bc7" stroke-width="1.51"/><path d="M-400,807L-248,884L-98,760Z" fill="#9e78c3" stroke="#9e78c3" stroke-width="1.51"/><path d="M1648,385L1571,294L1388,576Z" fill="#dd758a" stroke="#dd758a" stroke-width="1.51"/><path d="M1388,576L1571,294L1268,207Z" fill="#d07298" stroke="#d07298" stroke-width="1.51"/><path d="M-355,543L-400,807L-132,578Z" fill="#96aeba" stroke="#96aeba" stroke-width="1.51"/><path d="M-574,-124L-400,807L-355,543Z" fill="#a58a90" stroke="#a58a90" stroke-width="1.51"/><path d="M105,-493L-340,-480L-194,-328Z" fill="#526bc7" stroke="#526bc7" stroke-width="1.51"/><path d="M-194,-328L-574,-124L-103,-134Z" fill="#526bc7" stroke="#526bc7" stroke-width="1.51"/><path d="M1372,-175L1581,-420L1277,-284Z" fill="#9f5bc3" stroke="#9f5bc3" stroke-width="1.51"/><path d="M1571,294L1583,-126L1268,207Z" fill="#a74ebc" stroke="#a74ebc" stroke-width="1.51"/><path d="M1048,991L1158,1162L1296,761Z" fill="#d888bf" stroke="#d888bf" stroke-width="1.51"/><path d="M857,1323L876,1284L702,1077Z" fill="#e28691" stroke="#e28691" stroke-width="1.51"/><path d="M876,1284L1158,1162L1048,991Z" fill="#d99cb6" stroke="#d99cb6" stroke-width="1.51"/><path d="M1655,624L1648,385L1388,576Z" fill="#e18997" stroke="#e18997" stroke-width="1.51"/><path d="M-23,1300L129,1037L-248,884Z" fill="#a051c3" stroke="#a051c3" stroke-width="1.51"/><path d="M195,1419L431,1147L129,1037Z" fill="#a94cbb" stroke="#a94cbb" stroke-width="1.51"/><path d="M195,1419L548,1357L431,1147Z" fill="#b34fb3" stroke="#b34fb3" stroke-width="1.51"/><path d="M431,1147L548,1357L702,1077Z" fill="#ce669a" stroke="#ce669a" stroke-width="1.51"/><path d="M1571,294L1961,161L1583,-126Z" fill="#a74ebd" stroke="#a74ebd" stroke-width="1.51"/><path d="M1655,624L1388,576L1296,761Z" fill="#d89eb8" stroke="#d89eb8" stroke-width="1.51"/><path d="M-340,-480L-574,-124L-194,-328Z" fill="#526bc7" stroke="#526bc7" stroke-width="1.51"/><path d="M-415,87L-574,-124L-355,543Z" fill="#6668be" stroke="#6668be" stroke-width="1.51"/><path d="M548,1357L857,1323L702,1077Z" fill="#e27a84" stroke="#e27a84" stroke-width="1.51"/><path d="M876,1284L1248,1418L1158,1162Z" fill="#d69dbf" stroke="#d69dbf" stroke-width="1.51"/><path d="M-400,807L-353,992L-248,884Z" fill="#9f54c3" stroke="#9f54c3" stroke-width="1.51"/><path d="M1501,958L1655,624L1296,761Z" fill="#d96fbf" stroke="#d96fbf" stroke-width="1.51"/><path d="M-353,992L-23,1300L-248,884Z" fill="#a051c3" stroke="#a051c3" stroke-width="1.51"/><path d="M1158,1162L1501,958L1296,761Z" fill="#d956bf" stroke="#d956bf" stroke-width="1.51"/><path d="M1655,624L1747,367L1648,385Z" fill="#e47e84" stroke="#e47e84" stroke-width="1.51"/><path d="M1648,385L1747,367L1571,294Z" fill="#ce669b" stroke="#ce669b" stroke-width="1.51"/><path d="M1583,-126L1581,-420L1372,-175Z" fill="#a051c3" stroke="#a051c3" stroke-width="1.51"/><path d="M1277,-284L1581,-420L972,-331Z" fill="#9d81c3" stroke="#9d81c3" stroke-width="1.51"/><path d="M1765,-234L1581,-420L1583,-126Z" fill="#a051c3" stroke="#a051c3" stroke-width="1.51"/><path d="M-23,1300L195,1419L129,1037Z" fill="#a450c0" stroke="#a450c0" stroke-width="1.51"/><path d="M548,1357L1248,1418L857,1323Z" fill="#df8d9d" stroke="#df8d9d" stroke-width="1.51"/><path d="M1961,161L1765,-234L1583,-126Z" fill="#a051c3" stroke="#a051c3" stroke-width="1.51"/><path d="M-23,1300L-293,1332L195,1419Z" fill="#a051c3" stroke="#a051c3" stroke-width="1.51"/><path d="M-353,992L-293,1332L-23,1300Z" fill="#a051c3" stroke="#a051c3" stroke-width="1.51"/><path d="M-400,807L-293,1332L-353,992Z" fill="#a051c3" stroke="#a051c3" stroke-width="1.51"/><path d="M1158,1162L1485,1378L1501,958Z" fill="#d839bf" stroke="#d839bf" stroke-width="1.51"/><path d="M857,1323L1248,1418L876,1284Z" fill="#da99b0" stroke="#da99b0" stroke-width="1.51"/><path d="M195,1419L1248,1418L548,1357Z" fill="#dd758b" stroke="#dd758b" stroke-width="1.51"/><path d="M2012,694L1655,624L1914,978Z" fill="#d976bf" stroke="#d976bf" stroke-width="1.51"/><path d="M2012,694L1747,367L1655,624Z" fill="#df8f9f" stroke="#df8f9f" stroke-width="1.51"/><path d="M2012,694L1961,161L1747,367Z" fill="#db738c" stroke="#db738c" stroke-width="1.51"/><path d="M1747,367L1961,161L1571,294Z" fill="#bb56ac" stroke="#bb56ac" stroke-width="1.51"/><path d="M1248,1418L1485,1378L1158,1162Z" fill="#d95ebf" stroke="#d95ebf" stroke-width="1.51"/><path d="M1914,978L1655,624L1501,958Z" fill="#d842bf" stroke="#d842bf" stroke-width="1.51"/><path d="M1835,1339L1914,978L1501,958Z" fill="#d700bf" stroke="#d700bf" stroke-width="1.51"/><path d="M1961,161L1984,-444L1765,-234Z" fill="#a051c3" stroke="#a051c3" stroke-width="1.51"/><path d="M1765,-234L1984,-444L1581,-420Z" fill="#a051c3" stroke="#a051c3" stroke-width="1.51"/><path d="M1581,-420L1984,-444L105,-493Z" fill="#9a8fc3" stroke="#9a8fc3" stroke-width="1.51"/><path d="M2012,694L1984,-444L1961,161Z" fill="#a84dbc" stroke="#a84dbc" stroke-width="1.51"/><path d="M1248,1418L1835,1339L1485,1378Z" fill="#d700bf" stroke="#d700bf" stroke-width="1.51"/><path d="M1485,1378L1835,1339L1501,958Z" fill="#d700bf" stroke="#d700bf" stroke-width="1.51"/><path d="M1914,978L1835,1339L2012,694Z" fill="#d700bf" stroke="#d700bf" stroke-width="1.51"/></svg>