<svg xmlns="http://www.w3.org/2000/svg" width="1440" height="900"><path d="M979,492L1072,557L1306,239Z" fill="#c2b7cf" stroke="#c2b7cf" stroke-width="1.51"/><path d="M979,492L1113,826L1072,557Z" fill="#aba3cc" stroke="#aba3cc" stroke-width="1.51"/><path d="M958,127L882,426L979,492Z" fill="#e4cec5" stroke="#e4cec5" stroke-width="1.51"/><path d="M1306,239L958,127L979,492Z" fill="#d1a69b" stroke="#d1a69b" stroke-width="1.51"/><path d="M1072,557L1400,654L1306,239Z" fill="#a790c2" stroke="#a790c2" stroke-width="1.51"/><path d="M1306,239L1371,-8L958,127Z" fill="#a35b5e" stroke="#a35b5e" stroke-width="1.51"/><path d="M1597,295L1371,-8L1306,239Z" fill="#8c3f41" stroke="#8c3f41" stroke-width="1.51"/><path d="M1400,654L1597,295L1306,239Z" fill="#94708d" stroke="#94708d" stroke-width="1.51"/><path d="M1072,557L1113,826L1400,654Z" fill="#8674af" stroke="#8674af" stroke-width="1.51"/><path d="M550,841L1113,826L979,492Z" fill="#aaa2ca" stroke="#aaa2ca" stroke-width="1.51"/><path d="M1371,-8L1292,-122L958,127Z" fill="#824755" stroke="#824755" stroke-width="1.51"/><path d="M1236,-253L1292,-122L1621,-453Z" fill="#66243b" stroke="#66243b" stroke-width="1.51"/><path d="M1597,295L1917,126L1371,-8Z" fill="#81343a" stroke="#81343a" stroke-width="1.51"/><path d="M1400,654L1682,333L1597,295Z" fill="#927397" stroke="#927397" stroke-width="1.51"/><path d="M958,127L586,229L882,426Z" fill="#f5cba6" stroke="#f5cba6" stroke-width="1.51"/><path d="M882,426L550,841L979,492Z" fill="#d4d4e7" stroke="#d4d4e7" stroke-width="1.51"/><path d="M652,-180L586,229L958,127Z" fill="#d49f7e" stroke="#d49f7e" stroke-width="1.51"/><path d="M1292,-122L1236,-253L958,127Z" fill="#88545a" stroke="#88545a" stroke-width="1.51"/><path d="M1749,-321L1292,-122L1371,-8Z" fill="#5c1c30" stroke="#5c1c30" stroke-width="1.51"/><path d="M586,229L506,537L882,426Z" fill="#fcebd6" stroke="#fcebd6" stroke-width="1.51"/><path d="M1400,654L1906,657L1682,333Z" fill="#806897" stroke="#806897" stroke-width="1.51"/><path d="M1113,826L1578,909L1400,654Z" fill="#4e247c" stroke="#4e247c" stroke-width="1.51"/><path d="M757,-297L652,-180L958,127Z" fill="#bb8e78" stroke="#bb8e78" stroke-width="1.51"/><path d="M586,229L119,325L506,537Z" fill="#fdc787" stroke="#fdc787" stroke-width="1.51"/><path d="M506,537L550,841L882,426Z" fill="#ded2d8" stroke="#ded2d8" stroke-width="1.51"/><path d="M1113,826L1433,1262L1578,909Z" fill="#350758" stroke="#350758" stroke-width="1.51"/><path d="M1236,-253L757,-297L958,127Z" fill="#a5756d" stroke="#a5756d" stroke-width="1.51"/><path d="M550,841L739,1055L1113,826Z" fill="#886f9a" stroke="#886f9a" stroke-width="1.51"/><path d="M1682,333L1917,126L1597,295Z" fill="#945356" stroke="#945356" stroke-width="1.51"/><path d="M1906,657L1917,126L1682,333Z" fill="#946d85" stroke="#946d85" stroke-width="1.51"/><path d="M1578,909L1906,657L1400,654Z" fill="#523276" stroke="#523276" stroke-width="1.51"/><path d="M1578,909L1825,860L1906,657Z" fill="#411469" stroke="#411469" stroke-width="1.51"/><path d="M739,1055L850,1167L1113,826Z" fill="#7d6495" stroke="#7d6495" stroke-width="1.51"/><path d="M1578,909L1850,1252L1825,860Z" fill="#2d004b" stroke="#2d004b" stroke-width="1.51"/><path d="M357,-370L318,-20L652,-180Z" fill="#bd7938" stroke="#bd7938" stroke-width="1.51"/><path d="M652,-180L318,-20L586,229Z" fill="#c2854d" stroke="#c2854d" stroke-width="1.51"/><path d="M506,537L242,692L550,841Z" fill="#cd9d91" stroke="#cd9d91" stroke-width="1.51"/><path d="M1236,-253L691,-487L757,-297Z" fill="#b08374" stroke="#b08374" stroke-width="1.51"/><path d="M1917,126L1749,-321L1371,-8Z" fill="#5c1c30" stroke="#5c1c30" stroke-width="1.51"/><path d="M850,1167L1045,1274L1113,826Z" fill="#70558d" stroke="#70558d" stroke-width="1.51"/><path d="M1749,-321L1621,-453L1292,-122Z" fill="#5c1c30" stroke="#5c1c30" stroke-width="1.51"/><path d="M1045,1274L1433,1262L1113,826Z" fill="#502f75" stroke="#502f75" stroke-width="1.51"/><path d="M550,841L372,1118L739,1055Z" fill="#95687b" stroke="#95687b" stroke-width="1.51"/><path d="M739,1055L515,1243L850,1167Z" fill="#91759a" stroke="#91759a" stroke-width="1.51"/><path d="M119,325L242,692L506,537Z" fill="#ebb187" stroke="#ebb187" stroke-width="1.51"/><path d="M757,-297L691,-487L652,-180Z" fill="#c29476" stroke="#c29476" stroke-width="1.51"/><path d="M1621,-453L691,-487L1236,-253Z" fill="#854e58" stroke="#854e58" stroke-width="1.51"/><path d="M318,-20L119,325L586,229Z" fill="#e58b26" stroke="#e58b26" stroke-width="1.51"/><path d="M1825,860L2024,907L1906,657Z" fill="#411469" stroke="#411469" stroke-width="1.51"/><path d="M2283,286L2154,20L1917,126Z" fill="#82363b" stroke="#82363b" stroke-width="1.51"/><path d="M1850,1252L2024,907L1825,860Z" fill="#2d004b" stroke="#2d004b" stroke-width="1.51"/><path d="M1917,126L2000,-281L1749,-321Z" fill="#5c1c30" stroke="#5c1c30" stroke-width="1.51"/><path d="M1749,-321L2000,-281L1621,-453Z" fill="#5c1c30" stroke="#5c1c30" stroke-width="1.51"/><path d="M2283,286L1917,126L1906,657Z" fill="#956a7f" stroke="#956a7f" stroke-width="1.51"/><path d="M15,108L25,307L119,325Z" fill="#c3762d" stroke="#c3762d" stroke-width="1.51"/><path d="M691,-487L357,-370L652,-180Z" fill="#c0895a" stroke="#c0895a" stroke-width="1.51"/><path d="M2154,20L2000,-281L1917,126Z" fill="#5c1c30" stroke="#5c1c30" stroke-width="1.51"/><path d="M176,1000L372,1118L550,841Z" fill="#914c4e" stroke="#914c4e" stroke-width="1.51"/><path d="M709,1689L975,1692L1045,1274Z" fill="#7c6394" stroke="#7c6394" stroke-width="1.51"/><path d="M176,1000L550,841L242,692Z" fill="#9e5058" stroke="#9e5058" stroke-width="1.51"/><path d="M372,1118L515,1243L739,1055Z" fill="#956778" stroke="#956778" stroke-width="1.51"/><path d="M119,325L-47,543L242,692Z" fill="#cc967b" stroke="#cc967b" stroke-width="1.51"/><path d="M15,108L119,325L318,-20Z" fill="#c0640a" stroke="#c0640a" stroke-width="1.51"/><path d="M1433,1262L1850,1252L1578,909Z" fill="#2d004b" stroke="#2d004b" stroke-width="1.51"/><path d="M1045,1274L1207,1476L1433,1262Z" fill="#4b2671" stroke="#4b2671" stroke-width="1.51"/><path d="M975,1692L1207,1476L1045,1274Z" fill="#634884" stroke="#634884" stroke-width="1.51"/><path d="M2024,907L2218,655L1906,657Z" fill="#523376" stroke="#523376" stroke-width="1.51"/><path d="M1882,1430L1850,1252L1433,1262Z" fill="#2d004b" stroke="#2d004b" stroke-width="1.51"/><path d="M2024,907L2037,1292L2218,655Z" fill="#2d004b" stroke="#2d004b" stroke-width="1.51"/><path d="M2218,655L2283,286L1906,657Z" fill="#836a98" stroke="#836a98" stroke-width="1.51"/><path d="M-99,-432L15,108L318,-20Z" fill="#8d4208" stroke="#8d4208" stroke-width="1.51"/><path d="M213,1668L709,1689L515,1243Z" fill="#965e68" stroke="#965e68" stroke-width="1.51"/><path d="M-177,992L176,1000L242,692Z" fill="#6c2535" stroke="#6c2535" stroke-width="1.51"/><path d="M-394,332L-47,543L25,307Z" fill="#c18f68" stroke="#c18f68" stroke-width="1.51"/><path d="M25,307L-47,543L119,325Z" fill="#c89268" stroke="#c89268" stroke-width="1.51"/><path d="M1882,1430L2037,1292L1850,1252Z" fill="#2d004b" stroke="#2d004b" stroke-width="1.51"/><path d="M1850,1252L2037,1292L2024,907Z" fill="#2d004b" stroke="#2d004b" stroke-width="1.51"/><path d="M1601,1653L1882,1430L1433,1262Z" fill="#2d004b" stroke="#2d004b" stroke-width="1.51"/><path d="M709,1689L1045,1274L850,1167Z" fill="#816998" stroke="#816998" stroke-width="1.51"/><path d="M1207,1476L1601,1653L1433,1262Z" fill="#300350" stroke="#300350" stroke-width="1.51"/><path d="M709,1689L850,1167L515,1243Z" fill="#917498" stroke="#917498" stroke-width="1.51"/><path d="M975,1692L1601,1653L1207,1476Z" fill="#461e6d" stroke="#461e6d" stroke-width="1.51"/><path d="M213,1668L515,1243L372,1118Z" fill="#914c4f" stroke="#914c4f" stroke-width="1.51"/><path d="M1601,1653L2096,1451L1882,1430Z" fill="#2d004b" stroke="#2d004b" stroke-width="1.51"/><path d="M1882,1430L2096,1451L2037,1292Z" fill="#2d004b" stroke="#2d004b" stroke-width="1.51"/><path d="M2037,1292L2096,1451L2218,655Z" fill="#2d004b" stroke="#2d004b" stroke-width="1.51"/><path d="M2218,655L2096,1451L2283,286Z" fill="#44196b" stroke="#44196b" stroke-width="1.51"/><path d="M176,1000L-87,1340L372,1118Z" fill="#772b36" stroke="#772b36" stroke-width="1.51"/><path d="M-47,543L-177,992L242,692Z" fill="#864d57" stroke="#864d57" stroke-width="1.51"/><path d="M-520,657L-177,992L-47,543Z" fill="#875159" stroke="#875159" stroke-width="1.51"/><path d="M15,108L-394,332L25,307Z" fill="#ba712d" stroke="#ba712d" stroke-width="1.51"/><path d="M357,-370L-99,-432L318,-20Z" fill="#a05009" stroke="#a05009" stroke-width="1.51"/><path d="M691,-487L-99,-432L357,-370Z" fill="#b16317" stroke="#b16317" stroke-width="1.51"/><path d="M-546,119L-394,332L15,108Z" fill="#af5f12" stroke="#af5f12" stroke-width="1.51"/><path d="M-177,992L-87,1340L176,1000Z" fill="#5c1c30" stroke="#5c1c30" stroke-width="1.51"/><path d="M-446,1044L-87,1340L-177,992Z" fill="#5c1c30" stroke="#5c1c30" stroke-width="1.51"/><path d="M-87,1340L213,1668L372,1118Z" fill="#792d37" stroke="#792d37" stroke-width="1.51"/><path d="M-546,119L-520,657L-394,332Z" fill="#c18b60" stroke="#c18b60" stroke-width="1.51"/><path d="M-394,332L-520,657L-47,543Z" fill="#b88c77" stroke="#b88c77" stroke-width="1.51"/><path d="M-330,1688L61,1660L-87,1340Z" fill="#5c1c30" stroke="#5c1c30" stroke-width="1.51"/><path d="M-87,1340L61,1660L213,1668Z" fill="#672233" stroke="#672233" stroke-width="1.51"/><path d="M-99,-432L-348,-455L15,108Z" fill="#7f3b08" stroke="#7f3b08" stroke-width="1.51"/><path d="M691,-487L-348,-455L-99,-432Z" fill="#8d4308" stroke="#8d4308" stroke-width="1.51"/><path d="M-348,-455L-546,119L15,108Z" fill="#7f3b08" stroke="#7f3b08" stroke-width="1.51"/><path d="M-520,657L-446,1044L-177,992Z" fill="#5d1d31" stroke="#5d1d31" stroke-width="1.51"/><path d="M-520,657L-544,1135L-446,1044Z" fill="#5c1c30" stroke="#5c1c30" stroke-width="1.51"/><path d="M-446,1044L-544,1135L-87,1340Z" fill="#5c1c30" stroke="#5c1c30" stroke-width="1.51"/><path d="M-546,119L-544,1135L-520,657Z" fill="#a06f6a" stroke="#a06f6a" stroke-width="1.51"/><path d="M-544,1135L-330,1688L-87,1340Z" fill="#5c1c30" stroke="#5c1c30" stroke-width="1.51"/><path d="M61,1660L-330,1688L213,1668Z" fill="#5c1c30" stroke="#5c1c30" stroke-width="1.51"/><path d="M213,1668L-330,1688L709,1689Z" fill="#7d3139" stroke="#7d3139" stroke-width="1.51"/><path d="M709,1689L-330,1688L975,1692Z" fill="#965a61" stroke="#965a61" stroke-width="1.51"/></svg>