<svg xmlns="http://www.w3.org/2000/svg" width="1440" height="900"><path d="M833,652L1164,714L970,401Z" fill="#957f9e" stroke="#957f9e" stroke-width="1.51"/><path d="M1164,714L1285,317L970,401Z" fill="#928a98" stroke="#928a98" stroke-width="1.51"/><path d="M833,652L980,1064L1164,714Z" fill="#b36796" stroke="#b36796" stroke-width="1.51"/><path d="M980,1064L1270,1046L1164,714Z" fill="#c8528f" stroke="#c8528f" stroke-width="1.51"/><path d="M1164,714L1707,728L1285,317Z" fill="#b66e90" stroke="#b66e90" stroke-width="1.51"/><path d="M980,1064L1087,1144L1270,1046Z" fill="#c65390" stroke="#c65390" stroke-width="1.51"/><path d="M547,1033L755,1172L980,1064Z" fill="#ad8988" stroke="#ad8988" stroke-width="1.51"/><path d="M980,1064L755,1172L1087,1144Z" fill="#bb6d8e" stroke="#bb6d8e" stroke-width="1.51"/><path d="M323,369L462,764L833,652Z" fill="#a79580" stroke="#a79580" stroke-width="1.51"/><path d="M547,1033L980,1064L833,652Z" fill="#af8589" stroke="#af8589" stroke-width="1.51"/><path d="M462,764L547,1033L833,652Z" fill="#b58781" stroke="#b58781" stroke-width="1.51"/><path d="M970,401L503,148L833,652Z" fill="#76b386" stroke="#76b386" stroke-width="1.51"/><path d="M1285,317L834,-61L970,401Z" fill="#d07a6e" stroke="#d07a6e" stroke-width="1.51"/><path d="M834,-61L503,148L970,401Z" fill="#bc9c62" stroke="#bc9c62" stroke-width="1.51"/><path d="M1629,1014L1707,728L1164,714Z" fill="#d44e86" stroke="#d44e86" stroke-width="1.51"/><path d="M1285,317L1339,-62L834,-61Z" fill="#d76067" stroke="#d76067" stroke-width="1.51"/><path d="M1736,183L1339,-62L1285,317Z" fill="#eb645b" stroke="#eb645b" stroke-width="1.51"/><path d="M503,148L323,369L833,652Z" fill="#a1ae6d" stroke="#a1ae6d" stroke-width="1.51"/><path d="M270,1360L530,1232L547,1033Z" fill="#dd7768" stroke="#dd7768" stroke-width="1.51"/><path d="M1412,1459L1629,1014L1270,1046Z" fill="#dd4a80" stroke="#dd4a80" stroke-width="1.51"/><path d="M1270,1046L1629,1014L1164,714Z" fill="#d74d84" stroke="#d74d84" stroke-width="1.51"/><path d="M834,-61L600,-70L503,148Z" fill="#c68f50" stroke="#c68f50" stroke-width="1.51"/><path d="M503,148L268,-172L323,369Z" fill="#f5812e" stroke="#f5812e" stroke-width="1.51"/><path d="M741,-261L600,-70L834,-61Z" fill="#b9945a" stroke="#b9945a" stroke-width="1.51"/><path d="M1287,1745L1412,1459L1087,1144Z" fill="#d14f89" stroke="#d14f89" stroke-width="1.51"/><path d="M547,1033L530,1232L755,1172Z" fill="#c0867a" stroke="#c0867a" stroke-width="1.51"/><path d="M182,849L547,1033L462,764Z" fill="#e37163" stroke="#e37163" stroke-width="1.51"/><path d="M1707,728L1736,183L1285,317Z" fill="#b7897f" stroke="#b7897f" stroke-width="1.51"/><path d="M101,560L182,849L462,764Z" fill="#d8696a" stroke="#d8696a" stroke-width="1.51"/><path d="M1222,-409L741,-261L834,-61Z" fill="#c97563" stroke="#c97563" stroke-width="1.51"/><path d="M1707,728L1931,602L1736,183Z" fill="#b18289" stroke="#b18289" stroke-width="1.51"/><path d="M2085,1125L1931,602L1707,728Z" fill="#d44e86" stroke="#d44e86" stroke-width="1.51"/><path d="M323,369L101,560L462,764Z" fill="#c78a68" stroke="#c78a68" stroke-width="1.51"/><path d="M-311,240L101,560L323,369Z" fill="#ca904f" stroke="#ca904f" stroke-width="1.51"/><path d="M268,-172L503,148L600,-70Z" fill="#e57f38" stroke="#e57f38" stroke-width="1.51"/><path d="M1736,183L1760,-91L1339,-62Z" fill="#e95356" stroke="#e95356" stroke-width="1.51"/><path d="M1931,602L1895,221L1736,183Z" fill="#ce7f71" stroke="#ce7f71" stroke-width="1.51"/><path d="M1087,1144L1412,1459L1270,1046Z" fill="#d04f89" stroke="#d04f89" stroke-width="1.51"/><path d="M1629,1014L2085,1125L1707,728Z" fill="#dd4a80" stroke="#dd4a80" stroke-width="1.51"/><path d="M1287,1745L1087,1144L749,1832Z" fill="#c15b91" stroke="#c15b91" stroke-width="1.51"/><path d="M1412,1459L1757,1233L1629,1014Z" fill="#dd4a80" stroke="#dd4a80" stroke-width="1.51"/><path d="M1895,221L1760,-91L1736,183Z" fill="#ea5f59" stroke="#ea5f59" stroke-width="1.51"/><path d="M1339,-62L1222,-409L834,-61Z" fill="#d55966" stroke="#d55966" stroke-width="1.51"/><path d="M1601,-401L1222,-409L1339,-62Z" fill="#e65359" stroke="#e65359" stroke-width="1.51"/><path d="M1760,-91L1677,-198L1339,-62Z" fill="#e95256" stroke="#e95256" stroke-width="1.51"/><path d="M1412,1459L1455,1520L1757,1233Z" fill="#dd4a80" stroke="#dd4a80" stroke-width="1.51"/><path d="M1287,1745L1455,1520L1412,1459Z" fill="#d94c83" stroke="#d94c83" stroke-width="1.51"/><path d="M341,-364L268,-172L600,-70Z" fill="#ed7931" stroke="#ed7931" stroke-width="1.51"/><path d="M341,-364L600,-70L741,-261Z" fill="#d58846" stroke="#d58846" stroke-width="1.51"/><path d="M530,1232L449,1619L755,1172Z" fill="#c68376" stroke="#c68376" stroke-width="1.51"/><path d="M182,849L270,1360L547,1033Z" fill="#eb6b5d" stroke="#eb6b5d" stroke-width="1.51"/><path d="M-131,959L270,1360L182,849Z" fill="#ea5a58" stroke="#ea5a58" stroke-width="1.51"/><path d="M101,560L-75,608L182,849Z" fill="#d25f6a" stroke="#d25f6a" stroke-width="1.51"/><path d="M-311,240L-75,608L101,560Z" fill="#bb915b" stroke="#bb915b" stroke-width="1.51"/><path d="M1222,-409L698,-511L741,-261Z" fill="#c67c61" stroke="#c67c61" stroke-width="1.51"/><path d="M1222,-409L1601,-401L698,-511Z" fill="#d85864" stroke="#d85864" stroke-width="1.51"/><path d="M1677,-198L1601,-401L1339,-62Z" fill="#e95256" stroke="#e95256" stroke-width="1.51"/><path d="M1954,-385L1601,-401L1677,-198Z" fill="#e95256" stroke="#e95256" stroke-width="1.51"/><path d="M698,-511L341,-364L741,-261Z" fill="#cf8b4a" stroke="#cf8b4a" stroke-width="1.51"/><path d="M268,-172L-139,-143L323,369Z" fill="#f36828" stroke="#f36828" stroke-width="1.51"/><path d="M270,1360L449,1619L530,1232Z" fill="#e27364" stroke="#e27364" stroke-width="1.51"/><path d="M1975,1674L2085,1125L1757,1233Z" fill="#dd4a80" stroke="#dd4a80" stroke-width="1.51"/><path d="M749,1832L1087,1144L755,1172Z" fill="#b5798b" stroke="#b5798b" stroke-width="1.51"/><path d="M1757,1233L2085,1125L1629,1014Z" fill="#dd4a80" stroke="#dd4a80" stroke-width="1.51"/><path d="M1931,602L2085,1125L1895,221Z" fill="#c15c91" stroke="#c15c91" stroke-width="1.51"/><path d="M1975,1674L1757,1233L1455,1520Z" fill="#dd4a80" stroke="#dd4a80" stroke-width="1.51"/><path d="M-75,608L-131,959L182,849Z" fill="#df565e" stroke="#df565e" stroke-width="1.51"/><path d="M270,1360L277,1714L449,1619Z" fill="#eb6b5d" stroke="#eb6b5d" stroke-width="1.51"/><path d="M449,1619L749,1832L755,1172Z" fill="#b8897e" stroke="#b8897e" stroke-width="1.51"/><path d="M449,1619L277,1714L749,1832Z" fill="#d57b6c" stroke="#d57b6c" stroke-width="1.51"/><path d="M-187,1533L277,1714L270,1360Z" fill="#ea5b59" stroke="#ea5b59" stroke-width="1.51"/><path d="M1601,-401L1954,-385L698,-511Z" fill="#e75357" stroke="#e75357" stroke-width="1.51"/><path d="M1760,-91L1954,-385L1677,-198Z" fill="#e95256" stroke="#e95256" stroke-width="1.51"/><path d="M1895,221L1954,-385L1760,-91Z" fill="#e95256" stroke="#e95256" stroke-width="1.51"/><path d="M2085,1125L1954,-385L1895,221Z" fill="#d27d6f" stroke="#d27d6f" stroke-width="1.51"/><path d="M-131,-344L-139,-143L268,-172Z" fill="#f15b25" stroke="#f15b25" stroke-width="1.51"/><path d="M-75,608L-355,776L-131,959Z" fill="#dd5760" stroke="#dd5760" stroke-width="1.51"/><path d="M-139,-143L-311,240L323,369Z" fill="#f36d29" stroke="#f36d29" stroke-width="1.51"/><path d="M-131,959L-171,1428L270,1360Z" fill="#e95256" stroke="#e95256" stroke-width="1.51"/><path d="M-311,240L-355,776L-75,608Z" fill="#c48060" stroke="#c48060" stroke-width="1.51"/><path d="M-311,240L-368,236L-355,776Z" fill="#c29153" stroke="#c29153" stroke-width="1.51"/><path d="M-139,-143L-368,236L-311,240Z" fill="#f36828" stroke="#f36828" stroke-width="1.51"/><path d="M1287,1745L1975,1674L1455,1520Z" fill="#dd4a80" stroke="#dd4a80" stroke-width="1.51"/><path d="M749,1832L1975,1674L1287,1745Z" fill="#d64d85" stroke="#d64d85" stroke-width="1.51"/><path d="M-640,989L-171,1428L-131,959Z" fill="#e95256" stroke="#e95256" stroke-width="1.51"/><path d="M-139,-143L-463,-250L-368,236Z" fill="#f15b25" stroke="#f15b25" stroke-width="1.51"/><path d="M341,-364L-131,-344L268,-172Z" fill="#f36627" stroke="#f36627" stroke-width="1.51"/><path d="M698,-511L-131,-344L341,-364Z" fill="#f3702a" stroke="#f3702a" stroke-width="1.51"/><path d="M-346,1745L-187,1533L-610,1414Z" fill="#e95256" stroke="#e95256" stroke-width="1.51"/><path d="M-171,1428L-187,1533L270,1360Z" fill="#e95256" stroke="#e95256" stroke-width="1.51"/><path d="M-131,-344L-463,-250L-139,-143Z" fill="#f15b25" stroke="#f15b25" stroke-width="1.51"/><path d="M-368,236L-640,989L-355,776Z" fill="#d15d68" stroke="#d15d68" stroke-width="1.51"/><path d="M-355,776L-640,989L-131,959Z" fill="#e95256" stroke="#e95256" stroke-width="1.51"/><path d="M-579,-164L-640,989L-368,236Z" fill="#d48946" stroke="#d48946" stroke-width="1.51"/><path d="M-463,-250L-579,-164L-368,236Z" fill="#f15b25" stroke="#f15b25" stroke-width="1.51"/><path d="M-610,1414L-187,1533L-171,1428Z" fill="#e95256" stroke="#e95256" stroke-width="1.51"/><path d="M-187,1533L-346,1745L277,1714Z" fill="#e95256" stroke="#e95256" stroke-width="1.51"/><path d="M277,1714L-346,1745L749,1832Z" fill="#ea635b" stroke="#ea635b" stroke-width="1.51"/><path d="M-640,989L-610,1414L-171,1428Z" fill="#e95256" stroke="#e95256" stroke-width="1.51"/></svg>